<svg width="80" height="45" viewBox="0 0 80 45" fill="none" xmlns="http://www.w3.org/2000/svg">
<g clip-path="url(#clip0_2049_4837)">
<path d="M37.7568 38.6401C36.0235 42.3711 33.0567 44.274 29.0571 44.274C26.326 44.274 24.1258 43.3401 22.2911 41.4086C20.5578 39.5739 19.6592 37.3076 19.6592 34.777C19.6592 32.2463 20.6261 29.9778 22.3946 28.2092C24.194 26.4142 26.5595 25.4121 28.9932 25.4121C34.6932 25.4121 38.7017 29.5087 38.5915 36.1755C38.5893 36.3407 38.5915 36.5411 38.5915 36.7416H25.0949C25.5618 38.6401 26.9273 39.6422 29.2289 39.6422C30.2949 39.6422 31.1604 39.3405 31.9599 38.6401H37.759H37.7568ZM33.2902 33.0106C32.6581 31.1782 31.1582 30.1782 29.0593 30.1782C26.9603 30.1782 25.2931 31.3103 24.9253 33.0106H33.2902Z" fill="white"/>
<path d="M55.3016 25.943H52.3128C52.3128 23.2185 53.696 22.0556 55.6143 22.0556C57.3763 22.0556 58.1956 23.0093 58.1956 23.0093L60.8276 20.0205C59.636 18.2409 56.2861 16.4481 52.0375 17.6969C50.9693 18.0031 50.106 18.5911 49.4144 19.3466C48.137 18.6947 46.2803 18.2255 43.9016 18.8775C40.3403 19.8994 38.9946 23.1789 38.9946 25.943H37.1071V29.9404H38.9946V43.838H44.1615V29.9404H47.1503V43.838H52.3151V29.9404H55.3038V43.838H60.5368V25.943H55.3038H55.3016ZM46.2583 25.943H44.1593C44.1593 25.943 43.8642 22.6965 47.5643 22.8771C47.278 23.9189 47.1481 24.9827 47.1481 25.943H46.2583Z" fill="white"/>
<path d="M79.1675 38.6401C77.4319 42.3711 74.4674 44.274 70.4655 44.274C67.7345 44.274 65.532 43.3401 63.6996 41.4086C62.1711 39.7898 61.2527 37.834 61.0698 35.6536C61.0456 35.365 61.0698 35.0721 61.0698 34.777C61.0698 32.275 62.0345 29.9778 63.8009 28.2092C65.6025 26.4142 67.968 25.4121 70.3995 25.4121C76.0994 25.4121 79.9978 29.5087 79.9978 36.1755V36.7416H66.5011C66.9658 38.6401 68.3314 39.6422 70.6307 39.6422C71.6967 39.6422 72.5667 39.3405 73.3662 38.6401H79.1653H79.1675ZM74.7009 33.0106C74.0688 31.1782 72.5689 30.1782 70.4655 30.1782C68.3622 30.1782 66.7015 31.3103 66.3359 33.0106H74.7009Z" fill="white"/>
<path d="M3.29929 8.66669L0 19.5116L17.3972 25.597L27.3105 20.6987L26.4339 19.0975L29.0571 9.90887L24.5068 0.909617L17.0647 0L13.75 11.2634L12.6377 11.0409L15.0032 3.15392L10.5344 2.44473L7.47956 12.4769L6.58976 12.2743L7.43991 9.60493L3.29929 8.66669Z" fill="white"/>
</g>
<defs>
<clipPath id="clip0_2049_4837">
<rect width="80" height="44.2717" fill="white"/>
</clipPath>
</defs>
</svg>
