<svg width="145" height="28" viewBox="0 0 145 28" fill="none" xmlns="http://www.w3.org/2000/svg">
<path d="M4.77647 27.0706C3.51105 27.0706 2.29734 26.5685 1.40181 25.6745C0.506274 24.7804 0.00210903 23.5676 0 22.3021L0 4.76794C0.0022595 3.50262 0.506491 2.2899 1.40201 1.39598C2.29753 0.502061 3.51115 -2.01741e-06 4.77647 0L22.3419 0C23.6073 -2.01741e-06 24.8209 0.502061 25.7164 1.39598C26.6119 2.2899 27.1162 3.50262 27.1184 4.76794V22.3067C27.1151 23.5713 26.6104 24.783 25.715 25.6761C24.8196 26.5691 23.6066 27.0707 22.3419 27.0706H4.77647ZM1.44943 4.76794V22.3067C1.45094 23.1879 1.80207 24.0326 2.42574 24.6552C3.04941 25.2778 3.89465 25.6275 4.7759 25.6275H22.3419C23.2232 25.6275 24.0684 25.2778 24.6921 24.6552C25.3158 24.0326 25.6669 23.1879 25.6684 22.3067V4.76794C25.6669 3.88674 25.3158 3.04216 24.6921 2.41965C24.0684 1.79713 23.2231 1.44757 22.3419 1.44773H4.77647C3.89517 1.44742 3.04979 1.79692 2.42598 2.41945C1.80217 3.04198 1.45094 3.88665 1.44943 4.76794ZM134.129 25.4336C133.998 25.3136 133.894 25.1664 133.825 25.0023C133.757 24.8382 133.724 24.6612 133.731 24.4834V11.6569C133.722 11.4776 133.751 11.2986 133.815 11.1311C133.88 10.9636 133.978 10.8113 134.105 10.6839C134.24 10.5598 134.399 10.4639 134.571 10.4017C134.744 10.3395 134.928 10.3123 135.111 10.3217C135.485 10.3043 135.85 10.4344 136.129 10.6839C136.258 10.8096 136.359 10.9613 136.426 11.1291C136.492 11.2968 136.522 11.4767 136.513 11.6569V12.2255C136.839 11.6138 137.339 11.1133 137.951 10.788C138.609 10.4407 139.345 10.2656 140.089 10.2791C140.99 10.2651 141.875 10.5171 142.634 11.0035C143.398 11.5061 144.002 12.2163 144.376 13.0506C144.806 14.0049 145.019 15.0427 145 16.0893C145.023 17.1265 144.81 18.1555 144.378 19.0985C144.009 19.9202 143.404 20.6142 142.642 21.0933C141.879 21.5724 140.991 21.8152 140.09 21.7909C139.359 21.8034 138.635 21.6323 137.987 21.2934C137.388 20.981 136.893 20.5016 136.561 19.9133V24.5289C136.569 24.7023 136.539 24.8755 136.473 25.0358C136.406 25.1962 136.305 25.3398 136.176 25.4563C135.881 25.6803 135.519 25.7996 135.149 25.7955C134.778 25.7914 134.419 25.6641 134.129 25.4336ZM137.251 13.3969C136.714 14.1711 136.455 15.1041 136.516 16.0444C136.457 16.9773 136.717 17.9025 137.251 18.6692C137.515 18.9602 137.837 19.1931 138.196 19.3527C138.555 19.5124 138.943 19.5953 139.336 19.5964C139.729 19.5974 140.118 19.5164 140.478 19.3586C140.837 19.2008 141.16 18.9697 141.426 18.68C141.967 17.9285 142.23 17.0128 142.172 16.0887C142.23 15.1405 141.967 14.2002 141.426 13.4196C141.166 13.123 140.845 12.8849 140.487 12.7211C140.128 12.5573 139.738 12.4714 139.344 12.4692C138.949 12.467 138.559 12.5485 138.198 12.7083C137.837 12.8681 137.515 13.1032 137.251 13.3969ZM121.889 25.4336C121.758 25.3136 121.654 25.1664 121.586 25.0023C121.517 24.8382 121.485 24.6612 121.491 24.4834V11.6569C121.483 11.4777 121.511 11.2987 121.575 11.1312C121.64 10.9637 121.738 10.8114 121.864 10.6839C122 10.5599 122.158 10.464 122.331 10.4019C122.504 10.3397 122.687 10.3124 122.871 10.3217C123.244 10.3043 123.61 10.4344 123.889 10.6839C124.018 10.8096 124.119 10.9613 124.185 11.1291C124.252 11.2968 124.281 11.4767 124.273 11.6569V12.2255C124.598 11.6139 125.098 11.1133 125.71 10.788C126.368 10.4406 127.104 10.2655 127.848 10.2791C128.75 10.2651 129.635 10.5171 130.394 11.0035C131.157 11.5062 131.761 12.2164 132.135 13.0506C132.565 14.0065 132.778 15.0459 132.757 16.0939C132.78 17.1311 132.568 18.16 132.135 19.103C131.766 19.9247 131.162 20.6188 130.399 21.0979C129.636 21.577 128.748 21.8197 127.848 21.7955C127.116 21.8078 126.393 21.6367 125.744 21.2979C125.146 20.9854 124.651 20.506 124.319 19.9179V24.5334C124.327 24.7069 124.297 24.88 124.231 25.0404C124.164 25.2008 124.063 25.3444 123.934 25.4609C123.649 25.6979 123.286 25.8197 122.916 25.802C122.539 25.8157 122.171 25.6838 121.889 25.4336ZM125.012 13.3969C124.475 14.1711 124.215 15.1041 124.276 16.0444C124.217 16.9773 124.477 17.9025 125.012 18.6692C125.275 18.9602 125.597 19.1931 125.956 19.3527C126.315 19.5124 126.703 19.5953 127.096 19.5964C127.489 19.5974 127.878 19.5164 128.238 19.3586C128.598 19.2008 128.921 18.9697 129.186 18.68C129.727 17.9287 129.991 17.0129 129.933 16.0887C129.991 15.1404 129.728 14.2001 129.186 13.4196C128.926 13.1229 128.606 12.8848 128.247 12.7209C127.888 12.557 127.499 12.4711 127.104 12.4689C126.709 12.4667 126.319 12.5483 125.958 12.7081C125.598 12.868 125.275 13.1031 125.012 13.3969ZM99.1283 25.4677C99.0025 25.3701 98.9011 25.2448 98.8321 25.1014C98.763 24.958 98.7281 24.8006 98.7302 24.6415C98.7372 24.4457 98.7834 24.2533 98.8661 24.0757L100.405 20.8408L96.197 12.0839C96.1187 11.9216 96.0797 11.7432 96.0833 11.563C96.0833 11.3918 96.1231 11.2229 96.1997 11.0697C96.2763 10.9165 96.3875 10.7833 96.5245 10.6805C96.8061 10.4437 97.163 10.3152 97.531 10.3183C97.7782 10.316 98.0211 10.3826 98.2327 10.5105C98.4567 10.6541 98.6305 10.8637 98.7302 11.1104L101.897 18.1017L105.043 11.1332C105.141 10.8888 105.311 10.6797 105.529 10.5333C105.729 10.4065 105.961 10.3398 106.197 10.3411C106.542 10.3406 106.876 10.4652 107.136 10.6919C107.268 10.7952 107.374 10.9275 107.447 11.0786C107.519 11.2297 107.556 11.3954 107.555 11.563C107.551 11.7449 107.504 11.9232 107.419 12.0839L101.244 25.0259C101.144 25.26 100.977 25.4587 100.763 25.596C100.549 25.7334 100.298 25.803 100.044 25.7958C99.7095 25.8 99.3843 25.6836 99.1283 25.4677ZM47.6675 21.3383C47.0895 21.0587 46.5971 20.629 46.2419 20.0942C45.8968 19.5715 45.7156 18.9577 45.7216 18.3314C45.6814 17.6346 45.903 16.9478 46.3431 16.406C46.8966 15.8656 47.6041 15.51 48.368 15.3882C49.6422 15.1468 50.9382 15.0404 52.2347 15.0709H52.7999V14.5506C52.8505 13.9709 52.681 13.3933 52.3251 12.9329C52.1178 12.746 51.8741 12.6041 51.6093 12.516C51.3445 12.4279 51.0643 12.3956 50.7864 12.4211C50.3348 12.4232 49.8857 12.4879 49.4518 12.6133C48.9992 12.7414 48.4637 12.926 47.8455 13.1671C47.5817 13.3225 47.2893 13.4227 46.9857 13.4617C46.8595 13.4653 46.7341 13.4407 46.6186 13.3898C46.5032 13.3388 46.4005 13.2628 46.3181 13.1671C46.1381 12.9526 46.0454 12.6781 46.0583 12.3984C46.0526 12.1616 46.1197 11.9288 46.2505 11.7314C46.4212 11.5065 46.642 11.3245 46.8953 11.1997C47.4924 10.889 48.1293 10.6615 48.7882 10.5236C49.497 10.3607 50.2218 10.2773 50.949 10.2751C52.4877 10.2751 53.6303 10.6559 54.3767 11.4175C55.1231 12.1791 55.4965 13.3368 55.4969 14.8906V20.4137C55.5064 20.5904 55.4792 20.767 55.4168 20.9326C55.3545 21.0981 55.2584 21.2488 55.1347 21.3753C55.0002 21.4965 54.843 21.5899 54.6722 21.65C54.5014 21.7102 54.3204 21.7358 54.1396 21.7256C53.9633 21.7324 53.7874 21.704 53.6223 21.6419C53.4571 21.5798 53.3061 21.4853 53.178 21.3639C53.0531 21.2402 52.9554 21.0918 52.8911 20.9282C52.8268 20.7646 52.7973 20.5894 52.8045 20.4137V19.9133C52.5578 20.4903 52.1338 20.9737 51.5938 21.2934C51.015 21.6325 50.3535 21.8047 49.6827 21.7909C48.9849 21.8004 48.2942 21.6453 47.6675 21.3383ZM50.0432 16.7C49.6068 16.7393 49.1908 16.9033 48.8451 17.1726C48.7225 17.2927 48.6268 17.4376 48.5644 17.5976C48.5021 17.7576 48.4745 17.9291 48.4835 18.1006C48.4768 18.3236 48.519 18.5455 48.6068 18.7506C48.6947 18.9558 48.8263 19.1393 48.9924 19.2884C49.3354 19.5991 49.7852 19.7653 50.2479 19.7524C50.5916 19.7645 50.9338 19.7031 51.2519 19.5723C51.5699 19.4415 51.8563 19.2443 52.092 18.9939C52.5778 18.4607 52.8338 17.7574 52.8045 17.0366V16.5641H52.3979C51.6109 16.5501 50.8234 16.5955 50.0432 16.7ZM43.4937 21.5982C43.2684 21.4788 43.0775 21.3036 42.9393 21.0893L39.9307 16.5192C39.697 16.1073 39.3671 15.7581 38.9692 15.5014C38.5615 15.2891 38.1052 15.1875 37.646 15.2068H35.4255V20.2756C35.436 20.4711 35.4074 20.6669 35.3414 20.8513C35.2754 21.0357 35.1733 21.2052 35.0411 21.3497C34.9047 21.4846 34.7416 21.5897 34.5624 21.6582C34.3831 21.7267 34.1916 21.7572 33.9999 21.7477C33.8067 21.7564 33.6138 21.7256 33.4329 21.6572C33.252 21.5887 33.087 21.4841 32.948 21.3497C32.8121 21.2071 32.7068 21.0383 32.6383 20.8536C32.5699 20.6689 32.5398 20.4722 32.5499 20.2756V7.03904C32.5386 6.85283 32.5659 6.6663 32.6301 6.49114C32.6943 6.31598 32.794 6.15598 32.923 6.0212C33.062 5.89578 33.2246 5.79919 33.4013 5.73701C33.578 5.67484 33.7652 5.64832 33.9522 5.65898H39.6083C41.4184 5.65898 42.7949 6.06252 43.7377 6.86959C44.2206 7.30876 44.5984 7.85097 44.8432 8.45605C45.088 9.06113 45.1935 9.71355 45.1519 10.3649C45.1963 11.4755 44.8205 12.562 44.0993 13.4077C43.3135 14.2447 42.2624 14.7843 41.1243 14.935C41.5471 15.0344 41.9416 15.2289 42.278 15.5036C42.6571 15.8298 42.9851 16.2111 43.2509 16.6346L45.3099 19.7797C45.4772 20.0108 45.5717 20.2867 45.5812 20.5718C45.5835 20.7379 45.5469 20.9022 45.4742 21.0515C45.4015 21.2008 45.2948 21.331 45.1627 21.4316C44.8853 21.6578 44.5368 21.7786 44.1789 21.7727C43.9398 21.7706 43.7047 21.7107 43.4937 21.5982ZM35.4056 12.9647H39.2063C40.0602 13.0338 40.9127 12.8148 41.6275 12.3426C41.8947 12.1049 42.1032 11.8086 42.2367 11.4768C42.3702 11.145 42.425 10.7868 42.3969 10.4303C42.4283 10.0735 42.3749 9.71434 42.2412 9.38203C42.1076 9.04973 41.8973 8.75369 41.6275 8.51804C40.9066 8.06152 40.057 7.85121 39.2063 7.91871H35.4056V12.9647ZM92.7801 21.3804C92.541 21.1058 92.4186 20.7488 92.4389 20.3853V11.0666L88.5927 18.3519C88.4508 18.6357 88.2504 18.8862 88.0048 19.0871C87.7891 19.2468 87.5265 19.3304 87.2582 19.3248C86.9914 19.3305 86.7298 19.2509 86.5116 19.0974C86.2603 18.8974 86.0591 18.6418 85.9236 18.3507L82.0569 11.1786V20.3881C82.0733 20.7492 81.9476 21.1024 81.7066 21.3719C81.5855 21.4972 81.4391 21.5953 81.2772 21.6597C81.1152 21.7241 80.9414 21.7534 80.7673 21.7455C80.5959 21.7542 80.4245 21.7265 80.2646 21.6641C80.1047 21.6016 79.9599 21.5059 79.8398 21.3832C79.6008 21.1087 79.4783 20.7516 79.4987 20.3881V6.99412C79.4802 6.60783 79.6144 6.22977 79.8723 5.94159C80.0022 5.80773 80.1592 5.70302 80.3327 5.6344C80.5062 5.56577 80.6923 5.53481 80.8787 5.54355C81.1791 5.55155 81.4703 5.64819 81.7159 5.82131C81.9615 5.99442 82.1503 6.23628 82.2588 6.51647L87.2815 16.0865L92.2814 6.51647C92.384 6.24133 92.5652 6.00242 92.8025 5.82944C93.0398 5.65646 93.3227 5.55704 93.616 5.54355C93.804 5.53562 93.9916 5.56692 94.1668 5.63545C94.342 5.70398 94.5011 5.80824 94.6338 5.94159C94.7648 6.0826 94.8663 6.24833 94.9324 6.42906C94.9985 6.60979 95.0279 6.80189 95.0188 6.99412V20.3881C95.0289 20.5699 95.0021 20.7518 94.9398 20.9229C94.8775 21.0939 94.7812 21.2505 94.6566 21.3832C94.5311 21.505 94.3822 21.6 94.2188 21.6623C94.0554 21.7246 93.8811 21.7529 93.7064 21.7455C93.5356 21.7539 93.3649 21.726 93.2056 21.6637C93.0463 21.6014 92.9021 21.506 92.7824 21.3838L92.7801 21.3804ZM64.4767 21.3804C64.3457 21.2513 64.2436 21.0958 64.1772 20.9242C64.1109 20.7527 64.0817 20.569 64.0917 20.3853V14.9776C64.1468 14.3152 63.9756 13.6537 63.6061 13.1012C63.4127 12.8939 63.1747 12.7333 62.9101 12.6314C62.6455 12.5296 62.3613 12.4892 62.0788 12.5132C61.7168 12.497 61.3555 12.5571 61.0183 12.6896C60.6811 12.8222 60.3756 13.0242 60.1216 13.2826C59.8698 13.5607 59.6753 13.8856 59.5491 14.2389C59.423 14.5922 59.3677 14.9669 59.3863 15.3416V20.3876C59.3962 20.5712 59.367 20.7548 59.3008 20.9263C59.2345 21.0978 59.1326 21.2534 59.0019 21.3827C58.7156 21.6349 58.3418 21.7649 57.9608 21.7449C57.7738 21.7555 57.5866 21.729 57.4099 21.6668C57.2332 21.6046 57.0707 21.5081 56.9316 21.3827C56.8039 21.2516 56.7049 21.0955 56.6407 20.9242C56.5764 20.753 56.5485 20.5702 56.5585 20.3876V11.6307C56.5515 11.4541 56.5821 11.278 56.6484 11.1142C56.7147 10.9504 56.8151 10.8025 56.9429 10.6805C57.2292 10.4282 57.603 10.2982 57.9841 10.3183C58.3382 10.3044 58.6837 10.4304 58.9456 10.6692C59.0693 10.7867 59.1666 10.9292 59.2309 11.0873C59.2952 11.2453 59.3251 11.4153 59.3186 11.5858V12.1965C59.6825 11.5901 60.2075 11.0966 60.8352 10.7709C61.4999 10.4316 62.2378 10.2605 62.984 10.2728C63.5311 10.2295 64.081 10.3086 64.5938 10.5043C65.1065 10.7001 65.5692 11.0075 65.9483 11.4044C66.5965 12.1588 66.9208 13.2975 66.9212 14.8207V20.387C66.9312 20.5697 66.9032 20.7525 66.8389 20.9238C66.7746 21.0951 66.6754 21.2512 66.5476 21.3821C66.4084 21.5075 66.2457 21.6041 66.069 21.6663C65.8922 21.7284 65.7049 21.755 65.5178 21.7443C65.1377 21.7644 64.7649 21.635 64.4789 21.3838L64.4767 21.3804ZM76.1057 21.3122L70.8112 16.5158V20.3825C70.8237 20.5684 70.7935 20.7547 70.7229 20.9272C70.6524 21.0997 70.5433 21.2537 70.404 21.3776C70.1169 21.6101 69.7555 21.7312 69.3862 21.7187C69.0202 21.7327 68.6618 21.6112 68.3797 21.3776C68.243 21.2522 68.1362 21.0976 68.0673 20.9254C67.9984 20.7531 67.9691 20.5676 67.9817 20.3825V6.88039C67.9691 6.69529 67.9984 6.50973 68.0673 6.33746C68.1362 6.1652 68.243 6.01066 68.3797 5.88529C68.6618 5.65161 69.0202 5.53014 69.3862 5.54412C69.7555 5.53166 70.1169 5.65279 70.404 5.88529C70.5433 6.00914 70.6524 6.16319 70.7229 6.33566C70.7935 6.50813 70.8237 6.69446 70.8112 6.88039V15.3882L75.653 10.7499C75.7716 10.6223 75.9151 10.5202 76.0746 10.4501C76.2341 10.38 76.4062 10.3433 76.5805 10.3422C76.9206 10.3483 77.2451 10.4862 77.4856 10.7267C77.7262 10.9672 77.864 11.2917 77.8701 11.6318C77.8668 11.8111 77.827 11.9877 77.7532 12.1511C77.6794 12.3145 77.5731 12.4611 77.4408 12.582L73.8886 15.8852L77.8252 19.4152C77.9654 19.5361 78.0783 19.6853 78.1567 19.853C78.2351 20.0207 78.2772 20.2031 78.2801 20.3881C78.2806 20.734 78.1467 21.0666 77.9065 21.3156C77.7994 21.4423 77.6662 21.5443 77.5159 21.6146C77.3656 21.6849 77.2019 21.7218 77.0359 21.7227C76.685 21.715 76.3513 21.5686 76.1079 21.3156L76.1057 21.3122ZM118.391 21.5044C118.167 21.3612 117.993 21.1517 117.893 20.905L116.536 17.8731H108.574L107.216 20.905C107.117 21.1516 106.942 21.3611 106.718 21.5044C106.507 21.6326 106.264 21.6992 106.017 21.6965C105.666 21.6952 105.329 21.5665 105.066 21.3343C104.932 21.2298 104.824 21.096 104.749 20.943C104.675 20.79 104.636 20.622 104.637 20.4518C104.639 20.2483 104.685 20.0475 104.773 19.8639L111.017 6.4471C111.144 6.15537 111.362 5.91298 111.639 5.75678C111.911 5.6012 112.22 5.51936 112.533 5.51936C112.847 5.51936 113.155 5.6012 113.427 5.75678C113.704 5.91308 113.922 6.15544 114.049 6.4471L120.316 19.8678C120.404 20.0515 120.451 20.2522 120.452 20.4558C120.453 20.6248 120.416 20.792 120.344 20.9447C120.272 21.0975 120.166 21.232 120.034 21.3383C119.77 21.5742 119.427 21.7033 119.072 21.7005C118.832 21.7011 118.597 21.6346 118.393 21.5083L118.391 21.5044ZM109.569 15.6139H115.54L112.554 8.8939L109.569 15.6139ZM16.9377 20.9824C16.6525 20.8027 16.4174 20.5536 16.2544 20.2585C16.0915 19.9634 16.0059 19.6318 16.0057 19.2947V11.7137C16.0056 11.49 15.9166 11.2754 15.7584 11.1172C15.6002 10.959 15.3856 10.87 15.1619 10.8699H8.40375C7.68454 10.8699 6.99478 10.5842 6.48622 10.0756C5.97767 9.56706 5.69196 8.87731 5.69196 8.1581C5.69196 7.43889 5.97767 6.74914 6.48622 6.24058C6.99478 5.73202 7.68454 5.44631 8.40375 5.44631H14.0934C14.1133 5.44631 14.1332 5.44176 14.1537 5.44176H19.3692C19.6394 5.44169 19.9069 5.49488 20.1566 5.59828C20.4062 5.70169 20.633 5.85328 20.8241 6.0444C21.0151 6.23552 21.1665 6.46242 21.2698 6.71212C21.3731 6.96181 21.4261 7.22942 21.4259 7.49963C21.425 7.50808 21.4223 7.51624 21.4179 7.52351C21.4179 7.53204 21.4219 7.54341 21.4219 7.55194V19.2952C21.4217 19.6324 21.336 19.964 21.173 20.2592C21.0099 20.5543 20.7747 20.8033 20.4894 20.9829C19.9919 21.4009 19.363 21.6301 18.7132 21.6301C18.0635 21.6301 17.4346 21.4009 16.9371 20.9829L16.9377 20.9824ZM8.18084 20.3233C7.67262 20.3101 7.19007 20.0972 6.83766 19.7308C6.48526 19.3643 6.29138 18.8738 6.298 18.3655C6.30461 17.8571 6.5112 17.3718 6.87302 17.0147C7.23484 16.6576 7.72277 16.4573 8.23117 16.4573C8.73956 16.4573 9.22749 16.6576 9.58931 17.0147C9.95113 17.3718 10.1577 17.8571 10.1643 18.3655C10.171 18.8738 9.97707 19.3643 9.62467 19.7308C9.27227 20.0972 8.78971 20.3101 8.28149 20.3233C8.24965 20.3252 8.21686 20.3254 8.18312 20.3239L8.18084 20.3233ZM12.2386 16.6665C11.7304 16.6532 11.2479 16.4402 10.8955 16.0738C10.5432 15.7073 10.3494 15.2168 10.356 14.7085C10.3627 14.2002 10.5693 13.7149 10.9311 13.3578C11.2929 13.0007 11.7808 12.8005 12.2892 12.8005C12.7975 12.8005 13.2855 13.0007 13.6473 13.3578C14.0091 13.7149 14.2157 14.2002 14.2223 14.7085C14.229 15.2168 14.0352 15.7073 13.6828 16.0738C13.3305 16.4402 12.848 16.6532 12.3398 16.6665C12.3076 16.6687 12.2746 16.6689 12.2408 16.667L12.2386 16.6665Z" fill="white"/>
</svg>
