<svg width="40" height="44" viewBox="0 0 40 44" fill="none" xmlns="http://www.w3.org/2000/svg">
<g clip-path="url(#clip0_2049_4898)">
<g clip-path="url(#clip1_2049_4898)">
<path d="M20.875 0.0333333C23.0583 0 25.225 0.0166667 27.3916 0C27.525 2.55 28.4416 5.15 30.3083 6.95C32.175 8.8 34.8083 9.65 37.375 9.93333V16.65C34.975 16.5667 32.5583 16.0667 30.375 15.0333C29.425 14.6 28.5416 14.05 27.675 13.4833C27.6583 18.35 27.6916 23.2167 27.6416 28.0667C27.5083 30.4 26.7416 32.7167 25.3916 34.6333C23.2083 37.8333 19.425 39.9167 15.5416 39.9833C13.1583 40.1167 10.775 39.4667 8.74164 38.2667C5.37498 36.2833 3.00831 32.65 2.65831 28.75C2.62498 27.9167 2.60831 27.0833 2.64164 26.2667C2.94164 23.1 4.50831 20.0667 6.94164 18C9.70831 15.6 13.575 14.45 17.1916 15.1333C17.225 17.6 17.125 20.0667 17.125 22.5333C15.475 22 13.5416 22.15 12.0916 23.15C11.0416 23.8333 10.2416 24.8833 9.82498 26.0667C9.47498 26.9167 9.57498 27.85 9.59164 28.75C9.99164 31.4833 12.625 33.7833 15.425 33.5333C17.2916 33.5167 19.075 32.4333 20.0416 30.85C20.3583 30.3 20.7083 29.7333 20.725 29.0833C20.8916 26.1 20.825 23.1333 20.8416 20.15C20.8583 13.4333 20.825 6.73333 20.875 0.0333333Z" fill="white"/>
</g>
</g>
<defs>
<clipPath id="clip0_2049_4898">
<rect width="40" height="44" fill="white"/>
</clipPath>
<clipPath id="clip1_2049_4898">
<rect width="40" height="40" fill="white"/>
</clipPath>
</defs>
</svg>
