<svg width="29" height="29" viewBox="0 0 29 29" fill="none" xmlns="http://www.w3.org/2000/svg">
<path d="M14.4961 9.66443C11.8336 9.66443 9.6608 11.8372 9.6608 14.4997C9.6608 17.1622 11.8336 19.335 14.4961 19.335C17.1586 19.335 19.3314 17.1622 19.3314 14.4997C19.3314 11.8372 17.1586 9.66443 14.4961 9.66443ZM28.9984 14.4997C28.9984 12.4974 29.0165 10.5132 28.9041 8.51455C28.7916 6.19302 28.262 4.13267 26.5644 2.43505C24.8632 0.73381 22.8064 0.20784 20.4849 0.0953909C18.4826 -0.017058 16.4984 0.00107894 14.4997 0.00107894C12.4974 0.00107894 10.5132 -0.017058 8.51455 0.0953909C6.19303 0.20784 4.13267 0.737438 2.43505 2.43505C0.733811 4.1363 0.20784 6.19302 0.0953909 8.51455C-0.017058 10.5169 0.00107894 12.501 0.00107894 14.4997C0.00107894 16.4984 -0.017058 18.4862 0.0953909 20.4849C0.20784 22.8064 0.737438 24.8668 2.43505 26.5644C4.1363 28.2657 6.19303 28.7916 8.51455 28.9041C10.5169 29.0165 12.501 28.9984 14.4997 28.9984C16.5021 28.9984 18.4862 29.0165 20.4849 28.9041C22.8064 28.7916 24.8668 28.262 26.5644 26.5644C28.2657 24.8632 28.7916 22.8064 28.9041 20.4849C29.0202 18.4862 28.9984 16.502 28.9984 14.4997ZM14.4961 21.9395C10.379 21.9395 7.05634 18.6168 7.05634 14.4997C7.05634 10.3827 10.379 7.05997 14.4961 7.05997C18.6132 7.05997 21.9359 10.3827 21.9359 14.4997C21.9359 18.6168 18.6132 21.9395 14.4961 21.9395ZM22.2406 8.49278C21.2793 8.49278 20.5031 7.71652 20.5031 6.75527C20.5031 5.79401 21.2793 5.01775 22.2406 5.01775C23.2018 5.01775 23.9781 5.79401 23.9781 6.75527C23.9784 6.98352 23.9336 7.20959 23.8464 7.42053C23.7592 7.63146 23.6312 7.82312 23.4698 7.98452C23.3084 8.14592 23.1168 8.27389 22.9058 8.36111C22.6949 8.44833 22.4688 8.49307 22.2406 8.49278Z" fill="white"/>
</svg>
