<svg width="29" height="30" viewBox="0 0 29 30" fill="none" xmlns="http://www.w3.org/2000/svg">
<path fill-rule="evenodd" clip-rule="evenodd" d="M3.58624e-07 2.45953C3.58624e-07 1.80722 0.255261 1.18163 0.709628 0.720382C1.16399 0.259131 1.78025 3.2789e-06 2.42282 3.2789e-06H26.5746C26.893 -0.000524692 27.2084 0.0627131 27.5027 0.186096C27.7971 0.309479 28.0645 0.490584 28.2898 0.719042C28.5151 0.947501 28.6938 1.21883 28.8157 1.51748C28.9375 1.81614 29.0002 2.13627 29 2.45953V26.9772C29.0004 27.3005 28.9379 27.6207 28.8162 27.9195C28.6945 28.2183 28.516 28.4899 28.2909 28.7186C28.0657 28.9472 27.7983 29.1286 27.5041 29.2523C27.2098 29.376 26.8944 29.4396 26.5759 29.4394H2.42282C2.10454 29.4394 1.78938 29.3757 1.49534 29.2521C1.20131 29.1284 0.934158 28.9471 0.709161 28.7186C0.484165 28.49 0.305729 28.2187 0.184048 27.9202C0.0623675 27.6216 -0.000172808 27.3016 3.58624e-07 26.9785V2.45953ZM11.4787 11.2244H15.4056V13.2263C15.9724 12.0755 17.4224 11.0398 19.6014 11.0398C23.7787 11.0398 24.7686 13.332 24.7686 17.5379V25.3286H20.5412V18.496C20.5412 16.1007 19.9744 14.7491 18.535 14.7491C16.5379 14.7491 15.7075 16.2064 15.7075 18.496V25.3286H11.4787V11.2244ZM4.22873 25.1453H8.45746V11.0398H4.22873V25.1439V25.1453ZM9.0625 6.4392C9.07048 6.80676 9.00605 7.17223 8.873 7.51416C8.73995 7.8561 8.54097 8.16761 8.28772 8.43042C8.03447 8.69323 7.73206 8.90204 7.39824 9.0446C7.06442 9.18716 6.70591 9.26059 6.34375 9.26059C5.9816 9.26059 5.62309 9.18716 5.28927 9.0446C4.95545 8.90204 4.65304 8.69323 4.39979 8.43042C4.14654 8.16761 3.94755 7.8561 3.8145 7.51416C3.68146 7.17223 3.61703 6.80676 3.625 6.4392C3.64065 5.71774 3.93396 5.03118 4.44212 4.52656C4.95028 4.02194 5.63289 3.73937 6.34375 3.73937C7.05462 3.73937 7.73722 4.02194 8.24538 4.52656C8.75354 5.03118 9.04685 5.71774 9.0625 6.4392Z" fill="white"/>
</svg>
