<svg width="29" height="16" viewBox="0 0 29 16" fill="none" xmlns="http://www.w3.org/2000/svg">
<path d="M16.3577 7.83797C16.3577 12.1666 12.6959 15.6757 8.17901 15.6757C3.66213 15.6757 0 12.1658 0 7.83797C0 3.51011 3.66186 0 8.17901 0C12.6962 0 16.3577 3.50931 16.3577 7.83797ZM25.3301 7.83797C25.3301 11.9125 23.4992 15.2168 21.2406 15.2168C18.982 15.2168 17.1511 11.9125 17.1511 7.83797C17.1511 3.76347 18.9817 0.459128 21.2403 0.459128C23.4989 0.459128 25.3298 3.76242 25.3298 7.83797H25.3301ZM29 7.83797C29 11.4877 28.3562 14.4483 27.5617 14.4483C26.7673 14.4483 26.1237 11.4885 26.1237 7.83797C26.1237 4.18743 26.7676 1.22769 27.5617 1.22769C28.3559 1.22769 29 4.18716 29 7.83797Z" fill="white"/>
</svg>
