<svg width="29" height="29" viewBox="0 0 29 29" fill="none" xmlns="http://www.w3.org/2000/svg">
<path d="M14.5 0C6.52227 0 0 6.52227 0 14.5C0 22.4777 6.52227 29 14.5 29C22.4777 29 29 22.4777 29 14.5C29 6.52227 22.5475 0 14.5 0ZM21.17 20.9525C20.8809 21.3866 20.3716 21.5325 19.9375 21.2397C16.53 19.14 12.2534 18.705 7.17477 19.8622C6.66999 20.0118 6.23499 19.6493 6.08818 19.2097C5.9468 18.705 6.30568 18.2709 6.73977 18.125C12.2534 16.8925 17.0393 17.3973 20.8057 19.72C21.3159 19.9375 21.3857 20.5175 21.1691 20.9525H21.17ZM22.9109 16.9641C22.5475 17.4743 21.8959 17.6918 21.3857 17.3275C17.4734 14.9341 11.5257 14.2127 6.9618 15.6609C6.3809 15.8023 5.72477 15.515 5.5834 14.9332C5.43749 14.3532 5.72477 13.7016 6.30568 13.5557C11.6018 11.9598 18.1241 12.7618 22.6181 15.5141C23.0568 15.7316 23.2743 16.4575 22.9109 16.9632V16.9641ZM23.0577 12.905C18.4132 10.1473 10.6575 9.85998 6.23499 11.2384C5.50908 11.455 4.7859 11.0209 4.5684 10.3648C4.35181 9.64248 4.7859 8.91567 5.43749 8.69817C10.5877 7.17477 19.0684 7.46658 24.4361 10.6566C25.0877 11.02 25.3034 11.8891 24.9409 12.5407C24.5775 13.0509 23.7084 13.2666 23.0568 12.9041L23.0577 12.905Z" fill="white"/>
</svg>
