<svg width="70" height="21" viewBox="0 0 70 21" fill="none" xmlns="http://www.w3.org/2000/svg">
<g>
<path d="M45.65 9.80566C45.2839 9.80566 44.9991 10.0905 44.9991 10.4566C44.9991 10.8228 45.2839 11.1076 45.65 11.1076C46.0162 11.1076 46.301 10.8228 46.301 10.4566C46.301 10.1312 46.0162 9.80566 45.65 9.80566Z" fill="white"/><path d="M45.65 5.89941C45.2839 5.89941 44.9991 6.18422 44.9991 6.55039C44.9991 6.91657 45.2839 7.20138 45.65 7.20138C46.0162 7.20138 46.301 6.91657 46.301 6.55039C46.301 6.18422 46.0162 5.89941 45.65 5.89941Z" fill="white"/><path d="M45.65 7.85254C45.2839 7.85254 44.9991 8.13734 44.9991 8.50352C44.9991 8.8697 45.2839 9.1545 45.65 9.1545C46.0162 9.1545 46.301 8.8697 46.301 8.50352C46.301 8.13734 46.0162 7.85254 45.65 7.85254Z" fill="white"/><path d="M47.3589 2.92969C46.9927 2.92969 46.7079 3.21449 46.7079 3.58067C46.7079 3.94684 46.9927 4.23165 47.3589 4.23165C47.725 4.23165 48.0098 3.94684 48.0098 3.58067C48.0098 3.21449 47.725 2.92969 47.3589 2.92969Z" fill="white"/><path d="M47.3589 1.2207C47.1147 1.2207 46.952 1.42413 46.952 1.62757C46.952 1.87168 47.1554 2.03443 47.3589 2.03443C47.603 2.03443 47.7657 1.831 47.7657 1.62757C47.7657 1.42413 47.5623 1.2207 47.3589 1.2207Z" fill="white"/><path d="M45.65 13.1008C46.0162 13.1008 46.301 12.816 46.301 12.4498C46.301 12.0836 46.0162 11.7988 45.65 11.7988C45.2839 11.7988 44.9991 12.0836 44.9991 12.4498C44.9991 12.816 45.2839 13.1008 45.65 13.1008Z" fill="white"/><path d="M45.65 3.90625C45.2839 3.90625 44.9991 4.19105 44.9991 4.55723C44.9991 4.92341 45.2839 5.20821 45.65 5.20821C46.0162 5.20821 46.301 4.92341 46.301 4.55723C46.301 4.19105 46.0162 3.90625 45.65 3.90625Z" fill="white"/><path d="M43.9412 10.8223C43.575 10.8223 43.2902 11.1071 43.2902 11.4732C43.2902 11.8394 43.575 12.1242 43.9412 12.1242C44.3074 12.1242 44.5922 11.8394 44.5922 11.4732C44.5922 11.1071 44.3074 10.8223 43.9412 10.8223Z" fill="white"/><path d="M43.9412 9.92701C44.1853 9.92701 44.3481 9.72358 44.3481 9.52014C44.3481 9.27603 44.1447 9.11328 43.9412 9.11328C43.6971 9.11328 43.5344 9.31671 43.5344 9.52014C43.5344 9.72358 43.6971 9.92701 43.9412 9.92701Z" fill="white"/><path d="M40.5236 9.92701C40.7677 9.92701 40.9304 9.72358 40.9304 9.52014C40.9304 9.27603 40.727 9.11328 40.5236 9.11328C40.2794 9.11328 40.1167 9.31671 40.1167 9.52014C40.1167 9.72358 40.3201 9.92701 40.5236 9.92701Z" fill="white"/><path d="M42.2324 14.8508C42.4765 14.8508 42.6393 14.6474 42.6393 14.444C42.6393 14.2405 42.4358 14.0371 42.2324 14.0371C41.9883 14.0371 41.8255 14.2405 41.8255 14.444C41.8255 14.6474 42.029 14.8508 42.2324 14.8508Z" fill="white"/><path d="M43.9412 5.16699C43.6971 5.16699 43.5344 5.37042 43.5344 5.57385C43.5344 5.81797 43.7378 5.98072 43.9412 5.98072C44.1853 5.98072 44.3481 5.77729 44.3481 5.57385C44.3481 5.32974 44.1853 5.16699 43.9412 5.16699Z" fill="white"/><path d="M40.5236 5.16699C40.2794 5.16699 40.1167 5.37042 40.1167 5.57385C40.1167 5.81797 40.3201 5.98072 40.5236 5.98072C40.7677 5.98072 40.9304 5.77729 40.9304 5.57385C40.9304 5.32974 40.7677 5.16699 40.5236 5.16699Z" fill="white"/><path d="M45.65 1.95312C45.2839 1.95312 44.9991 2.23793 44.9991 2.60411C44.9991 2.97028 45.2839 3.25509 45.65 3.25509C46.0162 3.25509 46.301 2.97028 46.301 2.60411C46.301 2.23793 46.0162 1.95312 45.65 1.95312Z" fill="white"/><path d="M45.6501 0.244141C45.4059 0.244141 45.2432 0.447572 45.2432 0.651003C45.2432 0.895121 45.4466 1.05787 45.6501 1.05787C45.8942 1.05787 46.0569 0.854435 46.0569 0.651003C46.0569 0.406886 45.8535 0.244141 45.6501 0.244141Z" fill="white"/><path d="M43.9412 14.1184C44.3074 14.1184 44.5922 13.8336 44.5922 13.4674C44.5922 13.1012 44.3074 12.8164 43.9412 12.8164C43.575 12.8164 43.2902 13.1012 43.2902 13.4674C43.2902 13.8336 43.575 14.1184 43.9412 14.1184Z" fill="white"/><path d="M47.3589 6.87598C46.9927 6.87598 46.7079 7.16078 46.7079 7.52696C46.7079 7.89313 46.9927 8.17794 47.3589 8.17794C47.725 8.17794 48.0098 7.89313 48.0098 7.52696C48.0098 7.16078 47.725 6.87598 47.3589 6.87598Z" fill="white"/><path d="M54.9265 4.92285C54.5603 4.92285 54.2755 5.20766 54.2755 5.57383C54.2755 5.94001 54.5603 6.22481 54.9265 6.22481C55.2927 6.22481 55.5775 5.94001 55.5775 5.57383C55.5775 5.20766 55.2927 4.92285 54.9265 4.92285Z" fill="white"/><path d="M54.9265 2.92969C54.5603 2.92969 54.2755 3.21449 54.2755 3.58067C54.2755 3.94684 54.5603 4.23165 54.9265 4.23165C55.2927 4.23165 55.5775 3.94684 55.5775 3.58067C55.5775 3.21449 55.2927 2.92969 54.9265 2.92969Z" fill="white"/><path d="M49.0677 7.85254C48.7015 7.85254 48.4167 8.13734 48.4167 8.50352C48.4167 8.8697 48.7015 9.1545 49.0677 9.1545C49.4339 9.1545 49.7187 8.8697 49.7187 8.50352C49.7187 8.13734 49.4339 7.85254 49.0677 7.85254Z" fill="white"/><path d="M54.9265 0.976562C54.5603 0.976562 54.2755 1.26137 54.2755 1.62754C54.2755 1.99372 54.5603 2.27852 54.9265 2.27852C55.2927 2.27852 55.5775 1.99372 55.5775 1.62754C55.5775 1.26137 55.2927 0.976562 54.9265 0.976562Z" fill="white"/><path d="M54.9265 10.8223C54.5603 10.8223 54.2755 11.1071 54.2755 11.4732C54.2755 11.8394 54.5603 12.1242 54.9265 12.1242C55.2927 12.1242 55.5775 11.8394 55.5775 11.4732C55.5775 11.1071 55.2927 10.8223 54.9265 10.8223Z" fill="white"/><path d="M54.9265 8.8291C54.5603 8.8291 54.2755 9.1139 54.2755 9.48008C54.2755 9.84626 54.5603 10.1311 54.9265 10.1311C55.2927 10.1311 55.5775 9.84626 55.5775 9.48008C55.5775 9.15459 55.2927 8.8291 54.9265 8.8291Z" fill="white"/><path d="M54.9265 6.87598C54.5603 6.87598 54.2755 7.16078 54.2755 7.52696C54.2755 7.89313 54.5603 8.17794 54.9265 8.17794C55.2927 8.17794 55.5775 7.89313 55.5775 7.52696C55.5775 7.16078 55.2927 6.87598 54.9265 6.87598Z" fill="white"/><path d="M37.1059 8.8291C36.7397 8.8291 36.4549 9.1139 36.4549 9.48008C36.4549 9.84626 36.7397 10.1311 37.1059 10.1311C37.4721 10.1311 37.7569 9.84626 37.7569 9.48008C37.7976 9.15459 37.4721 8.8291 37.1059 8.8291Z" fill="white"/><path d="M47.3589 12.1242C47.725 12.1242 48.0098 11.8394 48.0098 11.4732C48.0098 11.1071 47.725 10.8223 47.3589 10.8223C46.9927 10.8223 46.7079 11.1071 46.7079 11.4732C46.6672 11.8394 46.9927 12.1242 47.3589 12.1242Z" fill="white"/><path d="M49.0677 5.89941C48.7015 5.89941 48.4167 6.18422 48.4167 6.55039C48.4167 6.91657 48.7015 7.20138 49.0677 7.20138C49.4339 7.20138 49.7187 6.91657 49.7187 6.55039C49.7187 6.18422 49.4339 5.89941 49.0677 5.89941Z" fill="white"/><path d="M43.9412 2.92969C43.575 2.92969 43.2902 3.21449 43.2902 3.58067C43.2902 3.94684 43.575 4.23165 43.9412 4.23165C44.3074 4.23165 44.5922 3.94684 44.5922 3.58067C44.5922 3.21449 44.3074 2.92969 43.9412 2.92969Z" fill="white"/><path d="M47.3589 8.8291C46.9927 8.8291 46.7079 9.1139 46.7079 9.48008C46.7079 9.84626 46.9927 10.1311 47.3589 10.1311C47.725 10.1311 48.0098 9.84626 48.0098 9.48008C48.0098 9.15459 47.725 8.8291 47.3589 8.8291Z" fill="white"/><path d="M49.0677 10.9036C49.3118 10.9036 49.4746 10.7001 49.4746 10.4967C49.4746 10.2526 49.2711 10.0898 49.0677 10.0898C48.8643 10.0898 48.6608 10.2933 48.6608 10.4967C48.6608 10.7001 48.8236 10.9036 49.0677 10.9036Z" fill="white"/><path d="M49.0677 3.90625C48.7015 3.90625 48.4167 4.19105 48.4167 4.55723C48.4167 4.92341 48.7015 5.20821 49.0677 5.20821C49.4339 5.20821 49.7187 4.92341 49.7187 4.55723C49.7187 4.19105 49.4339 3.90625 49.0677 3.90625Z" fill="white"/><path d="M38.8147 13.752C38.4486 13.752 38.1638 14.0368 38.1638 14.4029C38.1638 14.7691 38.4486 15.0539 38.8147 15.0539C39.1809 15.0539 39.4657 14.7691 39.4657 14.4029C39.5064 14.0368 39.1809 13.752 38.8147 13.752Z" fill="white"/><path d="M38.8147 5.89941C38.4486 5.89941 38.1638 6.18422 38.1638 6.55039C38.1638 6.91657 38.4486 7.20138 38.8147 7.20138C39.1809 7.20138 39.4657 6.91657 39.4657 6.55039C39.5064 6.18422 39.1809 5.89941 38.8147 5.89941Z" fill="white"/><path d="M43.9412 0.976562C43.575 0.976562 43.2902 1.26137 43.2902 1.62754C43.2902 1.99372 43.575 2.27852 43.9412 2.27852C44.3074 2.27852 44.5922 1.99372 44.5922 1.62754C44.5922 1.26137 44.3074 0.976562 43.9412 0.976562Z" fill="white"/><path d="M38.8147 1.95312C38.4486 1.95312 38.1638 2.23793 38.1638 2.60411C38.1638 2.97028 38.4486 3.25509 38.8147 3.25509C39.1809 3.25509 39.4657 2.97028 39.4657 2.60411C39.5064 2.23793 39.1809 1.95312 38.8147 1.95312Z" fill="white"/><path d="M38.8147 0C38.4486 0 38.1638 0.284804 38.1638 0.65098C38.1638 1.01716 38.4486 1.30196 38.8147 1.30196C39.1809 1.30196 39.4657 1.01716 39.4657 0.65098C39.4657 0.284804 39.1809 0 38.8147 0Z" fill="white"/><path d="M38.8147 11.7988C38.4486 11.7988 38.1638 12.0836 38.1638 12.4498C38.1638 12.816 38.4486 13.1008 38.8147 13.1008C39.1809 13.1008 39.4657 12.816 39.4657 12.4498C39.5064 12.0836 39.1809 11.7988 38.8147 11.7988Z" fill="white"/><path d="M38.8147 9.80566C38.4486 9.80566 38.1638 10.0905 38.1638 10.4566C38.1638 10.8228 38.4486 11.1076 38.8147 11.1076C39.1809 11.1076 39.4657 10.8228 39.4657 10.4566C39.5064 10.1312 39.1809 9.80566 38.8147 9.80566Z" fill="white"/><path d="M38.8147 7.85254C38.4486 7.85254 38.1638 8.13734 38.1638 8.50352C38.1638 8.8697 38.4486 9.1545 38.8147 9.1545C39.1809 9.1545 39.4657 8.8697 39.4657 8.50352C39.5064 8.13734 39.1809 7.85254 38.8147 7.85254Z" fill="white"/><path d="M37.1059 12.7754C36.7397 12.7754 36.4549 13.0602 36.4549 13.4264C36.4549 13.7925 36.7397 14.0774 37.1059 14.0774C37.4721 14.0774 37.7569 13.7925 37.7569 13.4264C37.7569 13.0602 37.4721 12.7754 37.1059 12.7754Z" fill="white"/><path d="M37.1059 14.7285C36.7397 14.7285 36.4549 15.0133 36.4549 15.3795C36.4549 15.7457 36.7397 16.0305 37.1059 16.0305C37.4721 16.0305 37.7569 15.7457 37.7569 15.3795C37.7976 15.054 37.4721 14.7285 37.1059 14.7285Z" fill="white"/><path d="M38.8147 20.7502C39.0588 20.7502 39.2216 20.5468 39.2216 20.3434C39.2216 20.0993 39.0182 19.9365 38.8147 19.9365C38.5706 19.9365 38.4079 20.14 38.4079 20.3434C38.4079 20.5468 38.6113 20.7502 38.8147 20.7502Z" fill="white"/><path d="M37.1059 10.8223C36.7397 10.8223 36.4549 11.1071 36.4549 11.4732C36.4549 11.8394 36.7397 12.1242 37.1059 12.1242C37.4721 12.1242 37.7569 11.8394 37.7569 11.4732C37.7976 11.1071 37.4721 10.8223 37.1059 10.8223Z" fill="white"/><path d="M54.9265 12.7754C54.5603 12.7754 54.2755 13.0602 54.2755 13.4264C54.2755 13.7925 54.5603 14.0774 54.9265 14.0774C55.2927 14.0774 55.5775 13.7925 55.5775 13.4264C55.5775 13.0602 55.2927 12.7754 54.9265 12.7754Z" fill="white"/><path d="M37.1059 16.7217C36.7397 16.7217 36.4549 17.0065 36.4549 17.3727C36.4549 17.7388 36.7397 18.0236 37.1059 18.0236C37.4721 18.0236 37.7569 17.7388 37.7569 17.3727C37.7976 17.0065 37.4721 16.7217 37.1059 16.7217Z" fill="white"/><path d="M37.1059 20.0178C37.4721 20.0178 37.7569 19.733 37.7569 19.3668C37.7569 19.0006 37.4721 18.7158 37.1059 18.7158C36.7397 18.7158 36.4549 19.0006 36.4549 19.3668C36.4549 19.6923 36.7397 20.0178 37.1059 20.0178Z" fill="white"/><path d="M38.8147 3.90625C38.4486 3.90625 38.1638 4.19105 38.1638 4.55723C38.1638 4.92341 38.4486 5.20821 38.8147 5.20821C39.1809 5.20821 39.4657 4.92341 39.4657 4.55723C39.4657 4.19105 39.1809 3.90625 38.8147 3.90625Z" fill="white"/><path d="M35.4378 20.7502C35.6819 20.7502 35.8446 20.5468 35.8446 20.3434C35.8446 20.0993 35.6412 19.9365 35.4378 19.9365C35.1937 19.9365 35.0309 20.14 35.0309 20.3434C34.9902 20.5468 35.1937 20.7502 35.4378 20.7502Z" fill="white"/>
</g>

</svg>