<svg width="160" height="37" viewBox="0 0 160 37" fill="none" xmlns="http://www.w3.org/2000/svg">
<g clip-path="url(#clip0_2035_2828)">
<mask id="mask0_2035_2828" style="mask-type:luminance" maskUnits="userSpaceOnUse" x="0" y="0" width="160" height="37">
<path d="M0 0H160V36.1172H0V0Z" fill="white"/>
</mask>
<g mask="url(#mask0_2035_2828)">
<path d="M66.9307 33.9021C66.8457 33.7851 66.7318 33.6792 66.5891 33.5846C66.4463 33.49 66.2667 33.413 66.0486 33.3569L64.9997 33.0826C64.7223 33.012 64.5138 32.9238 64.3694 32.8164C64.2251 32.7089 64.1513 32.5598 64.1513 32.3721C64.1513 32.0835 64.2572 31.8701 64.4673 31.7322C64.6774 31.5943 64.95 31.5253 65.2884 31.5253C65.6124 31.5253 65.8674 31.5991 66.055 31.7483C66.2426 31.8974 66.3533 32.0979 66.3854 32.3481H67.067C67.0477 31.8846 66.8777 31.5366 66.557 31.3024C66.2362 31.0666 65.8128 30.948 65.2916 30.948C64.8794 30.948 64.5394 31.0105 64.2668 31.1356C63.9941 31.2607 63.7889 31.4339 63.6525 31.6504C63.5162 31.8685 63.4473 32.1219 63.4473 32.4106C63.4473 32.7699 63.5643 33.0489 63.7969 33.2478C64.0294 33.4483 64.3422 33.5974 64.7335 33.6953L65.8016 33.9695C66.0293 34.024 66.1993 34.1106 66.3084 34.2293C66.4191 34.348 66.4752 34.5052 66.4752 34.7024C66.4752 34.9847 66.3677 35.1932 66.1496 35.3311C65.9347 35.4658 65.6509 35.5348 65.3012 35.5348C65.0671 35.5348 64.857 35.4995 64.6725 35.4273C64.4881 35.3552 64.3373 35.2509 64.2171 35.1114C64.0984 34.9735 64.0166 34.8051 63.9733 34.6078H63.2756C63.3206 34.9542 63.4376 35.2381 63.6269 35.4626C63.8161 35.6855 64.0567 35.8507 64.347 35.9582C64.6373 36.0656 64.9548 36.1202 65.3028 36.1202C65.7038 36.1202 66.0422 36.0608 66.3196 35.9422C66.5971 35.8235 66.8088 35.6551 66.9531 35.437C67.0975 35.2188 67.1696 34.9606 67.1696 34.6623C67.1696 34.5404 67.1504 34.4137 67.1135 34.2822C67.0763 34.1454 67.0144 34.0166 66.9307 33.9021ZM71.7404 34.2806C71.7404 34.6928 71.6201 34.9991 71.3812 35.2028C71.1422 35.4065 70.8295 35.5091 70.4414 35.5091C70.0019 35.5091 69.6764 35.4001 69.4647 35.1852C69.253 34.9671 69.1471 34.6832 69.1471 34.3352V31.0426H68.3917V34.4009C68.3917 34.6864 68.4414 34.9366 68.5409 35.1499C68.6403 35.3632 68.7766 35.5412 68.953 35.6823C69.1279 35.8235 69.3315 35.9309 69.5609 36.0031C69.7918 36.0737 70.0404 36.1122 70.3082 36.1154C70.5552 36.1186 70.7814 36.0817 70.985 36.0079C71.1832 35.9359 71.3613 35.8177 71.5047 35.6631C71.6474 35.5091 71.7484 35.3135 71.8046 35.0761L71.8816 36.0191H72.4878V31.0426H71.742V34.2806H71.7404ZM76.9062 31.126C76.6255 31.0057 76.2791 30.9464 75.8702 30.9464C75.4724 30.9464 75.1292 31.0041 74.8421 31.1212C74.5567 31.2383 74.3337 31.4067 74.1782 31.6264C74.0226 31.8461 73.9344 32.1139 73.9168 32.4283H74.6C74.6609 32.1139 74.8053 31.8846 75.0298 31.7402C75.2559 31.5959 75.5238 31.5237 75.8301 31.5237C76.2422 31.5237 76.5438 31.62 76.7394 31.8108C76.9351 32.0033 77.0329 32.2631 77.0329 32.5902V32.9992L76.0739 33.0281C75.2319 33.0505 74.6208 33.1949 74.2407 33.4595C73.8622 33.7257 73.673 34.1363 73.673 34.6864C73.673 34.9847 73.7419 35.2397 73.8783 35.453C74.0146 35.6647 74.2054 35.8283 74.4508 35.9406C74.6962 36.0544 74.9817 36.1122 75.3056 36.1122C75.6649 36.1122 75.9985 36.0368 76.3048 35.8828C76.6111 35.7321 76.8629 35.4578 77.0634 35.0633L77.1163 36.0159H77.7594V32.5518C77.7594 32.1989 77.6889 31.9038 77.5445 31.6633C77.3986 31.4243 77.1853 31.2463 76.9062 31.126ZM77.0329 34.3913C77.0329 34.5356 76.988 34.6768 76.8982 34.8147C76.8084 34.9526 76.6897 35.0777 76.5406 35.19C76.393 35.3022 76.2294 35.3905 76.053 35.4546C75.875 35.5172 75.6954 35.5492 75.5157 35.5492C75.1886 35.5492 74.9223 35.4674 74.717 35.3055C74.5118 35.1419 74.4091 34.9125 74.4091 34.6206C74.4091 34.364 74.4749 34.1571 74.6048 33.9984C74.7347 33.8396 74.9336 33.7209 75.2014 33.6439C75.4692 33.5669 75.814 33.5252 76.2342 33.5188L77.0329 33.5028V34.3913ZM83.2219 35.0873H83.1305L81.7448 31.041H81.0215L82.8033 36.0159H83.5587L85.3293 31.041H84.622L83.2219 35.0873ZM86.4552 31.041H87.1865V36.0159H86.4552V31.041ZM86.4215 29.0635H87.2121V29.8959H86.4215V29.0635ZM92.2304 31.8589C92.1951 31.7851 92.1357 31.6953 92.0524 31.5943C91.969 31.4917 91.8583 31.3906 91.722 31.2912C91.5873 31.1917 91.4221 31.1083 91.2312 31.0426C91.0404 30.9768 90.8174 30.9432 90.5592 30.9432C90.1038 30.9432 89.7253 31.0506 89.4205 31.2623C89.1174 31.4772 88.8897 31.7739 88.7405 32.1588C88.5898 32.5421 88.5144 32.9912 88.5144 33.5076C88.5144 34.3672 88.7037 35.0168 89.0822 35.4546C89.4606 35.8924 89.9706 36.1106 90.6122 36.1106C90.9137 36.1106 91.1687 36.0705 91.374 35.9887C91.5808 35.9069 91.7492 35.8058 91.8775 35.6839C92.0059 35.5621 92.1037 35.437 92.1726 35.3135C92.2416 35.1884 92.2897 35.0825 92.3186 34.9943L92.3956 36.0143H92.9874V28.863H92.2272V31.8589H92.2304ZM91.8856 35.0328C91.6562 35.3552 91.2697 35.5172 90.7292 35.5172C90.2481 35.5172 89.8857 35.3359 89.6435 34.9719C89.4013 34.6062 89.281 34.1042 89.281 33.4627C89.281 32.8019 89.4157 32.3192 89.6868 32.0113C89.9578 31.705 90.3123 31.551 90.7533 31.551C91.1093 31.551 91.3948 31.6264 91.6081 31.7771C91.8214 31.9279 91.977 32.146 92.0748 32.4315C92.1726 32.7169 92.224 33.0602 92.2304 33.4611C92.2304 34.186 92.1149 34.7104 91.8856 35.0328ZM97.4924 31.126C97.2117 31.0057 96.8653 30.9464 96.4564 30.9464C96.0586 30.9464 95.7154 31.0041 95.4283 31.1212C95.1413 31.2383 94.9199 31.4067 94.7644 31.6264C94.6088 31.8461 94.5206 32.1139 94.5029 32.4283H95.1862C95.2471 32.1139 95.3914 31.8846 95.616 31.7402C95.8421 31.5959 96.1099 31.5237 96.4163 31.5237C96.8284 31.5237 97.1299 31.62 97.3256 31.8108C97.5213 32.0033 97.6191 32.2631 97.6191 32.5902V32.9992L96.66 33.0281C95.8164 33.0505 95.2054 33.1949 94.8269 33.4595C94.4484 33.7257 94.2592 34.1363 94.2592 34.6864C94.2592 34.9847 94.3281 35.2397 94.4645 35.453C94.6008 35.6647 94.7916 35.8283 95.037 35.9406C95.2824 36.0544 95.5662 36.1122 95.8918 36.1122C96.2511 36.1122 96.5847 36.0368 96.891 35.8828C97.1973 35.7321 97.4491 35.4578 97.6496 35.0633L97.7025 36.0159H98.3456V32.5518C98.3456 32.1989 98.275 31.9038 98.1307 31.6633C97.9848 31.4243 97.7715 31.2463 97.4924 31.126ZM97.6191 34.3913C97.6191 34.5356 97.5742 34.6768 97.4844 34.8147C97.3946 34.9526 97.2759 35.0777 97.1267 35.19C96.9792 35.3022 96.8156 35.3905 96.6392 35.4546C96.4612 35.5172 96.2815 35.5492 96.1019 35.5492C95.7747 35.5492 95.5085 35.4674 95.3032 35.3055C95.0979 35.1419 94.9953 34.9125 94.9953 34.6206C94.9953 34.364 95.0611 34.1571 95.191 33.9984C95.3209 33.8396 95.5197 33.7209 95.7876 33.6439C96.0554 33.5669 96.4002 33.5252 96.8204 33.5188L97.6191 33.5028V34.3913ZM108.441 31.2944C108.278 31.1645 108.103 31.0731 107.914 31.0217C107.726 30.9704 107.547 30.9448 107.372 30.9448C107.038 30.9448 106.74 31.0185 106.477 31.1677C106.215 31.3168 106.005 31.5141 105.851 31.7627C105.769 31.5849 105.646 31.4297 105.49 31.3104C105.333 31.1885 105.16 31.0971 104.971 31.0362C104.789 30.9764 104.599 30.9456 104.408 30.9448C104.023 30.9448 103.712 31.0266 103.478 31.1917C103.242 31.3553 103.059 31.5462 102.926 31.7675V31.041H102.204V36.0159H102.955V32.6528C102.955 32.4026 103.017 32.2005 103.141 32.045C103.263 31.8894 103.418 31.7755 103.603 31.7034C103.787 31.6328 103.968 31.5959 104.148 31.5959C104.312 31.5959 104.475 31.6312 104.639 31.7017C104.802 31.7723 104.94 31.8766 105.051 32.0161C105.163 32.1572 105.218 32.3288 105.218 32.5389V36.0175H105.968V32.6528C105.968 32.3801 106.034 32.1668 106.164 32.0129C106.294 31.8589 106.451 31.7515 106.636 31.6889C106.82 31.6264 106.995 31.5943 107.163 31.5943C107.349 31.5943 107.522 31.6296 107.688 31.7001C107.853 31.7707 107.984 31.8958 108.087 32.0754C108.19 32.2551 108.241 32.5084 108.241 32.8356V36.0175H108.993V32.7699C108.993 32.3946 108.943 32.0883 108.841 31.8477C108.738 31.6071 108.607 31.4243 108.441 31.2944ZM113.559 31.2415C113.227 31.0442 112.836 30.9464 112.388 30.9464C111.898 30.9464 111.484 31.0538 111.149 31.2703C110.812 31.4868 110.56 31.79 110.39 32.1829C110.22 32.5742 110.135 33.0297 110.135 33.5493C110.135 34.1074 110.228 34.5773 110.416 34.959C110.6 35.3407 110.863 35.6294 111.2 35.8235C111.537 36.0175 111.931 36.1138 112.384 36.1138C112.878 36.1138 113.288 36.0063 113.618 35.7898C113.947 35.5733 114.194 35.2734 114.363 34.8885C114.529 34.5036 114.613 34.0561 114.613 33.5509C114.613 32.9832 114.52 32.5052 114.335 32.1187C114.151 31.7306 113.891 31.4387 113.559 31.2415ZM113.689 34.6014C113.572 34.8965 113.404 35.121 113.184 35.275C112.964 35.4289 112.698 35.5059 112.388 35.5059C112.037 35.5059 111.753 35.4193 111.53 35.2461C111.311 35.0713 111.147 34.8371 111.041 34.5404C110.937 34.2437 110.886 33.907 110.886 33.5285C110.886 33.1051 110.945 32.7458 111.064 32.4507C111.182 32.1556 111.354 31.9327 111.575 31.7819C111.798 31.6312 112.069 31.5558 112.387 31.5558C112.73 31.5558 113.009 31.6392 113.229 31.8092C113.447 31.9808 113.607 32.215 113.71 32.5133C113.813 32.8116 113.864 33.1484 113.864 33.5285C113.865 33.9487 113.806 34.3079 113.689 34.6014ZM117.378 35.0873H117.286L115.901 31.041H115.179L116.959 36.0159H117.715L119.485 31.041H118.778L117.378 35.0873ZM123.48 31.2431C123.163 31.0442 122.774 30.9448 122.316 30.9448C121.841 30.9448 121.435 31.0538 121.099 31.2719C120.762 31.49 120.505 31.7964 120.329 32.1909C120.152 32.5854 120.064 33.0489 120.064 33.5766C120.064 34.109 120.164 34.5645 120.358 34.943C120.553 35.3215 120.826 35.6118 121.174 35.8122C121.524 36.0127 121.923 36.1122 122.38 36.1122C122.699 36.1122 123.001 36.056 123.288 35.9422C123.575 35.8283 123.82 35.6583 124.024 35.4338C124.227 35.2108 124.361 34.9302 124.42 34.5966H123.7C123.639 34.8885 123.487 35.1146 123.243 35.2734C122.999 35.4322 122.71 35.5123 122.372 35.5123C122.022 35.5123 121.734 35.4305 121.506 35.267C121.278 35.1034 121.11 34.8853 121.001 34.6126C120.892 34.34 120.837 34.0385 120.837 33.7081H124.46V33.3953C124.46 32.8918 124.377 32.4571 124.211 32.0915C124.04 31.7242 123.798 31.4419 123.48 31.2431ZM120.837 33.1676C120.834 32.9014 120.885 32.6432 120.991 32.393C121.093 32.1471 121.261 31.9341 121.475 31.7771C121.692 31.6167 121.971 31.5366 122.309 31.5366C122.627 31.5366 122.892 31.6071 123.102 31.7499C123.312 31.8926 123.467 32.0883 123.57 32.3336C123.673 32.5806 123.724 32.8581 123.724 33.166H120.837V33.1676ZM130.893 31.126C130.612 31.0057 130.266 30.9464 129.857 30.9464C129.459 30.9464 129.116 31.0041 128.829 31.1212C128.543 31.2383 128.32 31.4067 128.165 31.6264C128.009 31.8461 127.921 32.1139 127.903 32.4283H128.587C128.648 32.1139 128.792 31.8846 129.016 31.7402C129.243 31.5959 129.51 31.5237 129.817 31.5237C130.229 31.5237 130.53 31.62 130.726 31.8108C130.922 32.0033 131.02 32.2631 131.02 32.5902V32.9992L130.06 33.0281C129.218 33.0505 128.607 33.1949 128.227 33.4595C127.849 33.7257 127.66 34.1363 127.66 34.6864C127.66 34.9847 127.729 35.2397 127.865 35.453C128.001 35.6647 128.192 35.8283 128.437 35.9406C128.683 36.0544 128.968 36.1122 129.292 36.1122C129.651 36.1122 129.985 36.0368 130.291 35.8828C130.598 35.7321 130.85 35.4578 131.05 35.0633L131.103 36.0159H131.746V32.5518C131.746 32.1989 131.675 31.9038 131.531 31.6633C131.387 31.4243 131.173 31.2463 130.893 31.126ZM131.02 34.3913C131.02 34.5356 130.975 34.6768 130.885 34.8147C130.795 34.9526 130.676 35.0777 130.527 35.19C130.38 35.3022 130.216 35.3905 130.04 35.4546C129.862 35.5172 129.682 35.5492 129.502 35.5492C129.175 35.5492 128.909 35.4674 128.704 35.3055C128.498 35.1419 128.396 34.9125 128.396 34.6206C128.396 34.364 128.461 34.1571 128.591 33.9984C128.721 33.8396 128.92 33.7209 129.188 33.6439C129.456 33.5669 129.801 33.5252 130.221 33.5188L131.02 33.5028V34.3913ZM138.795 31.1549C138.53 31.0282 138.237 30.964 137.916 30.964C137.653 30.964 137.417 31.0025 137.205 31.0763C136.995 31.15 136.817 31.2479 136.671 31.3698C136.525 31.4917 136.41 31.6248 136.326 31.7691V31.0426H135.605V36.0175H136.355V32.6528C136.355 32.4138 136.421 32.2182 136.548 32.0642C136.676 31.9086 136.846 31.7916 137.058 31.7146C137.269 31.6376 137.496 31.5991 137.736 31.5991C138.089 31.5991 138.373 31.7001 138.588 31.9022C138.803 32.1059 138.91 32.4154 138.91 32.8372V36.0175H139.661V32.7699C139.661 32.3529 139.582 32.0113 139.425 31.745C139.269 31.4772 139.059 31.2816 138.795 31.1549ZM144.227 31.2415C143.895 31.0442 143.503 30.9464 143.056 30.9464C142.565 30.9464 142.151 31.0538 141.816 31.2703C141.479 31.4868 141.228 31.79 141.058 32.1829C140.888 32.5742 140.803 33.0297 140.803 33.5493C140.803 34.1074 140.896 34.5773 141.083 34.959C141.269 35.3407 141.531 35.6294 141.868 35.8235C142.204 36.0175 142.599 36.1138 143.051 36.1138C143.545 36.1138 143.956 36.0063 144.286 35.7898C144.615 35.5733 144.862 35.2734 145.03 34.8885C145.197 34.5036 145.28 34.0561 145.28 33.5509C145.28 32.9832 145.187 32.5052 145.003 32.1187C144.818 31.7306 144.559 31.4387 144.227 31.2415ZM144.357 34.6014C144.24 34.8965 144.071 35.121 143.851 35.275C143.632 35.4289 143.365 35.5059 143.056 35.5059C142.705 35.5059 142.421 35.4193 142.198 35.2461C141.978 35.0713 141.815 34.8371 141.709 34.5404C141.605 34.2437 141.553 33.907 141.553 33.5285C141.553 33.1051 141.613 32.7458 141.731 32.4507C141.85 32.1556 142.021 31.9327 142.244 31.7819C142.467 31.6312 142.738 31.5558 143.056 31.5558C143.399 31.5558 143.678 31.6392 143.898 31.8092C144.116 31.9808 144.276 32.215 144.379 32.5133C144.482 32.8116 144.533 33.1484 144.533 33.5285C144.533 33.9487 144.475 34.3079 144.357 34.6014ZM149.814 33.9021C149.729 33.7851 149.615 33.6792 149.473 33.5846C149.33 33.49 149.15 33.413 148.932 33.3569L147.883 33.0826C147.607 33.012 147.397 32.9238 147.253 32.8164C147.109 32.7089 147.035 32.5598 147.035 32.3721C147.035 32.0835 147.141 31.8701 147.351 31.7322C147.561 31.5943 147.834 31.5253 148.172 31.5253C148.496 31.5253 148.751 31.5991 148.939 31.7483C149.126 31.8974 149.237 32.0979 149.269 32.3481H149.952C149.933 31.8846 149.763 31.5366 149.442 31.3024C149.121 31.0666 148.7 30.948 148.177 30.948C147.765 30.948 147.425 31.0105 147.152 31.1356C146.879 31.2607 146.674 31.4339 146.538 31.6504C146.401 31.8685 146.332 32.1219 146.332 32.4106C146.332 32.7699 146.45 33.0489 146.682 33.2478C146.915 33.4483 147.227 33.5974 147.617 33.6953L148.687 33.9695C148.915 34.024 149.085 34.1106 149.194 34.2293C149.304 34.348 149.36 34.5052 149.36 34.7024C149.36 34.9847 149.253 35.1932 149.035 35.3311C148.82 35.4658 148.536 35.5348 148.186 35.5348C147.952 35.5348 147.742 35.4995 147.558 35.4273C147.373 35.3552 147.223 35.2509 147.104 35.1114C146.984 34.9735 146.903 34.8051 146.859 34.6078H146.161C146.206 34.9542 146.323 35.2381 146.512 35.4626C146.701 35.6855 146.942 35.8507 147.232 35.9582C147.522 36.0656 147.84 36.1202 148.188 36.1202C148.589 36.1202 148.927 36.0608 149.205 35.9422C149.482 35.8235 149.694 35.6551 149.838 35.437C149.983 35.2188 150.055 34.9606 150.055 34.6623C150.055 34.5404 150.036 34.4137 149.999 34.2822C149.96 34.1427 149.899 34.0192 149.814 33.9021ZM154.621 33.9021C154.536 33.7851 154.422 33.6792 154.279 33.5846C154.136 33.49 153.957 33.413 153.739 33.3569L152.69 33.0826C152.414 33.012 152.204 32.9238 152.06 32.8164C151.915 32.7089 151.841 32.5598 151.841 32.3721C151.841 32.0835 151.947 31.8701 152.157 31.7322C152.368 31.5943 152.64 31.5253 152.979 31.5253C153.303 31.5253 153.558 31.5991 153.745 31.7483C153.933 31.8974 154.043 32.0979 154.076 32.3481H154.759C154.74 31.8846 154.57 31.5366 154.249 31.3024C153.928 31.0666 153.506 30.948 152.983 30.948C152.571 30.948 152.231 31.0105 151.959 31.1356C151.686 31.2607 151.481 31.4339 151.344 31.6504C151.208 31.8685 151.139 32.1219 151.139 32.4106C151.139 32.7699 151.256 33.0489 151.489 33.2478C151.721 33.4483 152.034 33.5974 152.425 33.6953L153.493 33.9695C153.721 34.024 153.891 34.1106 154 34.2293C154.111 34.348 154.167 34.5052 154.167 34.7024C154.167 34.9847 154.059 35.1932 153.841 35.3311C153.626 35.4658 153.343 35.5348 152.993 35.5348C152.759 35.5348 152.549 35.4995 152.364 35.4273C152.181 35.3552 152.029 35.2509 151.91 35.1114C151.79 34.9735 151.71 34.8051 151.665 34.6078H150.967C151.012 34.9542 151.129 35.2381 151.319 35.4626C151.508 35.6855 151.748 35.8507 152.039 35.9582C152.329 36.0656 152.647 36.1202 152.995 36.1202C153.396 36.1202 153.734 36.0608 154.011 35.9422C154.289 35.8235 154.501 35.6551 154.645 35.437C154.789 35.2188 154.861 34.9606 154.861 34.6623C154.861 34.5404 154.842 34.4137 154.805 34.2822C154.767 34.1427 154.706 34.0192 154.621 33.9021ZM159.782 31.6649C159.637 31.4259 159.424 31.2463 159.143 31.126C158.863 31.0057 158.516 30.9464 158.107 30.9464C157.71 30.9464 157.367 31.0041 157.079 31.1212C156.792 31.2383 156.571 31.4067 156.415 31.6264C156.26 31.8461 156.172 32.1139 156.154 32.4283H156.837C156.898 32.1139 157.043 31.8846 157.267 31.7402C157.493 31.5959 157.761 31.5237 158.067 31.5237C158.48 31.5237 158.781 31.62 158.977 31.8108C159.172 32.0033 159.27 32.2631 159.27 32.5902V32.9992L158.311 33.0281C157.468 33.0505 156.857 33.1949 156.478 33.4595C156.1 33.7257 155.91 34.1363 155.91 34.6864C155.91 34.9847 155.979 35.2397 156.116 35.453C156.252 35.6647 156.443 35.8283 156.688 35.9406C156.933 36.0544 157.217 36.1122 157.543 36.1122C157.902 36.1122 158.236 36.0368 158.542 35.8828C158.848 35.7321 159.1 35.4578 159.301 35.0633L159.354 36.0159H159.997V32.5518C159.998 32.1989 159.928 31.9038 159.782 31.6649ZM159.272 34.3913C159.272 34.5356 159.227 34.6768 159.137 34.8147C159.047 34.9526 158.929 35.0777 158.779 35.19C158.632 35.3022 158.468 35.3905 158.292 35.4546C158.114 35.5172 157.934 35.5492 157.755 35.5492C157.427 35.5492 157.161 35.4674 156.956 35.3055C156.751 35.1419 156.648 34.9125 156.648 34.6206C156.648 34.364 156.714 34.1571 156.844 33.9984C156.974 33.8396 157.172 33.7209 157.44 33.6439C157.708 33.5669 158.053 33.5252 158.473 33.5188L159.272 33.5028V34.3913ZM57.053 16.3824C57.053 18.6886 56.1516 19.7728 54.2271 19.845C52.3025 19.7728 51.4012 18.6886 51.4012 16.3824V9.20706H47.9515V17.2581C47.9515 21.0526 50.4486 22.9643 53.924 22.9643H54.5302C58.0056 22.9643 60.5027 21.0542 60.5027 17.2581V9.20706H57.053V16.3824ZM79.8347 8.99536C75.1629 8.99536 72.9625 11.2503 72.9625 16.0536C72.9625 20.857 75.1645 23.1119 79.8347 23.1119C84.505 23.1119 86.7069 20.857 86.7069 16.0536C86.7069 11.2503 84.505 8.99536 79.8347 8.99536ZM79.8347 20.0069C77.4194 20.0069 76.4106 18.8651 76.4106 16.052C76.4106 13.239 77.4194 12.0987 79.8347 12.0987C82.25 12.0987 83.2588 13.2406 83.2588 16.052C83.2588 18.8667 82.25 20.0069 79.8347 20.0069ZM63.2756 14.3119V22.9643H66.7254V14.6295C66.7254 12.9311 67.3364 12.32 69.1407 12.32H71.7148V9.21508H68.7702C64.7351 9.21508 63.2756 10.5703 63.2756 14.3119ZM113.08 14.3023V22.9627H116.529V14.6198C116.529 12.9214 117.14 12.3104 118.945 12.3104H121.519V9.20706H118.574C114.539 9.20706 113.08 10.5607 113.08 14.3023ZM138.893 9.20706H138.286C136.57 9.20706 135.095 9.67537 134.038 10.604C132.981 9.67537 131.507 9.20706 129.791 9.20706H129.185C125.709 9.20706 123.212 11.1172 123.212 14.9117V22.9627H126.662L126.664 15.789C126.664 13.4811 127.565 12.3986 129.49 12.3264C131.414 12.3986 132.315 13.4811 132.315 15.789V22.9627H135.765V15.7874C135.765 13.4811 136.666 12.3986 138.591 12.3264C140.516 12.3986 141.417 13.4811 141.417 15.789V22.9627H144.867V14.9117C144.865 11.1172 142.368 9.20706 138.893 9.20706ZM104.382 9.20706H102.098V9.21668H93.5311V8.96489C93.5311 7.26648 94.1421 6.65544 95.9464 6.65544H97.8581V3.55051H95.5743C91.5407 3.55051 90.0813 4.90411 90.0813 8.64574V9.21668H88.176V12.3152H90.0845V22.9627H93.5327V12.3152H103.651C103.882 12.3152 104.098 12.3168 104.302 12.3216C104.308 12.3232 104.318 12.3232 104.326 12.3232C104.413 12.3248 104.485 12.3328 104.565 12.3344C105.662 12.4227 106.347 12.8011 106.337 13.672C106.331 14.2285 105.933 14.9165 104.937 14.9165L101.46 14.9791C101.457 14.9791 101.451 14.9807 101.447 14.9823C98.0232 15.0063 96.7996 16.7272 96.7996 18.7784C96.7996 21.4872 99.2052 23.16 102.163 23.16C104.313 23.16 105.792 22.4688 106.416 21.2595V22.9627H106.425V23.0205H109.875V14.3023C109.875 10.5607 108.416 9.20706 104.382 9.20706ZM106.413 17.2388C106.413 19.4697 105.218 20.5859 102.854 20.5859C101.207 20.5859 100.35 19.8209 100.297 18.8057C100.248 17.8258 100.961 17.3495 102.187 17.3495L104.514 17.3238C105.309 17.3238 106.201 17.2324 106.413 17.072V17.2388ZM154.505 9.20706H152.222V9.21668H148.143V12.3152H153.774C154.005 12.3152 154.221 12.3168 154.425 12.3216C154.432 12.3232 154.441 12.3232 154.449 12.3232C154.536 12.3248 154.608 12.3328 154.688 12.3344C155.785 12.4227 156.468 12.8011 156.459 13.672C156.452 14.2285 156.055 14.9165 155.059 14.9165L151.582 14.9791C151.578 14.9807 151.572 14.9823 151.569 14.9823C148.145 15.0063 146.921 16.7272 146.921 18.7784C146.921 21.4872 149.327 23.16 152.286 23.16C154.436 23.16 155.913 22.4688 156.537 21.2595V22.9627H156.547V23.0205H159.997V14.3023C159.998 10.5607 158.539 9.20706 154.505 9.20706ZM156.536 17.2388C156.536 19.4697 155.341 20.5859 152.977 20.5859C151.33 20.5859 150.473 19.8209 150.421 18.8057C150.371 17.8258 151.084 17.3495 152.31 17.3495L154.637 17.3238C155.432 17.3238 156.324 17.2324 156.536 17.072V17.2388ZM38.8628 8.99536C34.191 8.99536 31.989 11.2503 31.989 16.0536C31.989 16.3407 32.0034 16.6101 32.0195 16.8764H32.0131C32.0211 17.0191 32.0371 17.1554 32.0499 17.2949C32.0516 17.3062 32.0516 17.3174 32.0532 17.3286C32.4284 21.2531 34.6288 23.1135 38.8612 23.1135C42.4216 23.1135 44.545 21.7968 45.3517 19.0431H41.4978C40.9445 19.7038 40.0881 20.0086 38.8612 20.0086C36.8581 20.0086 35.8397 19.2018 35.5446 17.3286C35.5446 17.327 35.543 17.3254 35.543 17.3222H45.6773C45.6821 17.2228 45.6917 17.0592 45.7014 16.878C45.7174 16.5781 45.7334 16.2332 45.7334 16.0552C45.7351 11.2503 43.5331 8.99536 38.8628 8.99536ZM35.559 14.6728C35.875 12.8733 36.8966 12.1003 38.8628 12.1003C40.8291 12.1003 41.8491 12.8749 42.165 14.6728L42.1955 14.9358H35.5238L35.559 14.6728ZM22.7191 18.9982C21.1506 19.0912 19.2902 19.3366 17.2855 19.7343L17.138 19.0896C19.2213 18.6726 21.157 18.4048 22.7929 18.2941C22.9725 16.1851 22.8747 14.0393 22.5395 11.9511C20.5476 12.0249 18.1997 12.3088 15.6881 12.8092L15.5342 12.1404C18.0585 11.6368 20.4177 11.3481 22.4224 11.2727C21.9926 8.98093 21.2869 6.90082 20.392 5.15911C18.5621 5.27618 16.4195 5.56487 14.1228 6.02676L13.9689 5.35958C16.1981 4.91373 18.2702 4.62505 20.036 4.50637C18.8011 2.34126 17.2598 0.796813 15.6144 0.145677C14.1228 0.0013361 12.5848 0.0799215 11.0436 0.435962C6.57222 1.46559 3.09682 4.50637 1.31983 8.3763C3.10644 6.75167 7.07741 5.00675 11.8711 3.89853L11.8824 3.89533L12.8591 8.1213C6.46798 9.59838 1.34228 11.9383 0.0351946 13.8179C-8.87085e-05 14.8684 0.0817043 15.9365 0.290196 17.0079C1.33586 15.356 6.6476 12.381 13.4765 10.8028H13.4797L14.4019 14.7995C7.50723 16.3904 2.14417 19.0687 1.76728 21.1232C2.25163 22.0085 2.81616 22.8328 3.46248 23.5818C3.50739 21.816 8.54007 19.2676 15.0659 17.76L15.0835 17.7568L16.0346 21.8802L16.0249 21.8834C10.6282 23.1279 6.48241 25.1359 6.72298 26.3804C9.80706 28.3001 13.6241 29.0491 17.4427 28.1654C17.7811 28.0884 18.105 27.9842 18.4306 27.8847C20.6535 26.4959 22.23 23.1744 22.7191 18.9982Z" fill="white"/>
</g>
<mask id="mask1_2035_2828" style="mask-type:luminance" maskUnits="userSpaceOnUse" x="0" y="0" width="160" height="37">
<path d="M0 0H160V36.1172H0V0Z" fill="white"/>
</mask>
<g mask="url(#mask1_2035_2828)">
<path d="M20.8106 4.46297C22.6069 4.3892 24.0214 4.51429 24.881 4.84628C22.7592 2.46305 19.8772 0.841626 16.713 0.283508C18.2365 0.989174 19.6575 2.45503 20.8106 4.46297ZM28.3997 12.9839C27.6844 12.2654 25.8449 11.9093 23.3173 11.9318C23.6461 14.0151 23.7343 16.1546 23.5419 18.2523C25.7503 18.1641 27.2739 18.4015 27.6732 18.9692C28.3438 17.0498 28.5917 15.008 28.3997 12.9839ZM21.1683 5.11892C22.0696 6.86223 22.7785 8.95036 23.2019 11.2502C24.8137 11.2342 26.8553 11.3143 28.2987 12.1547C28.2442 11.8019 28.1912 11.4507 28.1111 11.0978C27.6267 9.00329 26.6917 7.13488 25.4488 5.54553C24.5779 5.19109 23.0832 5.04835 21.1683 5.11892ZM23.4649 18.9644C22.9741 22.9209 21.4906 26.0916 19.4089 27.5446C23.1008 26.1093 25.9251 23.2433 27.3797 19.7454C27.0237 19.1633 25.5787 18.9035 23.4649 18.9644Z" fill="white"/>
</g>
</g>
<defs>
<clipPath id="clip0_2035_2828">
<rect width="160" height="36.1172" fill="white"/>
</clipPath>
</defs>
</svg>
