<svg width="160" height="16" viewBox="0 0 160 16" fill="none" xmlns="http://www.w3.org/2000/svg">
<g clip-path="url(#clip0_2035_2782)">
<path d="M98.813 15.1889H115.472V12.2757H103.077V8.92329H114.178V6.26562H103.077V2.91324H115.472V0H98.813V15.1889Z" fill="white"/>
<path d="M71.9029 5.95845L65.6958 4.98658C64.3017 4.77301 64.11 4.34465 64.11 3.91271C64.11 3.29599 64.678 2.91444 65.594 2.91444H76.2035V0H64.8118C61.5053 0 59.4508 1.79977 59.4508 4.32786C59.4508 6.67717 60.8461 8.14818 65.3999 8.7541L71.3289 9.78957C73.239 10.0859 73.239 10.9091 73.239 11.1802C73.239 12.0861 72.4449 12.2757 71.7787 12.2757H60.4118V15.1889H71.8958C75.3763 15.1889 77.078 13.4011 77.078 10.7639C77.078 8.12658 75.2887 6.47439 71.9041 5.95845H71.9029Z" fill="white"/>
<path d="M78.3692 2.91324H85.1313V15.1889H89.4426V2.91324H96.1231V0H78.3692V2.91324Z" fill="white"/>
<path d="M14.7752 7.2567C16.2627 6.64837 17.0686 5.50131 17.0686 3.96071C17.0698 1.51781 15.0402 0 11.7727 0H0V15.1889H11.3894C15.0734 15.1889 17.5491 13.4215 17.5491 10.7915C17.5491 9.94556 17.2592 8.03299 14.7752 7.2567ZM11.0296 12.2757H4.28758V8.79491H11.0296C12.3823 8.79491 13.1893 9.45961 13.1893 10.5719C13.1893 11.6841 12.3823 12.2757 11.0296 12.2757ZM11.0296 6.39281H4.28758V2.91203H11.0545C11.2153 2.91203 11.3681 2.92283 11.5101 2.94203C11.5148 2.94203 11.5196 2.94323 11.5254 2.94444C11.5823 2.95283 11.6391 2.96243 11.6935 2.97322C12.6426 3.1604 13.1917 3.77112 13.1917 4.68781C13.1917 5.75448 12.3847 6.3916 11.0319 6.3916L11.0296 6.39281Z" fill="white"/>
<path d="M45.968 0L38.155 15.1889H42.1834L43.8343 11.7226H52.226L53.8769 15.1889H58.9396L51.0875 0H45.968ZM44.9799 9.31924L48.032 2.91324L51.0839 9.31924H44.9811H44.9799Z" fill="white"/>
<path d="M154.078 0H143.219V15.1889H147.507V9.30604H154.228C157.92 9.30604 159.998 7.43427 159.998 4.71421C159.999 1.76258 157.786 0 154.078 0ZM153.407 6.39281H147.507V2.91203H153.407C154.76 2.91203 155.567 3.57675 155.567 4.68901C155.567 5.80127 154.76 6.39281 153.407 6.39281Z" fill="white"/>
<path d="M129.546 7.1379L123.556 0H117.888V15.1889H121.447V4.7922L128.856 13.3135L136.253 4.7922V15.1889H140.529V0H135.51L129.546 7.1379Z" fill="white"/>
<path d="M31.9751 8.7637C35.1716 8.7637 36.8129 7.1955 36.8129 4.71421C36.8129 1.76258 34.5999 0 30.8923 0H20.0331V15.1877H24.3206V6.60158L31.9088 15.1889H36.949L30.8958 8.7685L31.9739 8.76491L31.9751 8.7637ZM24.3218 6.394V2.91324H30.2225C31.5751 2.91324 32.3821 3.57675 32.3821 4.68901C32.3821 5.80127 31.5751 6.39281 30.2225 6.39281H24.3218V6.394Z" fill="white"/>
</g>
<defs>
<clipPath id="clip0_2035_2782">
<rect width="160" height="15.2381" fill="white"/>
</clipPath>
</defs>
</svg>
