<svg width="100" height="27" viewBox="0 0 100 27" fill="none" xmlns="http://www.w3.org/2000/svg">
<path d="M26.8712 20.345C23.9805 20.345 22.517 18.3757 22.517 15.6521C22.517 12.8953 23.9793 10.8928 26.8712 10.8928C29.7285 10.8928 31.2254 12.8953 31.2254 15.6521C31.2254 18.3757 29.7285 20.345 26.8712 20.345ZM26.8712 5.97058C25.5639 5.96847 24.2695 6.21917 23.0643 6.70787C21.8592 7.19658 20.7679 7.91337 19.8548 8.8159C18.9416 9.71843 18.2252 10.7884 17.7479 11.9625C17.2705 13.1367 17.0418 14.3912 17.0755 15.6521C17.012 16.9171 17.2204 18.1812 17.688 19.3647C18.1555 20.5482 18.8718 21.6255 19.792 22.5287C20.7122 23.4321 21.8161 24.1418 23.0345 24.6133C24.2528 25.0847 25.5591 25.3078 26.8712 25.2683C28.1734 25.2728 29.4634 25.0258 30.6651 24.542C31.867 24.0582 32.9563 23.3474 33.8691 22.4515C34.7821 21.5554 35.4999 20.4923 35.9805 19.3246C36.4612 18.1569 36.6949 16.9083 36.6679 15.6521C36.7326 14.3836 36.5253 13.116 36.059 11.9284C35.5927 10.7407 34.8774 9.65874 33.9578 8.75002C33.0384 7.84132 31.9343 7.12545 30.715 6.6472C29.4955 6.16895 28.187 5.9386 26.8712 5.97058Z" fill="white"/>
<path d="M12.5864 1.30982C5.61364 1.30982 0 6.03596 0 13.7482C0 21.6576 5.51145 25.3991 11.5326 25.3991C13.7555 25.4473 15.9588 24.9861 17.9612 24.0533C18.5398 23.7255 18.642 23.463 18.2333 22.9368C17.5661 22.0611 16.9854 21.1269 16.4987 20.1467C16.3478 19.8029 16.2148 19.5553 15.8928 19.5553C15.7492 19.5617 15.6084 19.5952 15.4782 19.6539C14.5124 20.0653 13.472 20.2884 12.4165 20.3107C8.57192 20.3107 5.74906 18.44 5.64451 13.747C5.54234 8.95555 8.33192 6.46124 12.4818 6.46124C13.8948 6.39289 15.3073 6.60512 16.6317 7.08481C16.7503 7.13177 16.8779 7.15405 17.006 7.15016C17.278 7.15016 17.4812 6.92088 17.6523 6.69163C18.131 6.05084 18.3924 5.28287 18.4008 4.49305C18.4126 4.0424 18.3066 3.59614 18.0925 3.19547C17.8785 2.79479 17.5632 2.4526 17.1759 2.20048C15.759 1.50289 14.17 1.19627 12.584 1.31441" fill="white"/>
<path d="M96.7276 0.981914C95.877 0.981914 93.7195 1.24442 93.7195 3.44415V24.153C93.7195 24.7765 93.8168 25.07 94.3942 25.07H98.2377C98.8163 25.07 99.0396 24.7811 99.0396 24.153V2.13049C99.0696 1.96815 99.04 1.80081 98.9562 1.65713C98.8723 1.51346 98.7392 1.40242 98.5798 1.34299C97.9959 1.09485 97.3633 0.971665 96.7252 0.981914" fill="white"/>
<path d="M46.9532 5.97065C41.5451 5.97065 38.0499 9.15387 38.0499 14.1092V24.1519C38.0499 24.7755 38.2696 25.0689 38.847 25.0689H42.656C43.2346 25.0689 43.3688 24.7801 43.3688 24.1519V15.1914C43.3688 13.8159 43.4804 11.0235 46.984 11.0235C50.4877 11.0235 50.3273 13.747 50.3273 15.1261V24.1519C50.3273 24.7755 50.5114 25.0689 51.09 25.0689H54.899C55.4776 25.0689 55.6475 24.7801 55.6475 24.1519V13.9775C55.6475 9.02092 52.5276 5.96948 46.9496 5.96948" fill="white"/>
<path d="M89.4371 5.97034C88.6209 5.97034 86.3482 6.23284 86.3482 8.43141V16.2089C86.3482 17.5845 86.6274 20.3769 83.1237 20.3769C79.6201 20.3769 79.7971 17.6533 79.7971 16.2743V7.12465C79.8078 6.95174 79.7583 6.78033 79.6565 6.63765C79.5547 6.49498 79.4064 6.38921 79.2352 6.33713C78.6111 6.08532 77.9392 5.96234 77.2629 5.97607C76.4455 5.97607 74.0659 6.23855 74.0659 8.43713V17.463C74.0659 22.4184 77.339 25.4378 82.816 25.4378C88.2241 25.4378 91.6683 22.1559 91.6683 17.1994V7.12465C91.6683 6.66613 91.5709 6.50105 91.2311 6.33713C90.6684 6.0859 90.0535 5.9624 89.4336 5.97607" fill="white"/>
<path d="M65.1058 5.77393C62.6227 5.77393 56.9081 6.43074 56.9081 11.8125C56.9081 15.9472 59.5218 16.9709 63.3712 17.5567L65.2721 17.8524C67.173 18.1481 67.8574 18.3843 67.8574 19.4021C67.8574 20.7181 65.7805 20.7226 64.6496 20.7226H64.4939C62.5396 20.6671 60.6085 20.2986 58.7792 19.6325C58.6897 19.6101 58.5973 19.6005 58.5049 19.6039C58.3662 19.6036 58.2321 19.6512 58.1266 19.7381C58.0212 19.8248 57.9514 19.9451 57.9299 20.0773L57.0114 23.0347C56.9321 23.1919 56.9198 23.3729 56.9771 23.5387C57.0343 23.7046 57.1567 23.8421 57.3179 23.922C59.6569 24.8606 62.1662 25.3407 64.6994 25.3342C70.5839 25.3342 73.067 22.3813 73.067 19.0984C73.067 15.2583 70.8215 14.0776 66.0574 13.3555L64.0852 13.0597C62.4218 12.7972 61.8398 12.568 61.8398 11.5833C61.8398 10.4015 63.4722 10.3029 65.5133 10.3029C66.7146 10.3159 67.9113 10.448 69.0846 10.6972C70.1051 10.8944 70.5103 11.1236 70.7848 11.1236C71.0913 11.1236 71.2956 10.8611 71.4311 10.6651C71.6577 10.3962 71.8269 10.0867 71.929 9.75441C72.0312 9.42212 72.0643 9.07362 72.0263 8.72897C71.9884 8.38432 71.8801 8.05032 71.7077 7.74619C71.5354 7.44206 71.3025 7.17382 71.0223 6.95689C69.7309 6.00547 66.8391 5.77507 65.1034 5.77507" fill="white"/>
</svg>
