<svg width="160" height="14" viewBox="0 0 160 14" fill="none" xmlns="http://www.w3.org/2000/svg">
<g clip-path="url(#clip0_2035_2818)">
<path fill-rule="evenodd" clip-rule="evenodd" d="M150.244 1.2275V5.64C149.438 5.25625 147.556 4.91125 146.369 4.91125C144.489 4.91125 140.421 5.56125 140.421 9.04875C140.421 12.8112 144.413 13.3488 145.984 13.3488C147.559 13.3488 149.361 13.1112 150.244 12.6112V13.34H156.381V1.22875L150.244 1.2275ZM93.115 5.4475V13.3512H99.715V9.3625C99.715 8.44 100.483 7.9025 101.173 7.9025C102.439 7.9025 102.554 7.98 102.554 9.515V13.3525H108.691V8.285C108.691 6.75 108.001 4.92875 104.701 4.985C102.439 5.0225 100.414 5.7525 99.7138 6.135V5.445H93.125L93.115 5.4475ZM28.615 13.3512V5.45H22.1712V13.3537H28.6162L28.615 13.3512ZM138.277 13.3512V5.45H131.831V13.3537H138.277V13.3512ZM123.848 0H115.485C115.866 0.075 116.519 1.1125 116.327 1.53375L109.881 13.3512H113.489L114.989 10.3638H120.551L122.014 13.3638H130.339L123.85 0H123.848ZM85.485 11.28C84.5263 11.28 83.26 11.0875 82.76 9.63H91.585C91.585 7.82625 90.8175 4.48875 84.2975 4.45C80.3825 4.45 76.4688 5.755 76.4313 8.9775C76.3938 12.2 80.6513 13.3525 84.6025 13.3525C88.5525 13.3525 90.32 12.7375 90.8562 12.3525L91.2025 10.5125C90.4337 10.8575 88.4025 11.355 85.485 11.28ZM57.0125 6.1375C55.555 5.25625 53.8288 4.9125 51.2575 4.9125C48.6875 4.9125 44.045 6.025 44.045 9.24625C44.045 12.4688 48.1125 13.6188 50.72 13.6188C53.33 13.6188 56.3988 13.0437 57.0125 12.6225V10.3975C56.245 10.8575 50.72 11.9312 50.72 9.36C50.72 7.98 52.945 7.6725 53.5988 7.6725C54.2488 7.6725 56.4363 7.98 57.0113 8.40125L57.0125 6.1375ZM31.1538 5.4475V8.05625H33.3037V10.5875C33.3037 11.74 34.2238 13.35 37.1388 13.35C40.0638 13.35 41.1388 12.7375 42.1263 12.3538V10.435C41.6763 10.5887 39.4513 11.51 39.4513 9.66875V8.05625H42.1263V5.4475H39.4463V2.915H33.3088V5.4475H31.1588H31.1538ZM150.244 9.47625C150.244 9.78875 149.591 10.2513 148.9 10.2513C148.244 10.2513 146.713 10.41 146.713 8.95125C146.713 7.87625 148.325 7.45625 148.825 7.45625C149.322 7.45625 150.244 7.56875 150.244 8.33875V9.48875V9.47625ZM116.194 7.95125L117.938 4.45125L119.397 7.94625H116.194V7.95125ZM84.2562 6.60125C85.14 6.60125 85.485 7.02625 85.485 7.82625H82.8C82.8375 7.17625 83.3363 6.60125 84.2562 6.60125ZM59.1625 1.225V13.35H65.76V9.36C65.76 8.4375 66.5275 8.05375 67.2188 8.05375C67.9088 8.05375 68.6 7.82375 68.6 9.51125V13.3488H74.7375V8.2875C74.7375 6.9825 74.2 5.11625 70.9 5.0625C68.4837 5.025 66.5663 5.71625 65.76 6.1375V1.2275H59.16L59.1625 1.225ZM0 0V13.35H6.9825V9.285C7.52 9.285 8.555 8.94 9.4 10.245L11.3562 13.3525H19.95L16.1125 7.29C15.5775 6.525 15.385 5.7575 13.39 5.565L18.3025 0H13.3525L9.5875 4.71875C9.1675 5.21875 9.35875 5.6775 6.98 5.6775V0H0ZM134.979 4.6875C136.776 4.6875 138.232 3.8625 138.232 2.8425C138.232 1.82375 136.776 0.9975 134.979 0.9975C133.179 0.9975 131.723 1.8225 131.723 2.8425C131.723 3.86125 133.18 4.6875 134.979 4.6875ZM25.3162 4.6875C27.1163 4.6875 28.5725 3.8625 28.5725 2.8425C28.5725 1.82375 27.115 0.9975 25.3175 0.9975C23.5175 0.9975 22.0613 1.8225 22.0613 2.8425C22.0613 3.86125 23.5113 4.68625 25.3113 4.68625L25.3162 4.6875ZM159.622 1.8375C159.369 1.5875 159.064 1.46 158.706 1.46C158.35 1.46 158.046 1.585 157.794 1.8375C157.544 2.09 157.416 2.39375 157.416 2.75C157.416 3.11 157.541 3.41625 157.791 3.6675C158.041 3.9225 158.347 4.04875 158.706 4.04875C159.064 4.04875 159.369 3.92375 159.622 3.66125C159.875 3.40375 160.001 3.09875 160.001 2.74C160.001 2.38125 159.876 2.0775 159.626 1.8275L159.622 1.8375ZM159.494 3.54375C159.277 3.76125 159.015 3.87125 158.706 3.87125C158.397 3.87125 158.135 3.75875 157.919 3.5425C157.704 3.3225 157.594 3.05875 157.594 2.74875C157.594 2.43875 157.704 2.17375 157.919 1.96125C158.137 1.73625 158.4 1.62375 158.706 1.62375C159.014 1.62375 159.276 1.73125 159.494 1.94875C159.71 2.16625 159.819 2.42875 159.819 2.73625C159.819 3.04375 159.71 3.31125 159.494 3.53V3.54375ZM159.281 3.43875C159.276 3.42625 159.271 3.40125 159.269 3.36375L159.266 3.26375V3.16375C159.266 3.095 159.241 3.02125 159.189 2.94625C159.139 2.87125 159.064 2.825 158.951 2.80875C159.039 2.79375 159.114 2.77125 159.161 2.73875C159.254 2.67875 159.299 2.585 159.299 2.4575C159.299 2.275 159.224 2.1575 159.08 2.095C158.997 2.06125 158.868 2.045 158.693 2.045H158.193V3.4625H158.443V2.9H158.643C158.775 2.9 158.868 2.9125 158.918 2.945C159.01 2.9975 159.055 3.1075 159.055 3.27V3.3825L159.06 3.43V3.445L159.064 3.4575H159.298L159.291 3.44125L159.281 3.43875ZM158.897 2.68875C158.845 2.71375 158.765 2.72625 158.66 2.72625H158.435V2.21375H158.647C158.785 2.21375 158.887 2.23875 158.95 2.2725C159.013 2.30625 159.042 2.37625 159.042 2.48C159.042 2.58875 158.992 2.6625 158.896 2.70125L158.897 2.68875Z" fill="white"/>
</g>
<defs>
<clipPath id="clip0_2035_2818">
<rect width="160" height="13.75" fill="white"/>
</clipPath>
</defs>
</svg>
