<svg width="70" height="55" viewBox="0 0 70 55" fill="none" xmlns="http://www.w3.org/2000/svg">
<path d="M12.7147 53.7526V50.1794C12.7568 49.5715 12.5353 48.9748 12.1067 48.5417C11.6781 48.1085 11.0838 47.8807 10.4755 47.9164C9.67377 47.8638 8.90701 48.2518 8.47446 48.9288C8.0801 48.272 7.358 47.8835 6.59257 47.9164C5.92612 47.8827 5.29167 48.2044 4.92508 48.762V48.0593H3.68637V53.7526H4.93699V50.6201C4.88313 50.2259 5.00803 49.8283 5.27759 49.5357C5.54716 49.243 5.93326 49.086 6.33054 49.1074C7.15238 49.1074 7.56925 49.6434 7.56925 50.6082V53.7764H8.81987V50.6201C8.76822 50.2264 8.89388 49.83 9.16295 49.5379C9.43201 49.2459 9.81677 49.0882 10.2134 49.1074C11.0591 49.1074 11.464 49.6434 11.464 50.6082V53.7764L12.7147 53.7526ZM31.2179 48.0593H29.1812V46.3323H27.9305V48.0593H26.799V49.1908H27.9544V51.8112C27.9544 53.1333 28.4665 53.9194 29.9315 53.9194C30.4789 53.9212 31.0156 53.7684 31.4799 53.4787L31.1226 52.4186C30.7904 52.6168 30.4134 52.7274 30.0268 52.7402C29.4313 52.7402 29.205 52.3591 29.205 51.7873V49.1908H31.2298L31.2179 48.0593ZM41.7826 47.9164C41.1674 47.8983 40.5916 48.2182 40.2819 48.7501V48.0593H39.0551V53.7526H40.2938V50.5606C40.2938 49.6196 40.6988 49.0955 41.4849 49.0955C41.7498 49.0919 42.0129 49.1405 42.2591 49.2385L42.6402 48.0474C42.3573 47.9462 42.0593 47.8938 41.7588 47.8926L41.7826 47.9164ZM25.8104 48.5119C25.1093 48.095 24.3031 47.8883 23.4879 47.9164C22.0467 47.9164 21.1057 48.6072 21.1057 49.7387C21.1057 50.6677 21.7965 51.2395 23.071 51.4181L23.6665 51.5015C24.3454 51.5968 24.667 51.7754 24.667 52.097C24.667 52.5377 24.2144 52.7878 23.3688 52.7878C22.6885 52.8075 22.0215 52.5978 21.475 52.1923L20.8794 53.1571C21.601 53.6609 22.4652 53.9197 23.3449 53.8955C24.9886 53.8955 25.9415 53.1213 25.9415 52.0375C25.9415 50.9536 25.1911 50.5129 23.9524 50.3342L23.3568 50.2509C22.8209 50.1794 22.3921 50.0722 22.3921 49.6911C22.3921 49.3099 22.797 49.0241 23.476 49.0241C24.1035 49.0314 24.7186 49.1995 25.2626 49.5124L25.8104 48.5119ZM58.9876 47.9164C58.3724 47.8983 57.7965 48.2182 57.4869 48.7501V48.0593H56.2601V53.7526H57.4988V50.5606C57.4988 49.6196 57.9037 49.0955 58.6898 49.0955C58.9548 49.0919 59.2179 49.1405 59.464 49.2385L59.8452 48.0474C59.5623 47.9462 59.2642 47.8938 58.9638 47.8926L58.9876 47.9164ZM43.0273 50.894C42.9975 51.703 43.31 52.4871 43.8881 53.0539C44.4662 53.6206 45.2563 53.9175 46.0645 53.8717C46.8083 53.9096 47.5392 53.6673 48.1132 53.1928L47.5176 52.1923C47.0894 52.5188 46.5673 52.6985 46.0288 52.7045C45.0793 52.6277 44.348 51.8347 44.348 50.8821C44.348 49.9296 45.0793 49.1366 46.0288 49.0598C46.5673 49.0658 47.0894 49.2454 47.5176 49.572L48.1132 48.5715C47.5392 48.0969 46.8083 47.8547 46.0645 47.8926C45.2563 47.8468 44.4662 48.1437 43.8881 48.7104C43.31 49.2771 42.9975 50.0612 43.0273 50.8702V50.894ZM54.6283 50.894V48.0593H53.3896V48.7501C52.9628 48.201 52.298 47.8907 51.603 47.9164C49.9585 47.9164 48.6253 49.2495 48.6253 50.894C48.6253 52.5386 49.9585 53.8717 51.603 53.8717C52.298 53.8974 52.9628 53.5871 53.3896 53.038V53.7288H54.6283V50.894ZM50.0189 50.894C50.074 49.9595 50.866 49.2403 51.8015 49.2754C52.7371 49.3105 53.473 50.087 53.4579 51.0231C53.4427 51.9592 52.6821 52.7115 51.7459 52.7164C51.2692 52.7224 50.8117 52.5291 50.4837 52.183C50.1558 51.837 49.9873 51.3697 50.0189 50.894ZM35.071 47.9164C33.4265 47.9394 32.112 49.2912 32.135 50.9357C32.158 52.5803 33.5098 53.8947 35.1544 53.8717C36.0112 53.9157 36.8538 53.6398 37.5186 53.0975L36.9231 52.1804C36.4528 52.5575 35.8703 52.7671 35.2675 52.7759C34.4161 52.8492 33.6611 52.2314 33.5643 51.3824H37.7926C37.7926 51.2275 37.7926 51.0727 37.7926 50.906C37.7926 49.1194 36.6849 47.9283 35.0889 47.9283L35.071 47.9164ZM35.071 49.0241C35.4453 49.0161 35.8075 49.1572 36.0778 49.4163C36.3481 49.6754 36.5044 50.0314 36.5122 50.4057H33.5345C33.5794 49.6106 34.2512 48.9969 35.0472 49.0241H35.071ZM66.1042 50.906V45.7725H64.9132V48.7501C64.4864 48.201 63.8215 47.8907 63.1266 47.9164C61.4821 47.9164 60.1489 49.2495 60.1489 50.894C60.1489 52.5386 61.4821 53.8717 63.1266 53.8717C63.8215 53.8974 64.4864 53.5871 64.9132 53.038V53.7288H66.1042V50.906ZM68.1707 52.9248C68.2482 52.9239 68.325 52.938 68.397 52.9665C68.4654 52.9944 68.528 53.0348 68.5817 53.0856C68.634 53.137 68.6764 53.1975 68.7067 53.2643C68.7677 53.4048 68.7677 53.5644 68.7067 53.705C68.6764 53.7717 68.634 53.8323 68.5817 53.8836C68.528 53.9344 68.4654 53.9748 68.397 54.0027C68.3258 54.0342 68.2487 54.0504 68.1707 54.0504C67.9403 54.0486 67.7315 53.9141 67.6348 53.705C67.5745 53.5642 67.5745 53.405 67.6348 53.2643C67.6651 53.1975 67.7075 53.137 67.7598 53.0856C67.8134 53.0348 67.876 52.9944 67.9444 52.9665C68.022 52.9356 68.1052 52.9214 68.1886 52.9248H68.1707ZM68.1707 53.9313C68.2302 53.9316 68.289 53.9195 68.3434 53.8955C68.3947 53.8727 68.4412 53.8403 68.4804 53.8003C68.6348 53.6318 68.6348 53.3732 68.4804 53.2047C68.4412 53.1645 68.3948 53.1322 68.3434 53.1094C68.289 53.0857 68.2302 53.0735 68.1707 53.0737C68.1114 53.074 68.0527 53.0862 67.998 53.1094C67.9445 53.1314 67.8959 53.1638 67.8551 53.2047C67.7007 53.3732 67.7007 53.6318 67.8551 53.8003C67.896 53.8411 67.9446 53.8735 67.998 53.8955C68.0581 53.9214 68.1232 53.9337 68.1886 53.9313H68.1707ZM68.2065 53.2226C68.2621 53.2199 68.3169 53.2367 68.3613 53.2702C68.3983 53.3008 68.4183 53.3474 68.4149 53.3953C68.4166 53.4353 68.4015 53.4742 68.3732 53.5025C68.3387 53.5338 68.2947 53.5527 68.2482 53.5561L68.4209 53.7526H68.2839L68.1231 53.5561H68.0695V53.7526H67.9564V53.2285L68.2065 53.2226ZM68.0755 53.3238V53.4668H68.2065C68.2298 53.4737 68.2546 53.4737 68.2779 53.4668C68.2864 53.4499 68.2864 53.43 68.2779 53.4132C68.2864 53.3963 68.2864 53.3764 68.2779 53.3596C68.2546 53.3526 68.2298 53.3526 68.2065 53.3596L68.0755 53.3238ZM61.5246 50.906C61.5797 49.9714 62.3717 49.2522 63.3073 49.2873C64.2428 49.3225 64.9787 50.0989 64.9636 51.035C64.9484 51.9711 64.1878 52.7234 63.2516 52.7283C62.7749 52.7343 62.3174 52.541 61.9894 52.195C61.6615 51.8489 61.493 51.3817 61.5246 50.906ZM19.7003 50.906V48.0593H18.4616V48.7501C18.0348 48.201 17.3699 47.8907 16.675 47.9164C15.0304 47.9164 13.6973 49.2495 13.6973 50.894C13.6973 52.5386 15.0304 53.8717 16.675 53.8717C17.3699 53.8974 18.0348 53.5871 18.4616 53.038V53.7288H19.7003V50.906ZM15.0908 50.906C15.1459 49.9714 15.938 49.2522 16.8735 49.2873C17.8091 49.3225 18.5449 50.0989 18.5298 51.035C18.5147 51.9711 17.7541 52.7234 16.8179 52.7283C16.3391 52.7377 15.8784 52.5458 15.5478 52.1994C15.2172 51.853 15.0471 51.3838 15.0789 50.906H15.0908Z" fill="white"/>
<path d="M67.4203 35.1023V34.1735H67.7002V33.9813H66.9916V34.1735H67.2953V35.1023H67.4203ZM68.796 35.1023V33.9813H68.5816L68.3315 34.7821L68.0814 33.9813H67.8908V35.1023H68.0457V34.2616L68.2779 34.9902H68.4387L68.671 34.2616V35.1104L68.796 35.1023Z" fill="white"/>
<path d="M33.0837 38.8996C33.2529 39.0413 33.4338 39.1831 33.6117 39.3219C30.1788 41.587 26.0575 42.9032 21.6329 42.9032C9.68333 42.9061 0 33.302 0 21.4531C0 9.60701 9.68333 0 21.63 0C26.0575 0 30.1787 1.31912 33.6029 3.5813C33.4279 3.72883 33.2529 3.86479 33.1217 4.01522C28 8.40361 25.0688 14.7649 25.0688 21.4531C25.0688 28.1383 27.9883 34.4996 33.0837 38.8996ZM48.37 0C43.9367 0 39.8212 1.31912 36.3971 3.5813C36.5721 3.72883 36.7471 3.86479 36.8783 4.01522C42 8.40361 44.9312 14.7649 44.9312 21.4531C44.9312 28.1354 42.0117 34.4909 36.9163 38.8996C36.7471 39.0413 36.5662 39.1831 36.3883 39.3219C39.8213 41.587 43.9367 42.9032 48.3671 42.9032C60.3167 42.9061 70 33.302 70 21.4531C70 9.60991 60.3167 0 48.37 0ZM35 4.59956C34.72 4.81652 34.4487 5.03349 34.1833 5.2678C29.6217 9.19913 26.7429 14.9876 26.7429 21.4531C26.7429 27.9214 29.6217 33.707 34.1833 37.6383C34.4458 37.8697 34.7229 38.0954 35 38.3095C35.28 38.0954 35.5513 37.8697 35.8167 37.6383C40.3754 33.707 43.2571 27.9214 43.2571 21.4531C43.2571 14.9876 40.3783 9.19913 35.8167 5.2678C35.5542 5.03638 35.28 4.81652 35 4.59956Z" fill="white"/>
</svg>
