<svg width="100" height="38" viewBox="0 0 100 38" fill="none" xmlns="http://www.w3.org/2000/svg">
<g clip-path="url(#clip0_2035_2854)">
<mask id="mask0_2035_2854" style="mask-type:luminance" maskUnits="userSpaceOnUse" x="0" y="0" width="100" height="38">
<path d="M100 0H0V37.5H100V0Z" fill="white"/>
</mask>
<g mask="url(#mask0_2035_2854)">
<path d="M58.0314 20.0755C58.0314 25.8665 55.1414 29.8172 50.0454 29.8172C47.0135 29.8172 44.717 28.3759 43.5301 25.6092L42.8334 29.4827H38.5759V25.4933V3.96362H43.6848V14.2845C44.9363 11.7751 47.1296 10.4496 50.0454 10.4496C55.1544 10.4496 58.0314 14.4003 58.0314 20.0755ZM52.8966 20.0755C52.8966 16.6781 51.1936 14.6834 48.2779 14.6834C45.3879 14.6834 43.6978 16.6781 43.6978 20.0755C43.6978 23.5758 45.4008 25.5705 48.2779 25.5705C51.1936 25.5705 52.8966 23.5758 52.8966 20.0755Z" fill="white"/>
<path d="M72.0036 29.4827V10.7841H77.1126V29.4827H72.0036Z" fill="white"/>
<path d="M100 20.1527C100 25.8664 97.11 29.8172 92.0142 29.8172C89.0984 29.8172 86.905 28.4917 85.6533 25.9823V35.8527H80.5444V14.7606V10.7712H84.8017L85.4984 14.6448C86.7242 11.8779 88.9692 10.4366 92.0142 10.4366C97.11 10.4495 100 14.4003 100 20.1527ZM94.8525 20.1527C94.8525 16.6909 93.1492 14.6963 90.2334 14.6963C87.3434 14.6963 85.6533 16.6909 85.6533 20.1527C85.6533 23.5887 87.3567 25.5704 90.2334 25.5704C93.1625 25.5704 94.8525 23.5758 94.8525 20.1527Z" fill="white"/>
<path d="M77.4996 8.06888C77.6931 7.65707 77.7963 7.20667 77.7963 6.73052C77.7963 4.94173 76.3384 3.48755 74.5451 3.48755C72.7518 3.48755 71.2939 4.94173 71.2939 6.73052C71.2939 7.20667 71.4101 7.65707 71.5906 8.06888H77.4996Z" fill="white"/>
<path d="M65.1913 25.0557H69.7713V29.4827H67.0749C62.1981 29.4827 60.0822 27.3078 60.0822 21.5168V3.96362H65.1913V21.6583V25.0557Z" fill="white"/>
<path d="M16.9398 0C5.90892 0 0 4.13092 0 14.9408C0 24.5925 4.98 31.9921 16.9398 31.9921C17.2365 31.9921 17.8171 31.9921 17.8171 31.9921C17.8171 33.3948 17.8171 35.1965 17.8171 36.7408C17.8171 37.1268 18.1267 37.4872 18.5912 37.4872C18.9524 37.4872 19.0556 37.3456 19.3523 37.1011C21.4553 35.2866 27.6738 29.6628 27.6738 29.6628C30.7703 26.7158 33.8795 23.2155 33.8795 14.9408C33.8666 4.13092 27.9577 0 16.9398 0Z" fill="white"/>
</g>
</g>
<defs>
<clipPath id="clip0_2035_2854">
<rect width="100" height="37.5" fill="white"/>
</clipPath>
</defs>
</svg>
