<svg width="160" height="20" viewBox="0 0 160 20" fill="none" xmlns="http://www.w3.org/2000/svg">
<g clip-path="url(#clip0_2035_2804)">
<path d="M94.4036 1.23999C90.0238 1.23999 86.4669 4.07237 86.4669 9.04536C86.4669 14.0184 90.0238 16.8507 94.4036 16.8507H107.118C111.498 16.8507 115.307 14.0184 115.307 9.04536C115.307 4.07237 111.498 1.23999 107.118 1.23999H94.4036Z" fill="#C3C3C3"/>
<path d="M10.1665 10.5982C9.82137 10.5982 9.52939 10.7027 9.30375 10.8984C9.09141 11.0812 8.86578 11.3161 8.60039 11.5772C8.33493 11.8643 7.98983 12.1123 7.56516 12.3081C7.14041 12.5039 6.63607 12.6083 6.0521 12.6083C5.09651 12.6083 4.2869 12.2559 3.66311 11.5772C3.02605 10.8853 2.70752 10.037 2.70752 9.03193C2.70752 8.03994 3.02605 7.19153 3.66311 6.49975C4.2869 5.80797 5.09651 5.46861 6.0521 5.46861C6.5299 5.46861 6.96788 5.54692 7.33952 5.71661C7.71115 5.87324 8.01636 6.05597 8.24199 6.2387C8.54727 6.49975 8.81273 6.74775 9.01177 6.98269C9.2374 7.23069 9.55598 7.36121 9.96736 7.36121C10.2726 7.36121 10.5381 7.25679 10.7239 7.04796C10.923 6.83912 11.0159 6.57807 11.0159 6.26481C11.0159 5.9907 10.9362 5.71661 10.777 5.4425C10.6177 5.18145 10.4054 4.90735 10.1399 4.65935C9.68868 4.21557 9.10471 3.824 8.40128 3.48463C7.69785 3.14527 6.90152 2.97559 5.99901 2.97559C4.31345 2.97559 2.88006 3.576 1.73865 4.75072C0.583974 5.92545 0 7.36121 0 9.01888C0 10.6896 0.583975 12.1254 1.72538 13.3001C2.86679 14.4748 4.31345 15.0622 5.99901 15.0622C6.87498 15.0622 7.67132 14.9055 8.37476 14.6184C9.07819 14.3182 9.64885 13.9527 10.0868 13.522C10.4186 13.2218 10.6708 12.8954 10.8699 12.5822C11.0689 12.269 11.1619 11.9426 11.1619 11.6294C11.1619 11.3422 11.0689 11.0942 10.8699 10.8984C10.6841 10.7027 10.4452 10.5982 10.1665 10.5982Z" fill="white"/>
<path d="M19.1112 2.97559C17.4256 2.97559 16.0055 3.576 14.8641 4.75072C13.7227 5.92545 13.152 7.36121 13.152 9.01888C13.152 10.6896 13.7227 12.1254 14.8641 13.3001C16.0055 14.4748 17.4256 15.0622 19.1112 15.0622C20.81 15.0622 22.2434 14.4617 23.3716 13.3001C24.513 12.1254 25.0836 10.6896 25.0836 9.01888C25.0836 7.37427 24.513 5.93849 23.3716 4.75072C22.2434 3.576 20.7967 2.97559 19.1112 2.97559ZM16.762 6.43449C17.3725 5.72966 18.1556 5.37724 19.0979 5.37724C20.0535 5.37724 20.8498 5.72966 21.4603 6.43449C22.0709 7.13932 22.3762 8.01384 22.3762 9.01888C22.3762 10.0239 22.0709 10.9115 21.4603 11.6163C20.8498 12.3211 20.0535 12.6866 19.0979 12.6866C18.1556 12.6866 17.3593 12.3342 16.762 11.6163C16.1515 10.9115 15.8462 10.037 15.8462 9.01888C15.8462 8.00079 16.1515 7.13932 16.762 6.43449Z" fill="white"/>
<path d="M41.8073 2.97559C40.9182 2.97559 40.1218 3.19748 39.445 3.64126C38.8079 4.05894 38.3301 4.54188 38.0116 5.10314C37.6399 4.45052 37.1355 3.94147 36.4852 3.56295C35.8083 3.17137 34.9988 2.97559 34.0697 2.97559C33.2866 2.97559 32.5832 3.15832 31.986 3.53684C31.4551 3.86315 31.0437 4.25473 30.7649 4.69851L30.7251 4.25473C30.6853 3.8501 30.5393 3.53684 30.3004 3.31495C30.0615 3.09306 29.743 2.97559 29.3846 2.97559C29.013 2.97559 28.7078 3.10611 28.4821 3.34106C28.2432 3.58905 28.1238 3.90231 28.1238 4.26778V13.7961C28.1238 14.1485 28.2565 14.4487 28.5352 14.6967C28.8007 14.9447 29.1325 15.0622 29.5174 15.0622C29.9022 15.0622 30.2208 14.9447 30.4995 14.6967C30.7649 14.4487 30.9109 14.1485 30.9109 13.7961V8.5751C30.9109 7.59616 31.1631 6.79996 31.6542 6.18649C32.1452 5.58608 32.8088 5.27282 33.6317 5.27282C34.3219 5.27282 34.8793 5.52082 35.2642 6.02987C35.6623 6.53891 35.8614 7.24375 35.8614 8.13131V13.8091C35.8614 14.1616 35.9941 14.4617 36.2729 14.7098C36.5384 14.9577 36.8702 15.0752 37.255 15.0752C37.6399 15.0752 37.9584 14.9577 38.2371 14.7098C38.5026 14.4617 38.6486 14.1616 38.6486 13.8091V8.5751C38.6486 7.59616 38.9007 6.79996 39.3918 6.18649C39.8829 5.58608 40.5465 5.27282 41.3694 5.27282C42.0596 5.27282 42.617 5.52082 43.0019 6.02987C43.4 6.53891 43.5991 7.24375 43.5991 8.13131V13.8091C43.5991 14.1616 43.7318 14.4617 44.0106 14.7098C44.276 14.9577 44.6078 15.0752 44.9927 15.0752C45.3776 15.0752 45.6961 14.9577 45.9748 14.7098C46.2403 14.4617 46.3862 14.1616 46.3862 13.8091V7.73974C46.3862 6.29091 45.9748 5.12924 45.152 4.26778C44.2893 3.41937 43.1744 2.97559 41.8073 2.97559Z" fill="white"/>
<path d="M56.0097 2.97559C55.2399 2.97559 54.5232 3.13222 53.8729 3.43242C53.2624 3.70652 52.7315 4.11115 52.3068 4.60715L52.2802 4.42441C52.2537 4.08505 52.1342 3.79789 51.9484 3.6021C51.7493 3.39327 51.4706 3.28885 51.099 3.28885C50.7274 3.28885 50.4354 3.39327 50.223 3.61516C50.0107 3.83705 49.9045 4.11115 49.9045 4.45052V17.9728C49.9045 18.3253 50.0372 18.6124 50.2894 18.8474C50.5416 19.0823 50.8734 19.1998 51.245 19.1998C51.6299 19.1998 51.9484 19.0823 52.1873 18.8474C52.4395 18.6124 52.5589 18.3253 52.5589 17.9728V13.6395C52.9836 14.0832 53.488 14.4356 54.0454 14.6706C54.6559 14.9316 55.3063 15.0752 55.9699 15.0752C57.5492 15.0752 58.9031 14.4748 59.9781 13.3001C61.0531 12.1254 61.5973 10.6766 61.5973 9.00583C61.5973 7.30901 61.0531 5.87324 59.9913 4.72461C58.9429 3.56295 57.6024 2.97559 56.0097 2.97559ZM58.9031 9.00583C58.9031 10.037 58.5978 10.9115 57.9873 11.6033C57.3767 12.2951 56.5937 12.6475 55.6514 12.6475C54.6825 12.6475 53.8596 12.2951 53.2225 11.6033C52.5855 10.9115 52.2537 10.037 52.2537 9.03193C52.2537 7.98773 52.5722 7.11322 53.2093 6.43449C53.8463 5.75576 54.6692 5.40335 55.6381 5.40335C56.5804 5.40335 57.3767 5.74271 57.974 6.42144C58.5845 7.11322 58.9031 7.97468 58.9031 9.00583Z" fill="white"/>
<path d="M70.4493 2.97559C69.6795 2.97559 68.9894 3.19748 68.4054 3.61516C67.8878 3.99368 67.4896 4.42441 67.2242 4.90735L67.1445 4.16336C67.1047 3.77179 66.972 3.48463 66.7464 3.27579C66.5208 3.06695 66.242 2.97559 65.9235 2.97559C65.5253 2.97559 65.2068 3.10611 64.9812 3.34106C64.7556 3.58905 64.6361 3.91536 64.6361 4.31999V13.7961C64.6361 14.1485 64.7688 14.4487 65.0475 14.6967C65.313 14.9447 65.6448 15.0622 66.0297 15.0622C66.4146 15.0622 66.7331 14.9447 67.0118 14.6967C67.2773 14.4487 67.4233 14.1485 67.4233 13.7961V8.5751C67.4233 7.57005 67.6622 6.82606 68.1532 6.35617C68.631 5.88628 69.215 5.63829 69.8919 5.63829C70.0246 5.63829 70.1706 5.65134 70.3033 5.6644C70.4493 5.67745 70.582 5.6905 70.728 5.6905C71.1262 5.6905 71.4447 5.55998 71.6969 5.29893C71.949 5.03787 72.0685 4.71156 72.0685 4.31999C72.0685 3.92842 71.9358 3.61516 71.6571 3.36716C71.3916 3.10611 70.9802 2.97559 70.4493 2.97559Z" fill="white"/>
<path d="M83.3352 2.97559C82.9769 2.97559 82.6849 3.08001 82.446 3.3019C82.2071 3.52379 82.0744 3.81094 82.0478 4.16336L82.0213 4.47662C81.5966 4.01978 81.1055 3.65431 80.5216 3.39326C79.911 3.11916 79.2342 2.97559 78.5307 2.97559C76.9779 2.97559 75.6507 3.576 74.5889 4.75072C73.5271 5.92545 72.9962 7.36121 72.9962 9.01888C72.9962 10.6896 73.5271 12.1254 74.5756 13.2871C75.6241 14.4617 76.9513 15.0622 78.5042 15.0622C79.2076 15.0622 79.8845 14.9186 80.495 14.6576C81.0657 14.4095 81.57 14.0441 82.008 13.5742L82.0346 13.9266C82.0611 14.2921 82.1938 14.5662 82.4328 14.762C82.6716 14.9577 82.9769 15.0622 83.3352 15.0622C83.7069 15.0622 83.9988 14.9447 84.198 14.7228C84.4103 14.5009 84.5032 14.2138 84.5032 13.8613V4.20252C84.5032 3.83705 84.3971 3.54989 84.1714 3.31495C83.9856 3.09306 83.6936 2.97559 83.3352 2.97559ZM82.2204 8.97972C82.2204 10.0109 81.9018 10.8984 81.2648 11.6163C80.641 12.3342 79.8314 12.6866 78.8891 12.6866C77.96 12.6866 77.1902 12.3342 76.593 11.6163C75.9957 10.9115 75.6905 10.037 75.6905 9.01888C75.6905 8.00079 75.9957 7.12627 76.593 6.43449C77.1902 5.72966 77.96 5.37724 78.8891 5.37724C79.8314 5.37724 80.6277 5.72966 81.2648 6.43449C81.9018 7.13932 82.2204 8.00079 82.2204 8.97972Z" fill="white"/>
<path d="M112.389 10.5982C112.044 10.5982 111.752 10.7027 111.527 10.8984C111.314 11.0812 111.089 11.3161 110.823 11.5772C110.558 11.8643 110.213 12.1123 109.788 12.3081C109.363 12.5039 108.859 12.6083 108.275 12.6083C107.319 12.6083 106.51 12.2559 105.886 11.5772C105.249 10.8853 104.93 10.037 104.93 9.03193C104.93 8.03994 105.249 7.19153 105.886 6.49975C106.51 5.80797 107.319 5.46861 108.275 5.46861C108.753 5.46861 109.191 5.54692 109.562 5.71661C109.934 5.87324 110.239 6.05597 110.465 6.2387C110.77 6.49975 111.036 6.74775 111.235 6.98269C111.46 7.23069 111.779 7.36121 112.19 7.36121C112.496 7.36121 112.761 7.25679 112.947 7.04796C113.146 6.83912 113.239 6.57807 113.239 6.26481C113.239 5.9907 113.159 5.71661 113 5.4425C112.841 5.18145 112.628 4.90735 112.363 4.65935C111.912 4.21557 111.328 3.824 110.624 3.48463C109.921 3.14527 109.124 2.97559 108.222 2.97559C106.536 2.97559 105.103 3.576 103.962 4.75072C102.807 5.92545 102.223 7.36121 102.223 9.01888C102.223 10.6896 102.807 12.1254 103.948 13.3001C105.09 14.4748 106.536 15.0622 108.222 15.0622C109.098 15.0622 109.894 14.9055 110.598 14.6184C111.301 14.3182 111.872 13.9527 112.31 13.522C112.642 13.2218 112.894 12.8954 113.093 12.5822C113.292 12.269 113.385 11.9426 113.385 11.6294C113.385 11.3422 113.292 11.0942 113.093 10.8984C112.92 10.7027 112.668 10.5982 112.389 10.5982Z" fill="white"/>
<path d="M126.815 9.48877C127.094 9.21466 127.24 8.79698 127.24 8.27489C127.24 6.79996 126.749 5.53387 125.78 4.51577C124.811 3.49768 123.524 2.97559 121.958 2.97559C120.365 2.97559 118.998 3.56295 117.897 4.72461C116.795 5.88628 116.238 7.34817 116.238 9.05803C116.238 10.8201 116.808 12.282 117.936 13.3914C119.065 14.5009 120.564 15.0622 122.383 15.0622C122.86 15.0622 123.444 14.9969 124.121 14.8794C124.798 14.762 125.395 14.5792 125.913 14.3312C126.285 14.1485 126.577 13.9527 126.789 13.7308C127.001 13.5089 127.107 13.2218 127.107 12.8693C127.107 12.5953 127.015 12.3603 126.815 12.1776C126.616 11.9948 126.377 11.9034 126.099 11.9034C125.86 11.9034 125.648 11.9557 125.448 12.0601C125.263 12.1515 125.01 12.2559 124.705 12.3472C124.466 12.4255 124.174 12.5039 123.829 12.5561C123.484 12.6214 123.059 12.6475 122.582 12.6475C121.546 12.6475 120.71 12.3994 120.1 11.9165C119.502 11.4466 119.118 10.7679 118.972 9.9195H125.608C126.125 9.9195 126.537 9.77592 126.815 9.48877ZM121.905 5.29893C122.701 5.29893 123.351 5.52082 123.856 5.95155C124.334 6.36923 124.612 6.99575 124.679 7.77889H119.038C119.211 7.00879 119.542 6.39533 120.033 5.9646C120.538 5.52082 121.162 5.29893 121.905 5.29893Z" fill="white"/>
<path d="M135.88 2.97559C135.111 2.97559 134.42 3.19748 133.836 3.61516C133.319 3.99368 132.921 4.42441 132.655 4.90735L132.576 4.16336C132.536 3.77179 132.403 3.48463 132.177 3.27579C131.952 3.06695 131.673 2.97559 131.355 2.97559C130.956 2.97559 130.638 3.10611 130.412 3.34106C130.187 3.58905 130.067 3.91536 130.067 4.31999V13.7961C130.067 14.1485 130.2 14.4487 130.479 14.6967C130.744 14.9447 131.076 15.0622 131.461 15.0622C131.846 15.0622 132.164 14.9447 132.443 14.6967C132.708 14.4487 132.854 14.1485 132.854 13.7961V8.5751C132.854 7.57005 133.093 6.82606 133.584 6.35617C134.062 5.88628 134.646 5.63829 135.323 5.63829C135.456 5.63829 135.602 5.65134 135.734 5.6644C135.88 5.67745 136.013 5.6905 136.159 5.6905C136.557 5.6905 136.876 5.55998 137.128 5.29893C137.38 5.03787 137.5 4.71156 137.5 4.31999C137.5 3.92842 137.367 3.61516 137.088 3.36716C136.823 3.10611 136.411 2.97559 135.88 2.97559Z" fill="white"/>
<path d="M146.089 12.2821C145.97 12.2821 145.863 12.2952 145.757 12.3082C145.664 12.3343 145.571 12.3474 145.505 12.3604C145.359 12.3996 145.226 12.4387 145.094 12.4779C144.961 12.5171 144.802 12.5301 144.616 12.5301C144.151 12.5301 143.78 12.3996 143.541 12.1386C143.289 11.8775 143.169 11.499 143.169 11.003V5.69063H145.187C145.571 5.69063 145.89 5.57316 146.129 5.35127C146.381 5.12938 146.5 4.81612 146.5 4.45065C146.5 4.07213 146.368 3.78497 146.116 3.58918C145.863 3.3934 145.545 3.30203 145.173 3.30203H143.156V1.305C143.156 0.926483 143.023 0.613222 142.784 0.365225C142.532 0.117228 142.2 -0.000244141 141.789 -0.000244141C141.377 -0.000244141 141.046 0.13028 140.793 0.365225C140.541 0.60017 140.422 0.926483 140.422 1.305V3.28898H140.103C139.718 3.28898 139.413 3.3934 139.161 3.60224C138.909 3.81108 138.776 4.09823 138.776 4.4637C138.776 4.82917 138.909 5.12938 139.148 5.35127C139.4 5.57316 139.718 5.69063 140.09 5.69063H140.409V11.1205C140.409 12.3474 140.767 13.3263 141.457 14.0181C142.147 14.723 143.129 15.0754 144.35 15.0754C144.735 15.0754 145.094 15.0362 145.412 14.9709C145.731 14.9056 146.009 14.8143 146.235 14.6969C146.554 14.5533 146.792 14.3574 146.965 14.1225C147.138 13.8876 147.217 13.6266 147.217 13.3524C147.217 13.0522 147.111 12.7912 146.899 12.5824C146.713 12.3865 146.434 12.2821 146.089 12.2821Z" fill="white"/>
<path d="M159.691 3.31495C159.465 3.09306 159.173 2.97559 158.828 2.97559C158.47 2.97559 158.178 3.08001 157.939 3.3019C157.7 3.52379 157.567 3.81094 157.541 4.16336L157.514 4.47662C157.09 4.01978 156.599 3.65431 156.015 3.39326C155.404 3.11916 154.727 2.97559 154.024 2.97559C152.471 2.97559 151.144 3.576 150.082 4.75072C149.02 5.92545 148.489 7.36121 148.489 9.01888C148.489 10.6896 149.02 12.1254 150.069 13.2871C151.117 14.4617 152.444 15.0622 153.997 15.0622C154.701 15.0622 155.378 14.9186 155.988 14.6576C156.559 14.4095 157.063 14.0441 157.501 13.5742L157.528 13.9266C157.554 14.2921 157.687 14.5662 157.926 14.762C158.165 14.9577 158.47 15.0622 158.828 15.0622C159.2 15.0622 159.492 14.9447 159.691 14.7228C159.903 14.5009 159.996 14.2138 159.996 13.8613V4.20252C160.023 3.83705 159.917 3.54989 159.691 3.31495ZM157.713 8.97972C157.713 10.0109 157.395 10.8984 156.758 11.6163C156.134 12.3342 155.324 12.6866 154.382 12.6866C153.453 12.6866 152.683 12.3342 152.086 11.6163C151.489 10.9115 151.184 10.037 151.184 9.01888C151.184 8.00079 151.489 7.12627 152.086 6.43449C152.683 5.72966 153.453 5.37724 154.382 5.37724C155.324 5.37724 156.121 5.72966 156.758 6.43449C157.395 7.13932 157.713 8.00079 157.713 8.97972Z" fill="white"/>
</g>
<defs>
<clipPath id="clip0_2035_2804">
<rect width="160" height="19.2" fill="white"/>
</clipPath>
</defs>
</svg>
