<svg width="153" height="32" viewBox="0 0 153 32" fill="none" xmlns="http://www.w3.org/2000/svg">
<g clip-path="url(#clip0_2035_2820)">
<path fill-rule="evenodd" clip-rule="evenodd" d="M11.0977 0C14.7501 0 17.9896 1.76474 20.0121 4.48772C21.3093 6.23433 22.1029 8.37536 22.1954 10.6979V11.0977C22.1954 13.3607 21.5242 15.4698 20.3609 17.224L10.8386 31.7531C10.7375 31.9072 10.5658 32 10.3816 32H2.82712C2.46339 32 2.24518 31.5961 2.44448 31.2919L8.5945 21.9084C3.6716 20.7729 0 16.3654 0 11.0977L0.0102291 10.6979C0.0922128 8.3814 0.882449 6.24549 2.17373 4.50151C4.19543 1.77079 7.43928 0 11.0977 0ZM11.0977 14.7651C12.4268 14.7651 13.6029 14.1235 14.3436 13.1364L14.6534 12.6638C14.9742 12.0827 15.1577 11.4156 15.1574 10.6979C15.1535 8.45904 13.3376 6.64516 11.0977 6.64516C8.85779 6.64516 7.04206 8.45904 7.03772 10.705C7.03772 12.9474 8.85547 14.7651 11.0977 14.7651Z" fill="white"/>
<path fill-rule="evenodd" clip-rule="evenodd" d="M43.9592 4.48772C41.9369 1.76474 38.6973 0 35.045 0C31.3865 0 28.1425 1.77079 26.121 4.50151C24.8297 6.24549 24.0394 8.3814 23.9573 10.6979L23.9472 11.0977C23.9472 16.3654 27.6188 20.7729 32.5417 21.9084L26.3917 31.2919C26.1924 31.5961 26.4106 32 26.7742 32H34.3288C34.5129 32 34.6846 31.9072 34.7857 31.7531L44.308 17.224C45.4715 15.4698 46.1427 13.3607 46.1427 11.0977V10.6979C46.0502 8.37536 45.2564 6.23433 43.9592 4.48772ZM35.0449 14.7651C36.374 14.7651 37.5502 14.1235 38.2908 13.1365L38.6006 12.6638C38.9212 12.0828 39.1049 11.4156 39.1046 10.6979C39.1007 8.45904 37.2848 6.64517 35.0449 6.64517C32.805 6.64517 30.9893 8.45904 30.9848 10.705C30.9848 12.9474 32.8027 14.7651 35.0449 14.7651Z" fill="white"/>
</g>
<path d="M105.594 7.17721H111.054C116.549 7.17721 120.918 10.5561 120.918 16.2558C120.918 22.4674 117.164 25.6414 111.054 25.6414H105.594V7.17721ZM108.222 23.3206H110.986C115.526 23.3206 118.051 21.1363 118.051 16.3581C118.051 12.0578 115.116 9.4982 111.293 9.4982H108.188V23.3206H108.222ZM127.061 9.1227H124.263V6.32391H127.061V9.1227ZM124.399 12.1603H126.891V25.6756H124.399V12.1603ZM131.532 7.17721H136.993C142.488 7.17721 146.857 10.5561 146.857 16.2558C146.857 22.4674 143.102 25.6414 136.993 25.6414H131.532V7.17721ZM134.194 23.3206H136.959C141.498 23.3206 144.024 21.1363 144.024 16.3581C144.024 12.0578 141.089 9.4982 137.266 9.4982H134.16V23.3206H134.194ZM153 9.1227H150.201V6.32391H153V9.1227ZM150.372 12.1603H152.863V25.6756H150.372V12.1603Z" fill="white"/>
<path fill-rule="evenodd" clip-rule="evenodd" d="M81.0205 24.1399C87.1638 23.9352 92.0103 19.0546 92.0785 13.0137V7.79185H98.8361V13.5598C98.6997 22.9454 90.5427 30.3175 81.0205 30.5222C71.3276 30.4539 63.1024 23.0137 63 13.5598V3.21836C63 2.16061 63.6826 1.47784 64.7066 1.47784H92.0785V7.79185H70.6109C70.0649 7.79185 69.7234 8.13317 69.7234 8.67933V12.9112C69.7918 19.0204 74.7407 24.0718 81.0205 24.1399Z" fill="white"/>
<defs>
<clipPath id="clip0_2035_2820">
<rect width="47" height="32" fill="white"/>
</clipPath>
</defs>
</svg>
