<svg width="90" height="23" viewBox="0 0 90 23" fill="none" xmlns="http://www.w3.org/2000/svg">
<path fill-rule="evenodd" clip-rule="evenodd" d="M45.2635 17.78C40.3485 17.78 37.4475 14.66 37.4475 10.2259V0.472272H41.9527V10.3578C41.9527 11.3102 42.2945 13.5762 45.2635 13.5762C47.2432 13.5762 48.6763 12.2299 48.6763 10.3578V0.472272H53.1818V10.2259C53.1818 14.5291 50.0414 17.78 45.2635 17.78ZM63.0868 17.78C58.6136 17.78 55.3015 15.5079 54.7552 11.853H59.3307C59.9453 13.3025 61.7551 13.8289 63.0868 13.8289C64.8967 13.8289 66.2628 13.3025 66.2628 12.3143C66.2628 11.3598 65.6481 10.9643 62.575 10.5033C59.4337 10.0423 55.2334 9.21958 55.2334 5.43266C55.2334 2.76617 57.6573 0.000244141 62.7456 0.000244141C66.7746 0.000244141 69.7797 2.10753 70.36 5.30127H65.6819C65.4087 4.5111 64.4184 3.88566 62.7456 3.88566C60.6623 3.88566 59.8091 4.60975 59.8091 5.23535C59.8091 6.12433 61.1065 6.42061 63.2917 6.74993C67.6627 7.44129 70.8042 8.36332 70.8042 12.0508C70.8042 15.4096 67.5944 17.78 63.0868 17.78ZM81.0506 3.81942C83.2031 3.81942 84.9118 5.07077 85.4586 7.04652H76.7103C77.3597 5.07077 78.9998 3.81942 81.0506 3.81942ZM84.7753 11.985C84.0232 13.3349 82.5539 13.9603 81.0506 13.9603C78.9319 13.9603 77.2231 12.6767 76.6424 10.6021H89.935C90.5843 3.88566 86.2788 0.000244141 81.0845 0.000244141C76.1293 0.000244141 72.0629 4.0172 72.0629 8.92299C72.0629 13.8289 76.1294 17.78 81.0843 17.78C84.6623 17.78 87.3933 16.2157 88.8303 13.7543L84.7753 11.985ZM12.1135 17.78H7.71199V11.884L0 0.472272H4.93159L9.89591 7.53365L14.8941 0.472272H19.8252L12.1135 11.884V17.78Z" fill="white"/>
<path fill-rule="evenodd" clip-rule="evenodd" d="M31.4752 8.95575C31.4752 6.02556 29.5229 3.98404 27.1247 3.98404C24.7263 3.98404 22.7737 6.02556 22.7737 8.95575C22.7737 11.8206 24.7263 13.7956 27.1247 13.7956C29.5229 13.7956 31.4752 11.8206 31.4752 8.95575ZM36.0315 8.92271C36.0315 13.9935 32.0234 17.7798 27.1247 17.7798C22.2257 17.7798 18.2518 13.9934 18.2518 8.92286C18.2518 3.85234 22.2257 0.00012207 27.1247 0.00012207C32.0234 0.00012207 36.0315 3.85218 36.0315 8.92271ZM36.0315 22.9721C36.0315 20.7887 34.2714 19.5106 32.1007 19.5106H22.183C20.0117 19.5106 18.2518 20.7887 18.2518 22.9721H36.0315Z" fill="white"/>
</svg>
