<svg width="133" height="17" viewBox="0 0 133 17" fill="none" xmlns="http://www.w3.org/2000/svg">
<path d="M29.6688 8.03753L25.7452 0.00346535H19.8115V16.0716H25.7452V8.03753L29.6688 16.0716L33.5923 8.03753V16.0716H39.5261V0.00332674H33.5923L29.6688 8.03753ZM46.0454 0.00346535L41.4299 16.0716H47.3637L48.121 13.4347H54.4533L55.2107 16.0715H61.1445L56.529 0.00346535H46.0454ZM48.8784 10.798L51.2872 2.40994L53.6959 10.798H48.8784ZM74.1398 0.0105347H63.0354V16.0715H68.9669V9.37918H74.1398C76.7263 9.37918 78.823 7.28126 78.823 4.69486C78.823 2.10846 76.7262 0.0105347 74.1398 0.0105347ZM70.3554 6.65846H69.0686V1.84994H70.3554C71.6924 1.84994 72.9921 2.56644 72.9921 4.02272C72.9921 5.479 71.8455 6.65819 70.3554 6.65819M80.8811 16.0715H86.8138V9.36393H96.6546V6.72611H86.8137V2.64004H96.6546V0.00346535H80.8811V16.0715ZM132.52 2.64004V0.00346535H116.744V16.0716H132.52V13.4346H122.678V9.36407H132.52V6.72625H122.678V2.64004H132.52ZM114.518 4.02397C114.518 1.80683 112.719 0.00817823 110.502 0.00817823H98.7314V16.0715H104.763V9.42021H106.049C107.504 9.42021 108.686 10.6006 108.686 12.0558C108.686 12.0991 108.684 12.1423 108.682 12.1856V16.0716H114.518V12.0557C114.518 12.0113 114.519 11.9681 114.518 11.9236C114.448 9.7673 112.675 8.03989 110.502 8.03989C112.719 8.03989 114.518 6.24234 114.518 4.02397ZM106.049 6.66068H104.763V1.85355H106.049C107.353 1.85355 108.686 2.56769 108.686 4.02397C108.686 5.48024 107.505 6.66068 106.049 6.66068ZM8.03753 0C3.59842 0 0 3.59856 0 8.03753C0 8.3788 0.0221782 8.71425 0.0630694 9.04387C0.558615 13.0082 3.93983 16.0751 8.03753 16.0751C12.1351 16.0751 15.5176 13.007 16.012 9.04373L15.2394 9.04609C14.7485 12.5852 11.7109 15.3095 8.03753 15.3095C4.36412 15.3095 1.32654 12.5852 0.835704 9.04373H0.834456C0.788394 8.71027 0.765376 8.37403 0.765565 8.0374C0.765565 4.02175 4.02161 0.765565 8.03753 0.765565C12.0533 0.765565 15.3095 4.02161 15.3095 8.03753C15.3095 8.37991 15.285 8.71661 15.2394 9.04387H16.0119C16.054 8.71425 16.0751 8.3788 16.0751 8.03753C16.0751 3.59842 12.4764 0 8.03753 0ZM13.3483 8.35773C13.3483 8.29466 13.3413 8.23963 13.333 8.19528C13.2371 7.66134 13.0493 7.14808 12.778 6.67829C12.4974 6.19314 12.0837 5.73044 11.677 5.38917C11.5422 5.28641 11.3865 5.21459 11.2209 5.17882C11.0552 5.14306 10.8837 5.14422 10.7186 5.18222C10.5901 4.8106 10.285 4.49969 9.94251 4.35012C9.33184 4.12857 8.68715 4.01542 8.03753 4.01579C7.37357 4.01579 6.73429 4.13264 6.14185 4.34777C6.09749 4.36412 6.04246 4.3863 5.98522 4.41901C5.83267 4.49882 5.6977 4.60842 5.58827 4.74133C5.47884 4.87423 5.39719 5.02774 5.34815 5.19276C4.99523 5.12969 4.61307 5.23129 4.33959 5.43353C3.9222 5.78452 3.56938 6.20578 3.29707 6.67829C3.02526 7.14784 2.83739 7.66119 2.74192 8.19528C2.73361 8.23963 2.72668 8.29466 2.72668 8.35773C2.71772 8.59967 2.78166 8.83871 2.9102 9.04387H2.91131C3.01398 9.20586 3.15432 9.34059 3.32036 9.43657C3.5189 9.55082 3.74611 9.60558 3.9749 9.59431L6.58943 9.58738C6.77518 9.59431 7.26726 9.59542 7.64359 9.59542V12.058H8.43134V9.59542C8.80892 9.59542 9.29975 9.59431 9.48563 9.58724L12.1 9.59417C12.3288 9.60549 12.556 9.55078 12.7546 9.43657C12.9212 9.34093 13.0621 9.20609 13.1649 9.04373C13.2933 8.8386 13.3572 8.59961 13.3483 8.35773ZM6.79874 8.70011C6.77959 8.7329 6.75149 8.75957 6.71774 8.77697C6.68398 8.79438 6.64597 8.8018 6.60815 8.79839L3.94814 8.80532C3.86662 8.81269 3.78484 8.79431 3.7143 8.75278C3.64856 8.71485 3.59498 8.65899 3.5598 8.59174C3.52463 8.52449 3.50932 8.44861 3.51567 8.37298C3.59509 7.90197 3.74701 7.47532 3.97961 7.07209C4.20628 6.67948 4.49974 6.32944 4.84678 6.03775L4.85967 6.02722C4.92256 5.9794 4.99823 5.95132 5.07709 5.94653C5.15595 5.94174 5.23446 5.96046 5.30268 6.00032C5.37753 6.04357 5.43353 6.10789 5.46735 6.18149L6.79167 8.48983C6.83256 8.55054 6.83714 8.63247 6.7986 8.70025M8.03753 8.80767C7.99092 8.80761 7.94529 8.79428 7.90596 8.76924C7.86664 8.74421 7.83526 8.7085 7.81547 8.66629L6.17221 5.83787C6.11526 5.75496 6.08468 5.65679 6.08446 5.5562C6.08446 5.35868 6.20021 5.18929 6.36724 5.10987C6.91781 4.90527 7.46603 4.80478 8.03753 4.80478C8.6114 4.80478 9.16308 4.90638 9.67263 5.09102L9.69134 5.09933C9.78079 5.13699 9.85712 5.20023 9.91076 5.28112C9.9644 5.36201 9.99295 5.45693 9.99282 5.55399C9.99322 5.65717 9.9609 5.75782 9.90051 5.84147L8.25724 8.671C8.23681 8.71185 8.20547 8.74624 8.16669 8.77036C8.12791 8.79449 8.08321 8.8074 8.03753 8.80767ZM12.3608 8.75278C12.2902 8.79436 12.2085 8.81278 12.1269 8.80546L9.46692 8.79839C9.39207 8.80532 9.31611 8.76914 9.27633 8.70025C9.25786 8.66798 9.24874 8.6312 9.24999 8.59404C9.25124 8.55687 9.2628 8.52079 9.2834 8.48983L10.6076 6.18149C10.6415 6.10789 10.6977 6.04357 10.7724 6.00032C10.8406 5.96043 10.9191 5.94169 10.998 5.94648C11.0768 5.95126 11.1525 5.97936 11.2154 6.02722L11.2282 6.03775C11.5756 6.32912 11.8691 6.67921 12.0955 7.07209C12.3269 7.47545 12.48 7.90197 12.5594 8.37298C12.5657 8.44861 12.5504 8.52449 12.5153 8.59174C12.4801 8.65899 12.4265 8.71485 12.3608 8.75278Z" fill="white"/>
</svg>
