<svg width="90" height="47" viewBox="0 0 90 47" fill="none" xmlns="http://www.w3.org/2000/svg">
<g clip-path="url(#clip0_2035_2840)">
<path d="M82.2197 39.8592C81.3773 39.3854 80.4265 39.138 79.4601 39.1411C77.9439 39.148 76.4854 39.723 75.3724 40.7525C74.2865 41.7493 73.6243 43.1245 73.522 44.595H16.4733C16.371 43.1245 15.7088 41.7493 14.6229 40.7525C13.5104 39.7222 12.0516 39.1471 10.5353 39.1411C9.57092 39.1388 8.6224 39.3862 7.78203 39.8592C5.86825 38.5094 4.31442 36.7112 3.25647 34.6219C2.09077 32.3001 1.49057 29.7356 1.50485 27.1377C1.49938 24.6251 2.0474 22.1421 3.10997 19.8652C4.00637 17.9387 5.31801 16.2345 6.95081 14.8747C7.79035 15.3077 8.72121 15.5337 9.66582 15.5339C11.2678 15.5259 12.806 14.9054 13.9653 13.7998C15.1274 12.7065 15.8087 11.1971 15.8602 9.60231C17.5322 9.49881 19.3029 9.08001 21.1358 8.51471C23.2489 7.86184 25.4209 7.00672 27.5483 6.1341C30.5882 4.89204 33.2474 3.72641 35.9879 2.88404C41.8594 1.04321 48.1535 1.04321 54.0249 2.88404C56.7622 3.72641 59.4231 4.89204 62.4645 6.1341C64.5904 7.00036 66.764 7.86184 68.8755 8.51471C70.7019 9.07683 72.4679 9.49881 74.1415 9.60231C74.1933 11.198 74.8766 12.7078 76.0412 13.7998C77.2007 14.9052 78.7388 15.5255 80.3406 15.5339C81.2826 15.5326 82.2106 15.3066 83.0477 14.8747C84.6819 16.2348 85.9942 17.9403 86.8901 19.8684C87.9534 22.145 88.5015 24.6282 88.4952 27.1408C88.5095 29.7388 87.9093 32.3033 86.7436 34.625C85.6857 36.713 84.1325 38.5101 82.2197 39.8592Z" fill="#070707"/>
<path d="M83.1225 13.0482C79.6193 15.776 74.573 12.4113 75.8342 8.07045C72.479 8.45422 67.6652 6.6373 63.0171 4.74237C56.9915 2.27895 52.2303 0.000244141 44.9992 0.000244141C37.7682 0.000244141 33.0086 2.27895 26.9766 4.74237C22.33 6.6389 17.5163 8.45422 14.1595 8.07045C15.4207 12.4081 10.3728 15.776 6.87117 13.0482C-2.24682 19.4656 -2.64173 35.2859 7.80272 41.6777C10.7614 39.0614 15.8299 41.7319 14.8554 46.0982H75.1383C74.1654 41.7319 79.2339 39.0614 82.191 41.6777C92.6434 35.2859 92.2485 19.4656 83.1225 13.0482ZM82.2133 39.8592C81.3728 39.3865 80.4243 39.1391 79.46 39.1411C77.9439 39.148 76.4854 39.723 75.3724 40.7526C74.2865 41.7493 73.6243 43.1245 73.522 44.595H16.4733C16.371 43.1245 15.7088 41.7493 14.6229 40.7526C13.5104 39.7222 12.0516 39.1471 10.5353 39.1411C9.5709 39.1388 8.62239 39.3862 7.78202 39.8592C5.86824 38.5094 4.3144 36.7112 3.25646 34.6219C2.09076 32.3001 1.49056 29.7356 1.50484 27.1377C1.49937 24.6251 2.04739 22.1421 3.10996 19.8652C4.00636 17.9387 5.318 16.2345 6.95079 14.8747C7.79033 15.3077 8.7212 15.5337 9.66581 15.534C11.2678 15.5259 12.806 14.9055 13.9652 13.7999C15.1273 12.7065 15.8087 11.1971 15.8602 9.60232C17.5322 9.49882 19.3029 9.08002 21.1358 8.51473C23.2488 7.86185 25.4209 7.00674 27.5483 6.13411C30.5882 4.89205 33.2474 3.72642 35.9879 2.88405C41.8593 1.04322 48.1535 1.04322 54.0249 2.88405C56.7622 3.72642 59.4231 4.89205 62.4645 6.13411C64.5903 7.00037 66.7639 7.86185 68.8755 8.51473C70.7019 9.07684 72.4679 9.49882 74.1415 9.60232C74.1933 11.198 74.8766 12.7078 76.0412 13.7999C77.2006 14.9052 78.7387 15.5255 80.3406 15.534C81.2826 15.5326 82.2106 15.3066 83.0477 14.8747C84.6819 16.2348 85.9942 17.9403 86.8901 19.8684C87.9534 22.145 88.5015 24.6282 88.4952 27.1409C88.5095 29.7388 87.9093 32.3033 86.7436 34.6251C85.6857 36.713 84.1324 38.5101 82.2196 39.8592H82.2133Z" fill="white"/>
<path fill-rule="evenodd" clip-rule="evenodd" d="M39.582 24.3239C39.582 24.3239 39.5437 22.7092 39.5246 22.3318C36.2188 22.2745 32.9736 22.0914 32.9736 22.0914L32.757 24.0612C33.0007 23.8709 33.3073 23.7799 33.6153 23.8064L34.773 23.8733C34.773 23.8733 34.7443 32.6887 34.7443 33.2444C34.7443 33.8002 34.6886 34.2524 34.2666 34.6378C35.558 34.5534 37.5644 34.4117 37.988 34.3846C37.6775 34.0454 37.574 33.4801 37.574 33.0279V23.9847C37.574 23.9847 38.2985 23.9847 38.6886 24.0134C39.332 24.0612 39.582 24.3239 39.582 24.3239ZM40.5422 22.3605C42.8065 22.4736 43.8257 22.4401 45.2843 22.4115C46.4754 22.3892 47.8751 23.2331 47.8751 24.6726C47.8751 26.2236 46.7397 27.2029 45.5518 27.4896C45.5358 27.493 45.5214 27.5018 45.5111 27.5146C45.5008 27.5273 45.4952 27.5432 45.4952 27.5596C45.4952 27.576 45.5008 27.5919 45.5111 27.6047C45.5214 27.6174 45.5358 27.6263 45.5518 27.6297C46.8496 27.9482 48.2716 28.7969 48.2716 30.7667C48.2716 32.5056 46.7907 34.2301 45.0359 34.2206C43.6585 34.2206 41.0549 34.2206 40.5772 34.2429C40.7747 34.0231 40.9307 33.7062 40.9307 33.0136V23.5675C40.945 23.0452 40.8606 22.5595 40.5422 22.3605ZM43.5056 24.187C43.8241 24.187 44.2062 24.1981 44.4085 24.1981C44.8384 24.1981 45.3639 24.558 45.3639 25.3414C45.3639 25.988 44.918 26.6154 44.262 26.6154H43.4992L43.5056 24.187ZM43.5056 28.5294C44.9117 28.2109 45.4403 29.2093 45.4403 30.1584C45.4403 31.8623 44.5184 32.3591 44.0072 32.3591C43.9276 32.3591 43.6489 32.3877 43.4992 32.1887L43.5056 28.5294ZM49.0758 22.4162C50.3688 22.3892 54.0297 22.1981 54.8338 22.1264C54.8482 22.6153 54.9055 24.1838 54.9055 24.1838C54.9055 24.1838 54.5313 23.8239 54.1093 23.8159C53.6873 23.808 52.2303 23.9003 52.2303 23.9003V26.7268C52.2303 26.7268 52.9644 26.6982 53.2972 26.6982C53.5683 26.7018 53.8308 26.6035 54.0329 26.4227V28.6265C53.942 28.5398 53.834 28.473 53.7158 28.4305C53.5976 28.3879 53.4718 28.3707 53.3465 28.3797H52.2319V32.7381C52.2319 32.7381 53.4962 32.789 53.8243 32.7938C54.665 32.8081 54.9182 32.512 54.9182 32.512C54.9182 32.512 54.6841 34.3862 54.665 34.5247C51.9325 34.3527 49.0837 34.3066 49.0837 34.3066C49.0837 34.3066 49.4866 34.0024 49.4866 32.9435V23.5675C49.4866 22.706 49.0901 22.429 49.0758 22.4162ZM56.2112 22.0372C56.8307 21.9815 59.7686 21.6232 59.9836 21.5962C59.9836 21.5962 59.5887 22.0739 59.5887 23.0293V33.1059L61.1667 33.2492C61.9996 33.3225 62.4247 32.9674 62.4247 32.9674C62.4247 32.9674 62.0139 35.1075 61.9916 35.2413C59.0091 34.9005 56.2335 34.6808 56.2335 34.6808C56.2335 34.6808 56.5966 34.3766 56.5966 32.918C56.5966 32.5215 56.587 24.0214 56.587 23.6901C56.5886 22.2729 56.2112 22.0388 56.2112 22.0372ZM62.9789 21.1567C62.9789 21.1567 64.8372 20.8844 66.9503 20.5372C66.9503 20.5372 66.5761 20.9433 66.5761 21.8207V33.8209C66.5761 33.8209 68.1876 34.0072 68.6318 34.0661C69.0383 34.0986 69.4439 33.9931 69.7831 33.7668C69.7831 33.7668 69.3532 36.0837 69.3389 36.2174C66.3468 35.7525 63.1508 35.3719 63.1508 35.3719C63.1508 35.3719 63.5139 35.0407 63.5139 33.9228C63.5139 32.805 63.4821 22.9115 63.4821 22.4465C63.4821 21.456 62.9789 21.1567 62.9789 21.1567ZM68.3022 21.2586C68.3675 21.0229 68.5681 20.2617 68.5681 20.2617C68.5681 20.2617 72.1574 19.6757 73.5045 19.3429C72.1478 23.2076 72.5491 25.7507 73.9154 27.6791C75.6463 25.7682 77.1877 21.6376 76.0555 18.835C79.0731 18.241 81.8837 17.5212 81.8837 17.5212L82.3216 18.3684C81.0572 18.7394 80.3391 19.9512 80.1034 21.1805C79.4824 24.429 78.4537 26.8876 76.1081 29.6043C75.3374 30.4944 73.8787 32.2524 73.8787 33.5167C73.8787 34.211 74.2593 34.7254 74.6335 34.6696C74.6956 34.6601 74.7084 34.641 74.6702 34.59C74.5266 34.3549 74.4465 34.0866 74.4377 33.8113C74.4377 32.8878 75.3103 32.1027 76.5157 32.1027C77.8852 32.1027 78.847 33.2588 78.847 34.7015C78.847 36.7111 77.0285 37.9579 75.4138 37.9579C72.8182 37.9579 71.2529 35.8353 71.2529 33.5581C71.2529 32.5183 71.6271 31.4164 71.952 30.746C69.9567 28.0724 69.0092 24.843 69.3389 22.0165C69.428 21.3382 68.9806 21.0468 68.3022 21.2586ZM28.1853 21.2347C26.5738 21.2347 23.4463 22.1296 23.4463 28.6807C23.4463 33.2636 25.5371 35.6872 28.1853 35.5279C31.4847 35.3464 32.706 32.4021 32.706 28.3049C32.6981 22.9465 30.5277 21.2347 28.1853 21.2347ZM28.0977 23.4768C27.3429 23.4688 26.6088 24.351 26.6088 28.6807C26.6088 31.1696 26.9273 33.6919 28.1853 33.6346C29.4926 33.5757 29.5722 30.738 29.5722 28.6807C29.5643 23.8255 28.8461 23.4847 28.0897 23.4768H28.0977ZM22.7807 25.05C22.7807 22.1041 20.1835 19.3413 15.6309 19.3413C10.4254 19.3413 7.66898 22.8016 7.66898 25.5023C7.66898 28.152 9.35213 29.6425 11.1722 29.6425C12.2312 29.6425 13.1309 28.8718 13.427 27.8909C13.4398 30.3368 13.4525 33.0709 13.4525 33.547C13.4525 34.4117 13.3968 35.2986 12.7057 36.149C12.3028 36.649 11.6213 37.02 10.4572 37.348C10.5289 37.4961 10.8108 38.0121 10.9588 38.2732C13.9032 37.434 16.9781 36.7859 19.5434 36.3241C19.5434 36.3241 19.6596 35.7413 19.7265 35.3273C18.8889 35.477 18.3714 35.4865 17.8889 35.1681C17.443 34.8751 16.9717 34.082 16.9717 33.2444C16.9717 33.0948 16.9717 32.332 16.9542 31.2651C18.6915 31.0852 22.7807 29.7046 22.7807 25.05ZM11.6675 25.1726C11.3851 25.1668 11.1088 25.2543 10.8813 25.4216C10.6539 25.5889 10.488 25.8266 10.4095 26.0978C10.3713 26.2682 10.2837 26.2698 10.169 26.1615C10.0002 26.0023 9.82825 25.6965 9.82825 25.1806C9.82825 23.4577 11.1229 22.2872 12.1547 22.2872C12.9955 22.2872 13.4127 22.5771 13.4127 23.9577C13.4127 24.2841 13.4127 25.2459 13.4223 26.4434C13.3115 26.0673 13.0792 25.7386 12.7616 25.5087C12.4441 25.2787 12.0593 25.1606 11.6675 25.1726ZM16.9351 29.3495C16.9016 26.0723 16.857 21.9019 16.8554 21.6662C16.8539 21.4305 16.9271 21.3191 17.1851 21.3191C17.916 21.3191 19.3889 22.0818 19.3889 25.0962C19.3889 27.3335 18.6501 29.1265 16.9351 29.3495Z" fill="white"/>
<path d="M20.7504 40.2175C20.3905 40.0375 20.0928 39.7557 20.0928 39.305C20.0928 38.7509 20.51 38.2955 21.1835 38.2955C21.4287 38.298 21.6696 38.3597 21.8858 38.4754V39.2891C21.7268 39.1108 21.5059 38.9998 21.2679 38.9786C21.1799 38.9718 21.0926 38.9994 21.0243 39.0554C20.956 39.1115 20.9121 39.1918 20.9017 39.2796C20.9017 39.4993 21.1326 39.606 21.3141 39.6856C21.5944 39.8114 22.0912 40.0328 22.0912 40.6745C22.0908 40.8274 22.06 40.9787 22.0006 41.1195C21.9412 41.2604 21.8543 41.3881 21.7451 41.495C21.6359 41.602 21.5065 41.6862 21.3644 41.7427C21.2224 41.7993 21.0705 41.8269 20.9176 41.8242C20.6282 41.8138 20.3455 41.7346 20.0928 41.5933V40.7493C20.2297 40.8704 20.5004 41.1172 20.8364 41.1172C20.9468 41.1224 21.0548 41.0835 21.1366 41.0092C21.2184 40.9348 21.2674 40.8311 21.2727 40.7207C21.2727 40.5089 21.1023 40.3879 20.8316 40.2525L20.7504 40.2175ZM68.0235 40.2175C67.6621 40.0375 67.3659 39.7557 67.3659 39.305C67.3659 38.7509 67.7831 38.2955 68.4551 38.2955C68.7008 38.2978 68.9423 38.3595 69.1589 38.4754V39.2891C68.9999 39.1108 68.779 38.9998 68.5411 38.9786C68.453 38.9718 68.3657 38.9994 68.2974 39.0554C68.2292 39.1115 68.1852 39.1918 68.1748 39.2796C68.1748 39.4993 68.4057 39.606 68.5857 39.6856C68.8675 39.8114 69.3643 40.0328 69.3643 40.6745C69.3637 40.8275 69.3327 40.9788 69.2731 41.1197C69.2135 41.2605 69.1265 41.3882 69.0172 41.4951C68.9079 41.6021 68.7784 41.6863 68.6362 41.7428C68.4941 41.7993 68.3421 41.8269 68.1892 41.8242C67.9003 41.8135 67.6182 41.7344 67.3659 41.5933V40.7493C67.5012 40.8704 67.7735 41.1172 68.1095 41.1172C68.2199 41.1224 68.3279 41.0835 68.4097 41.0092C68.4915 40.9348 68.5405 40.8311 68.5458 40.7207C68.5458 40.5089 68.3755 40.3879 68.1048 40.2525L68.0235 40.2175ZM24.8078 39.2843H24.7983L24.5881 40.4786H25.0196L24.8078 39.2843ZM25.2202 38.3512L26.1152 41.7701H25.2473L25.1263 41.0917H24.4734L24.3476 41.7701H23.5291L24.424 38.3512H25.2202ZM29.1407 40.2366H29.1518L29.1311 38.3512H29.8939V41.7701H29.0865L28.4002 39.8767H28.3891L28.4082 41.7701H27.6454V38.3512H28.4544L29.1407 40.2366ZM32.4194 39.0136V41.0965C32.7108 41.0965 33.093 41.0312 33.093 39.9723C33.093 39.6203 33.0277 39.0168 32.5261 39.0168L32.4194 39.0136ZM32.6216 38.3464C33.6201 38.3464 33.9115 39.1235 33.9115 40.0168C33.9115 40.6156 33.7299 41.7685 32.5102 41.7685H31.6216V38.3512L32.6216 38.3464ZM37.4354 40.6028H37.4466L37.687 38.3512H38.496L37.8638 41.7701H37.0596L36.8478 39.7079H36.8383L36.6233 41.7701H35.8239L35.187 38.3512H36.0007L36.2379 40.6028H36.2475L36.4466 38.3512H37.2348L37.4354 40.6028ZM53.786 40.6028H53.7972L54.0392 38.3512H54.8466L54.2144 41.7701H53.4102L53.1984 39.7079H53.1889L52.9739 41.7701H52.1745L51.5376 38.3512H52.3513L52.5886 40.6028H52.5981L52.7972 38.3512H53.587L53.786 40.6028ZM40.0676 38.3512H40.8702V41.7701H40.0676V38.3512ZM44.3002 39.1984C44.1904 39.085 44.0408 39.0187 43.883 39.0136C43.2858 39.0136 43.2858 39.977 43.2858 40.0965C43.2858 40.684 43.5072 41.0917 43.8734 41.0917C44.0321 41.0822 44.1827 41.0187 44.3002 40.9118V41.6841C44.1257 41.7724 43.9336 41.8203 43.7381 41.8242C42.9594 41.8242 42.4769 41.0519 42.4769 40.0726C42.4769 39.0933 42.9642 38.2955 43.7779 38.2955C43.9593 38.2975 44.1378 38.3405 44.3002 38.4213V39.1984ZM46.8655 38.3512V39.6713H47.4929V38.3512H48.2923V41.7701H47.4929V40.3385H46.8655V41.7701H46.0677V38.3512H46.8655ZM56.6682 40.0471C56.6682 40.684 56.8434 41.0917 57.1348 41.0917C57.4262 41.0917 57.6125 40.6395 57.6125 40.0423C57.6125 39.3544 57.396 39.0136 57.1651 39.0136C56.759 39.0136 56.6682 39.6156 56.6682 40.0471ZM58.4103 40.0471C58.4103 41.0662 57.9326 41.829 57.1189 41.829C56.3052 41.829 55.8689 40.9962 55.8689 40.0773C55.8689 38.977 56.4167 38.305 57.0791 38.305C58.1938 38.305 58.4103 39.399 58.4103 40.0566M61.3276 40.3194C61.7002 40.1697 61.9438 39.8417 61.9438 39.3146C61.9438 38.7366 61.6126 38.3592 60.9502 38.3592H59.7336V41.778H60.5298V40.4213H60.5537C60.6747 40.6602 61.2241 41.7414 61.2464 41.7812H62.1031C62.0218 41.6108 61.4183 40.4882 61.3276 40.3194ZM60.5314 39.0184H60.783C60.8301 39.0121 60.878 39.0164 60.9232 39.031C60.9684 39.0456 61.0098 39.0701 61.0443 39.1028C61.0788 39.1355 61.1056 39.1755 61.1227 39.2198C61.1397 39.2642 61.1466 39.3118 61.1428 39.3592C61.1428 39.6203 60.9534 39.7461 60.7065 39.7461H60.5314V39.0184ZM64.3611 40.2334C64.3611 40.2334 65.0522 41.7286 65.0776 41.7732H65.9343C65.8436 41.5981 65.1111 39.9611 65.1111 39.9611C65.3229 39.5471 65.8659 38.4897 65.9391 38.3496H65.0824C65.0617 38.3831 64.5713 39.2668 64.3658 39.6793V38.3496H63.5696V41.7685H64.3658V40.4117M71.2672 41.1092H71.5141C71.5387 41.1099 71.5632 41.1052 71.5859 41.0955C71.6085 41.0858 71.6288 41.0713 71.6453 41.0529C71.6618 41.0346 71.6741 41.0129 71.6814 40.9894C71.6887 40.9658 71.6909 40.941 71.6876 40.9165C71.6911 40.8926 71.6891 40.8681 71.6818 40.8451C71.6744 40.822 71.6619 40.8009 71.6452 40.7834C71.6284 40.7659 71.6079 40.7524 71.5852 40.744C71.5625 40.7357 71.5381 40.7326 71.5141 40.735H71.2672V41.1092ZM71.2672 41.7955H71.073V40.606H71.5507C71.5927 40.6011 71.6353 40.6051 71.6756 40.6178C71.716 40.6305 71.7532 40.6516 71.7848 40.6798C71.8164 40.7079 71.8417 40.7424 71.859 40.781C71.8762 40.8196 71.8851 40.8615 71.8851 40.9038C71.882 40.973 71.854 41.0388 71.8064 41.0891C71.7587 41.1394 71.6945 41.1709 71.6255 41.1777C71.7736 41.1936 71.8262 41.2414 71.8341 41.4802C71.8387 41.5878 71.8548 41.6945 71.8819 41.7987H71.6908C71.6536 41.67 71.6369 41.5362 71.6414 41.4022C71.6355 41.3607 71.6135 41.3232 71.5801 41.2979C71.5467 41.2726 71.5047 41.2614 71.4631 41.2669H71.2704L71.2672 41.7955ZM70.5777 41.1968C70.5774 41.3713 70.6288 41.5419 70.7255 41.6872C70.8222 41.8324 70.9598 41.9457 71.1208 42.0128C71.2819 42.0799 71.4593 42.0977 71.6305 42.0639C71.8016 42.0302 71.959 41.9465 72.0826 41.8233C72.2062 41.7002 72.2905 41.5431 72.3248 41.3721C72.3592 41.201 72.342 41.0236 72.2755 40.8623C72.2091 40.7009 72.0962 40.563 71.9513 40.4658C71.8064 40.3686 71.636 40.3165 71.4615 40.3162C71.3455 40.3156 71.2306 40.3379 71.1233 40.3819C71.016 40.4259 70.9185 40.4907 70.8363 40.5725C70.7542 40.6544 70.689 40.7517 70.6446 40.8588C70.6003 40.966 70.5775 41.0808 70.5777 41.1968ZM72.4886 41.1968C72.4889 41.402 72.4283 41.6027 72.3144 41.7735C72.2006 41.9442 72.0386 42.0774 71.849 42.156C71.6594 42.2346 71.4508 42.2551 71.2495 42.2151C71.0482 42.175 70.8634 42.0761 70.7184 41.9308C70.5734 41.7856 70.4747 41.6006 70.435 41.3993C70.3952 41.1979 70.4161 40.9893 70.495 40.7998C70.5739 40.6104 70.7072 40.4486 70.8782 40.335C71.0491 40.2214 71.2499 40.1611 71.4551 40.1617C71.591 40.1615 71.7257 40.1882 71.8512 40.2401C71.9768 40.2921 72.0909 40.3684 72.1869 40.4645C72.283 40.5607 72.359 40.6749 72.4108 40.8006C72.4626 40.9262 72.489 41.0609 72.4886 41.1968Z" fill="white"/>
<path fill-rule="evenodd" clip-rule="evenodd" d="M49.5057 3.68976C49.5885 3.68976 49.5758 3.81237 49.5519 3.86811C49.528 3.92384 49.5073 3.92862 49.4946 3.96046C49.4818 3.99231 49.4946 4.02097 49.4866 4.05282C49.4786 4.08467 49.477 4.12766 49.4675 4.1611C49.4579 4.19454 49.4293 4.26939 49.4133 4.32034C49.3974 4.3713 49.4133 4.37448 49.3974 4.40474C49.3656 4.50665 49.3465 4.61016 49.313 4.71366C49.313 4.72959 49.2939 4.75029 49.2891 4.76462C49.2844 4.77895 49.2891 4.80284 49.278 4.81876C49.2668 4.83468 49.2525 4.83787 49.2477 4.85379C49.243 4.86972 49.2334 4.92863 49.227 4.96526C49.2207 5.00188 49.1952 5.02099 49.1856 5.04965V5.09265C49.1761 5.12927 49.1617 5.17705 49.1506 5.21208C49.1488 5.22919 49.1462 5.2462 49.1426 5.26303C49.1426 5.27259 49.1283 5.28055 49.1251 5.29011C49.1244 5.30283 49.1244 5.31559 49.1251 5.32832C49.1251 5.34265 49.106 5.35539 49.1028 5.36813V5.40635C49.0805 5.46686 49.0582 5.53852 49.0375 5.59584C49.0329 5.61369 49.0292 5.63176 49.0264 5.64998C48.9738 5.76941 48.9245 5.8968 48.8831 6.02419C48.8608 6.09107 48.8672 6.17069 48.8512 6.24076V6.32197C48.7748 6.55764 48.7079 6.79969 48.6426 7.0481V7.09428C48.6299 7.14683 48.6203 7.19778 48.6028 7.25352C48.5853 7.30925 48.571 7.31721 48.5614 7.34906C48.5519 7.38091 48.5614 7.42709 48.5455 7.47008C48.5296 7.51307 48.52 7.52422 48.5105 7.55129C48.4882 7.61817 48.4834 7.68824 48.4563 7.75193C48.4308 7.7972 48.401 7.83987 48.3671 7.87932C48.3451 7.92521 48.3137 7.96592 48.2748 7.99875C48.2382 8.02264 48.1952 7.99875 48.1474 8.00671C48.0996 8.01468 48.0518 8.05926 47.9882 8.03378C47.9659 8.03378 47.9547 8.00671 47.9372 7.99557C47.8995 7.97106 47.8656 7.94099 47.8369 7.90639C47.8257 7.88888 47.821 7.86977 47.8114 7.85225C47.7917 7.83052 47.7756 7.80579 47.7636 7.779C47.7572 7.7534 47.7572 7.72658 47.7636 7.70098V7.64365C47.7636 7.62136 47.778 7.59906 47.7827 7.58155C47.7875 7.56403 47.7827 7.53696 47.7907 7.5083C47.7987 7.47963 47.8289 7.43823 47.8417 7.4032V7.37772C47.8417 7.35384 47.864 7.32199 47.8719 7.29969C47.8799 7.2774 47.8799 7.25511 47.8831 7.23441C47.8862 7.21371 47.9133 7.20097 47.9229 7.18345C47.9324 7.16593 47.9356 7.09587 47.9579 7.06402L47.9993 7.0258C48.0173 6.98923 48.0327 6.95145 48.0455 6.91275C48.0566 6.89045 48.0789 6.86338 48.0885 6.8395C48.0963 6.80585 48.108 6.77324 48.1235 6.74236C48.1348 6.73065 48.145 6.71785 48.1538 6.70414C48.1662 6.66627 48.1805 6.62907 48.1968 6.59268C48.2254 6.54968 48.2636 6.51624 48.2891 6.47165C48.3146 6.42707 48.3257 6.37293 48.3512 6.32516C48.3624 6.30445 48.3878 6.28853 48.3974 6.26783C48.407 6.24713 48.3974 6.23439 48.4054 6.21687C48.4133 6.19936 48.4213 6.19776 48.4245 6.1898C48.4277 6.18184 48.4356 6.14362 48.4404 6.11974C48.448 6.10767 48.4544 6.09487 48.4595 6.08152V6.01623C48.4635 5.99627 48.4688 5.97659 48.4754 5.95731C48.5013 5.91627 48.5312 5.87787 48.5646 5.84266C48.5964 5.79808 48.6092 5.74234 48.6378 5.69457C48.6378 5.68342 48.6617 5.67228 48.6681 5.65954C48.6811 5.63006 48.6902 5.59901 48.6952 5.56718C48.7047 5.54011 48.7238 5.51145 48.7334 5.48597C48.7429 5.46049 48.7461 5.43342 48.7573 5.40476C48.8094 5.29143 48.8673 5.18088 48.9308 5.07354C48.9308 5.05443 48.942 5.03692 48.9468 5.0194C48.9515 5.00188 48.985 4.96207 48.9977 4.93341C49.0264 4.86335 49.0168 4.76462 49.0471 4.69455C49.0645 4.64542 49.0853 4.59754 49.1092 4.55124C49.1319 4.52184 49.1526 4.49099 49.1713 4.45888C49.184 4.42703 49.1856 4.39996 49.1984 4.36493C49.227 4.2885 49.2748 4.20569 49.3067 4.13403C49.321 4.099 49.3305 4.06238 49.3417 4.02894C49.3528 3.9955 49.3417 3.99231 49.3528 3.9748C49.3611 3.96762 49.3685 3.95961 49.3751 3.95091C49.385 3.93265 49.393 3.91345 49.399 3.89358C49.399 3.88562 49.4149 3.87766 49.4181 3.87129C49.4213 3.86492 49.4181 3.83785 49.434 3.82511L49.4691 3.79804C49.4755 3.78157 49.4803 3.7645 49.4834 3.74708C49.4881 3.72703 49.4956 3.70774 49.5057 3.68976ZM40.5024 3.98116C40.5318 3.97914 40.5613 3.98537 40.5875 3.99915C40.6136 4.01293 40.6354 4.03372 40.6504 4.05919L40.6727 4.08308C40.6887 4.11174 40.6727 4.15633 40.6934 4.1834L40.7237 4.21047C40.7348 4.2248 40.7348 4.24391 40.746 4.25983L40.7651 4.27894C40.7834 4.32049 40.7993 4.36302 40.8129 4.40633C40.8204 4.42055 40.8295 4.4339 40.8399 4.44614C40.8606 4.48614 40.8782 4.52767 40.8925 4.57035C40.902 4.58946 40.9212 4.60856 40.9323 4.62767C40.9626 4.67863 40.9753 4.73914 41.0056 4.78691C41.0365 4.8374 41.0627 4.89072 41.0836 4.94615C41.0883 4.96993 41.0946 4.99335 41.1027 5.01621C41.1106 5.03532 41.1313 5.05762 41.1409 5.07673C41.148 5.10233 41.157 5.12735 41.168 5.15157C41.179 5.16634 41.1891 5.18176 41.1982 5.19775C41.2333 5.27418 41.2508 5.35699 41.2842 5.42864C41.2994 5.46 41.3175 5.48986 41.3384 5.51782C41.3527 5.54329 41.3559 5.57355 41.3734 5.59903C41.3909 5.62451 41.4212 5.65795 41.4387 5.69139C41.4562 5.72483 41.4657 5.81082 41.4928 5.85859C41.5533 5.96368 41.6361 6.05923 41.6935 6.16751C41.7078 6.19458 41.711 6.22165 41.7237 6.24872C41.7365 6.27579 41.7492 6.27579 41.7556 6.29171C41.7619 6.30764 41.7667 6.35223 41.7826 6.38089L41.8065 6.39841C41.8065 6.41433 41.8113 6.42866 41.8209 6.4414C41.857 6.50456 41.8879 6.5706 41.9132 6.63885C41.9259 6.66911 41.9514 6.70414 41.9673 6.73281C41.9833 6.76147 41.9833 6.79013 41.9992 6.8172C42.0151 6.84427 42.0295 6.85223 42.0422 6.87134C42.0508 6.89159 42.0583 6.91233 42.0645 6.93345C42.0777 6.95593 42.092 6.97772 42.1075 6.99873L42.1218 7.04173C42.1466 7.0801 42.1689 7.11999 42.1887 7.16116C42.1982 7.18345 42.1998 7.20415 42.211 7.22645C42.2221 7.24874 42.2349 7.25352 42.2428 7.26625C42.2508 7.27899 42.2428 7.28536 42.2508 7.29651C42.2588 7.30766 42.2795 7.3411 42.289 7.3618C42.2951 7.3868 42.303 7.41129 42.3129 7.43505C42.3322 7.45979 42.3498 7.48586 42.3654 7.51307C42.375 7.53378 42.3654 7.5497 42.3814 7.56722C42.3973 7.58473 42.418 7.60066 42.4244 7.62454C42.4296 7.67243 42.4269 7.72085 42.4164 7.76786V7.83792C42.4164 7.85862 42.3814 7.87295 42.3686 7.89206C42.3559 7.91117 42.3607 7.91436 42.3575 7.92709C42.319 7.96869 42.2731 8.00272 42.2221 8.02741C42.1705 8.04501 42.1145 8.04501 42.0629 8.02741C42.0406 8.01786 42.0199 7.99716 41.9976 7.98761C41.921 7.95625 41.8571 7.9002 41.8161 7.82837C41.8065 7.81722 41.7874 7.81085 41.7763 7.8013C41.7528 7.777 41.7344 7.74832 41.7221 7.7169C41.7221 7.69938 41.7221 7.68664 41.7142 7.66594C41.7062 7.64524 41.6966 7.62932 41.6919 7.6118C41.688 7.59289 41.6853 7.57374 41.6839 7.55448V7.49237C41.6839 7.47167 41.6521 7.45097 41.6409 7.42709C41.6298 7.4032 41.6234 7.35702 41.6138 7.32199C41.6146 7.30767 41.6146 7.29331 41.6138 7.27899C41.6043 7.25511 41.5836 7.22963 41.5756 7.20256C41.5677 7.17549 41.5756 7.16912 41.5756 7.1516C41.5756 7.13409 41.547 7.07995 41.5358 7.0481C41.5247 7.01625 41.5358 7.01147 41.5247 6.98918C41.5135 6.96689 41.496 6.94619 41.4864 6.92389C41.4769 6.9016 41.4673 6.86657 41.4594 6.84268C41.4419 6.79013 41.4371 6.73918 41.4164 6.68344C41.405 6.64982 41.3906 6.61731 41.3734 6.58631C41.3607 6.56401 41.3399 6.54968 41.332 6.52102C41.3242 6.47622 41.3189 6.43104 41.3161 6.38567V6.30445C41.3065 6.27261 41.2651 6.24394 41.2476 6.21528C41.2248 6.17893 41.2066 6.13989 41.1934 6.09904C41.1759 6.05286 41.1855 5.99075 41.1664 5.9398C41.1473 5.88884 41.1282 5.87929 41.1154 5.85062C41.1027 5.82196 41.1011 5.77578 41.0852 5.73916C41.0294 5.60381 40.9801 5.45571 40.9339 5.31399C40.918 5.26463 40.9164 5.22322 40.8989 5.17545C40.8813 5.12768 40.8686 5.12609 40.8606 5.09743C40.8527 5.06876 40.8606 5.06239 40.8606 5.04329C40.8606 5.02418 40.8304 4.96685 40.8208 4.935V4.92067C40.8208 4.90793 40.8033 4.89679 40.7985 4.88564C40.7938 4.87449 40.7985 4.84901 40.7858 4.82672C40.7731 4.80443 40.7699 4.80284 40.7667 4.79169V4.76462C40.7667 4.7471 40.7412 4.73118 40.7333 4.71525C40.711 4.67226 40.7078 4.62608 40.6903 4.58309C40.6727 4.54009 40.6632 4.54805 40.6552 4.52895C40.6361 4.48436 40.6377 4.43659 40.6202 4.39041C40.6202 4.37289 40.5979 4.35538 40.5931 4.33945V4.29964C40.5931 4.2869 40.5804 4.27098 40.5772 4.25665V4.20251C40.5772 4.17862 40.5438 4.1611 40.5262 4.14837C40.5101 4.13219 40.4976 4.11273 40.4896 4.09129C40.4816 4.06986 40.4784 4.04696 40.4801 4.02416C40.4896 4.01105 40.4972 3.99655 40.5024 3.98116ZM53.9086 5.67387H53.9437C54.0265 5.81241 53.88 5.89203 53.8195 5.97165C53.759 6.05127 53.7176 6.11496 53.6602 6.18821C53.6357 6.22117 53.6086 6.25206 53.579 6.28057C53.5704 6.28746 53.5613 6.29384 53.5519 6.29968C53.5121 6.35223 53.4819 6.40955 53.4437 6.46688L53.4166 6.49395C53.4166 6.50191 53.4166 6.51146 53.4055 6.52102C53.3946 6.52919 53.3845 6.53824 53.3752 6.54809C53.3656 6.55924 53.3672 6.57357 53.3593 6.58631C53.3513 6.59905 53.329 6.62293 53.3163 6.64363C53.3035 6.66433 53.2781 6.69777 53.2589 6.72644L53.216 6.75988C53.1686 6.82225 53.111 6.8761 53.0456 6.91911C53.0133 6.95099 52.9859 6.98748 52.9644 7.0274C52.9452 7.05606 52.9102 7.07676 52.8911 7.10542C52.8681 7.13848 52.8473 7.17306 52.829 7.20893V7.24396L52.8051 7.26307C52.8051 7.27581 52.8051 7.29014 52.794 7.30129C52.7828 7.31243 52.7558 7.35065 52.7398 7.37613C52.7239 7.40161 52.7398 7.39842 52.7287 7.41116C52.7175 7.4239 52.6793 7.45256 52.6618 7.47645C52.6443 7.50034 52.6156 7.54811 52.5886 7.58473C52.5615 7.62136 52.5535 7.61021 52.5424 7.62773C52.5312 7.64524 52.5296 7.65639 52.5201 7.66913C52.5105 7.68187 52.4803 7.68824 52.4691 7.70416C52.458 7.72008 52.4421 7.75989 52.4229 7.78537C52.4038 7.81085 52.3975 7.7997 52.3879 7.80926C52.3784 7.81881 52.3736 7.83951 52.3656 7.85066C52.3577 7.86181 52.3131 7.89206 52.2956 7.91754C52.278 7.94302 52.2876 7.94302 52.2796 7.95576L52.2526 7.98283C52.2448 7.99996 52.2358 8.01647 52.2255 8.03219C52.2255 8.03219 52.2112 8.03219 52.2064 8.04493C52.2016 8.05767 52.1905 8.07996 52.1793 8.0943L52.1284 8.13729C52.1172 8.15481 52.1172 8.17391 52.1061 8.19143C52.0949 8.20895 52.0328 8.2615 52.0057 8.29971C51.9787 8.33793 51.9819 8.34111 51.9659 8.36182L51.9277 8.39685C51.9166 8.41118 51.9166 8.43188 51.9054 8.44621L51.8784 8.46532C51.8655 8.48541 51.85 8.50363 51.8322 8.51946C51.8162 8.53061 51.7987 8.52902 51.7812 8.53857C51.7637 8.54812 51.7685 8.56086 51.7621 8.57042L51.7239 8.60067C51.7096 8.61978 51.7159 8.65163 51.7032 8.67074C51.6905 8.68985 51.6793 8.68029 51.6729 8.68985C51.6666 8.6994 51.6618 8.72169 51.6538 8.73603L51.6268 8.7631C51.6013 8.80131 51.5997 8.86023 51.5726 8.89845L51.5455 8.92234C51.5348 8.94096 51.5231 8.95903 51.5105 8.97648L51.4596 9.02266C51.4365 9.06221 51.4099 9.09952 51.3799 9.13412C51.356 9.15864 51.3336 9.18471 51.3131 9.21215C51.256 9.26737 51.2028 9.32642 51.1538 9.3889C51.1443 9.41597 51.1363 9.44145 51.1267 9.46693C51.1172 9.49241 51.0853 9.49719 51.0694 9.51311C51.0328 9.55976 50.9893 9.60057 50.9404 9.63413C50.8638 9.68273 50.772 9.70144 50.6825 9.68668C50.6637 9.67927 50.6455 9.67021 50.6283 9.65961C50.6031 9.65355 50.5786 9.64502 50.5551 9.63413C50.5169 9.60706 50.5105 9.56247 50.4882 9.52107C50.4659 9.47967 50.4404 9.45578 50.4261 9.42075C50.4139 9.33659 50.4249 9.25069 50.4579 9.17234C50.4579 9.16279 50.4786 9.15164 50.485 9.14208L50.5041 9.08794L50.5423 9.05769C50.5423 9.04495 50.5503 9.0338 50.5551 9.02266L50.6124 8.9717L50.6474 8.92552C50.6761 8.908 50.7127 8.90482 50.7318 8.87934C50.7876 8.80768 50.8258 8.7201 50.8799 8.64685C50.8799 8.64685 51.0057 8.57201 51.0185 8.56564C51.0312 8.55927 51.0599 8.56564 51.0758 8.55131C51.0917 8.53698 51.0997 8.45895 51.122 8.41914C51.1634 8.35067 51.2111 8.33634 51.2732 8.29175L51.3115 8.24557C51.3322 8.23124 51.3529 8.22487 51.3736 8.21054C51.4131 8.17931 51.447 8.14163 51.4739 8.09907C51.4834 8.08474 51.4834 8.06882 51.4946 8.05608L51.528 8.02582C51.5615 7.98124 51.5965 7.94143 51.6299 7.89684C51.6512 7.87271 51.6772 7.8532 51.7064 7.83951L51.7414 7.8013L51.7764 7.78856L51.8035 7.76149C51.8497 7.73304 51.8924 7.69938 51.9309 7.66117C51.9309 7.66117 51.9309 7.64524 51.942 7.63887L51.9994 7.58155C52.0201 7.5497 52.0264 7.52104 52.0535 7.49874L52.1889 7.39524L52.2239 7.34906C52.2641 7.32349 52.3006 7.2924 52.3322 7.2567C52.3516 7.22502 52.3751 7.1961 52.4022 7.17071C52.4163 7.16242 52.4292 7.15224 52.4405 7.14046C52.4405 7.12931 52.4405 7.11816 52.4564 7.10861L52.5058 7.05924C52.5169 7.04491 52.5201 7.0258 52.5328 7.01625C52.63 6.943 52.7366 6.88408 52.8322 6.81083L52.8577 6.77739C52.918 6.72779 52.9715 6.67051 53.0169 6.60701L53.0551 6.57516C53.0848 6.5435 53.1125 6.51 53.1379 6.47484L53.1602 6.45573C53.1793 6.42866 53.1857 6.39363 53.2064 6.36656C53.2339 6.3442 53.2638 6.32497 53.2956 6.30923C53.3433 6.27261 53.3672 6.20413 53.415 6.1691C53.4309 6.15796 53.4469 6.15955 53.4644 6.14999C53.4819 6.14044 53.5058 6.107 53.5201 6.08789C53.5326 6.07618 53.5465 6.06602 53.5615 6.05763C53.5926 6.02968 53.6189 5.99688 53.6395 5.9605C53.6586 5.93502 53.6937 5.92387 53.7128 5.8984C53.7319 5.87292 53.7494 5.86177 53.7621 5.84107C53.7749 5.82037 53.7765 5.80922 53.786 5.79489C53.8032 5.77655 53.823 5.76098 53.8449 5.74871C53.8609 5.73597 53.8625 5.71686 53.8752 5.69776C53.8879 5.67865 53.8975 5.68502 53.9086 5.67387ZM36.2268 6.00986H36.2459C36.2979 6.03679 36.3461 6.07053 36.3892 6.11018C36.4031 6.13469 36.4202 6.1572 36.4402 6.17706C36.472 6.19936 36.5071 6.2105 36.5373 6.23439C36.546 6.24521 36.5535 6.25696 36.5596 6.26942L36.6106 6.3156C36.616 6.32526 36.6224 6.33434 36.6297 6.34267C36.6471 6.35526 36.6652 6.36695 36.6838 6.3777C36.7043 6.39616 36.7225 6.41701 36.738 6.43981C36.738 6.44936 36.7634 6.45732 36.773 6.46688C36.8128 6.50669 36.8494 6.5449 36.8924 6.58312C36.9354 6.62134 36.9386 6.63885 36.9657 6.65956C37.0357 6.7137 37.101 6.77102 37.1663 6.82994L37.2252 6.88727C37.2318 6.90205 37.241 6.91553 37.2523 6.92708C37.2698 6.93982 37.2889 6.94778 37.3064 6.96211C37.324 6.97644 37.324 6.98759 37.3335 7.00033L37.3638 7.02262C37.3781 7.03695 37.3861 7.05765 37.402 7.07039C37.4295 7.08851 37.4556 7.10874 37.48 7.1309C37.4917 7.14996 37.5062 7.16714 37.523 7.18186C37.5726 7.21881 37.6166 7.2628 37.6536 7.31243C37.6842 7.34614 37.7196 7.37511 37.7587 7.39842C37.7985 7.42868 37.824 7.47804 37.8622 7.5067C37.8913 7.52452 37.9175 7.54652 37.9402 7.57199C37.9625 7.60225 37.9959 7.62295 38.0166 7.6532L38.1297 7.79652L38.1838 7.8427C38.2132 7.88576 38.248 7.92484 38.2873 7.95894C38.3065 7.97327 38.3287 7.97646 38.3495 7.9892C38.3702 8.00194 38.4243 8.04015 38.4625 8.06245C38.5007 8.08474 38.5246 8.08952 38.5501 8.11022C38.5756 8.13092 38.574 8.14047 38.5851 8.15481C38.5963 8.16914 38.6313 8.18984 38.6472 8.20895L38.7316 8.31404C38.7428 8.32838 38.7651 8.33474 38.7746 8.34908C38.8307 8.41735 38.8961 8.47739 38.9689 8.52742C39.0052 8.56562 39.0362 8.60845 39.0612 8.65481C39.0612 8.66437 39.0819 8.66278 39.0931 8.66915L39.1186 8.70099C39.1329 8.71214 39.1504 8.71373 39.1648 8.72488C39.1791 8.73603 39.2014 8.75991 39.2189 8.77902C39.2364 8.79813 39.2651 8.80131 39.2858 8.81724L39.324 8.86342C39.3622 8.89208 39.3925 8.93348 39.4323 8.96055L39.4625 8.9717C39.4856 8.99106 39.5064 9.01296 39.5246 9.03699V9.07202C39.5388 9.09111 39.5542 9.1092 39.5708 9.12616C39.5867 9.14845 39.5979 9.17075 39.6138 9.19623C39.6297 9.2217 39.6472 9.23603 39.66 9.25674C39.6727 9.27744 39.66 9.27744 39.66 9.28858C39.6823 9.3268 39.7141 9.28858 39.7141 9.37298C39.7046 9.3889 39.7141 9.42075 39.7141 9.44623C39.7141 9.47171 39.7014 9.48604 39.6982 9.50037C39.695 9.5147 39.6982 9.54018 39.6982 9.55451C39.6891 9.57907 39.6774 9.60257 39.6632 9.62458C39.6063 9.67715 39.5405 9.7192 39.4689 9.74878H39.4004C39.3555 9.75436 39.31 9.75436 39.2651 9.74878C39.2024 9.70967 39.1452 9.66256 39.0947 9.60865C39.0807 9.5859 39.0653 9.56409 39.0485 9.54337C39.0262 9.52426 39.0039 9.50515 38.9832 9.48445C38.9625 9.46375 38.9609 9.44304 38.9434 9.4319C38.9205 9.41911 38.8996 9.40301 38.8813 9.38413C38.8526 9.34591 38.8383 9.29814 38.8081 9.25674L38.7587 9.20737C38.6791 9.10227 38.5851 9.01469 38.5071 8.9096L38.4641 8.86979C38.4338 8.82838 38.3956 8.79972 38.3638 8.75832L38.3335 8.73603C38.2985 8.68985 38.2555 8.64367 38.2252 8.5959C38.195 8.54812 38.1902 8.52742 38.1663 8.49558C38.1424 8.46373 38.1186 8.44621 38.0931 8.42233C38.0182 8.32041 37.9338 8.2392 37.8542 8.1357C37.8017 8.06563 37.7077 8.01786 37.6536 7.9462C37.5994 7.87455 37.5246 7.78696 37.4593 7.70735H37.4434C37.4322 7.6962 37.4275 7.68187 37.4163 7.66913L37.3829 7.63728C37.3669 7.61658 37.3622 7.59429 37.3478 7.57199C37.3335 7.5497 37.2905 7.53059 37.2746 7.5067L37.2427 7.43982L37.2077 7.40957C37.1982 7.39683 37.1966 7.37931 37.1854 7.36817L37.1456 7.33632C37.1122 7.29014 37.0883 7.24237 37.058 7.193C37.0278 7.14364 36.9864 7.12294 36.9577 7.08472C36.929 7.04651 36.9004 7.00829 36.8717 6.96848L36.8367 6.93822C36.8176 6.90956 36.8064 6.88408 36.7873 6.85701L36.7555 6.82994C36.7237 6.79948 36.6939 6.76704 36.6663 6.73281C36.6472 6.70733 36.636 6.67707 36.6169 6.65159C36.5978 6.62612 36.5389 6.5879 36.5118 6.54809C36.4848 6.50828 36.4959 6.50669 36.4816 6.48917L36.4434 6.4621C36.4227 6.43503 36.4083 6.40796 36.3892 6.38089L36.3574 6.35541C36.3574 6.34586 36.3574 6.3363 36.3494 6.32675C36.3415 6.31719 36.3001 6.28694 36.2762 6.26942C36.234 6.22075 36.1976 6.16731 36.1679 6.11018C36.1679 6.11018 36.1679 6.09585 36.1679 6.0863V6.05127C36.195 6.03056 36.2141 6.0226 36.2268 6.00986ZM58.181 9.74401H58.2224C58.2402 9.7634 58.2513 9.78793 58.2543 9.81407C58.2399 9.82681 58.2352 9.8507 58.2192 9.86025L58.1062 9.89847C58.0759 9.91758 58.0425 9.94146 58.0106 9.95739L57.9724 9.96853C57.9477 9.98602 57.9216 10.0015 57.8944 10.0147C57.8454 10.0268 57.7975 10.0428 57.7511 10.0625L57.6937 10.1198C57.6216 10.1349 57.5504 10.1541 57.4804 10.1771C57.4581 10.1899 57.4358 10.2138 57.4151 10.2281C57.3944 10.2424 57.396 10.2281 57.3832 10.2281C57.3705 10.2281 57.3148 10.2695 57.2845 10.2854C57.2542 10.3013 57.2574 10.2854 57.2447 10.2966C57.2081 10.3189 57.173 10.3475 57.1364 10.3698C57.0998 10.3921 57.095 10.3698 57.0743 10.3857C57.0536 10.4017 57.0138 10.4255 56.9899 10.4399L56.9549 10.451C56.9432 10.4615 56.9304 10.4705 56.9167 10.4781H56.8896L56.8737 10.4972C56.856 10.5037 56.8379 10.509 56.8195 10.5131C56.8004 10.5131 56.7781 10.5434 56.7574 10.5513H56.716L56.6889 10.58C56.6539 10.6023 56.6109 10.6341 56.5759 10.6533C56.5409 10.6724 56.5074 10.666 56.4803 10.6835C56.4533 10.701 56.4421 10.7154 56.4262 10.7265C56.4103 10.7377 56.3784 10.7377 56.3593 10.7488C56.3402 10.7599 56.3084 10.787 56.2829 10.7998C56.2498 10.8092 56.2173 10.821 56.1858 10.8348L56.0424 10.924L55.9931 10.9383C55.9632 10.9601 55.9318 10.9798 55.8991 10.9972C55.8131 11.0354 55.7303 11.0752 55.6443 11.1119C55.5902 11.1358 55.5408 11.1437 55.4851 11.1676C55.4754 11.173 55.4664 11.1794 55.458 11.1867H55.423L55.4039 11.2058C55.3705 11.2265 55.3354 11.2297 55.2988 11.2488C55.2799 11.2602 55.2618 11.273 55.2447 11.287C55.2208 11.303 55.1937 11.303 55.1666 11.3189L55.1364 11.3491C55.1173 11.3619 55.0982 11.3587 55.0743 11.3682C55.0504 11.3778 55.052 11.3889 55.0392 11.3953C55.0172 11.4054 54.9943 11.4134 54.9708 11.4192C54.9421 11.4287 54.9182 11.4574 54.8896 11.4686C54.8609 11.4797 54.8386 11.4956 54.8115 11.5068C54.7845 11.5179 54.7908 11.5068 54.7813 11.5068L54.7574 11.5307C54.6698 11.5673 54.5981 11.5991 54.5106 11.6389C54.4946 11.6389 54.4803 11.6628 54.4644 11.6692C54.4485 11.6756 54.4118 11.6692 54.3911 11.6851C54.3704 11.701 54.3657 11.7074 54.3529 11.7122C54.3402 11.717 54.3258 11.7122 54.3131 11.7233L54.2829 11.7552H54.243C54.2323 11.7623 54.2222 11.7702 54.2128 11.7791L54.1157 11.8221C54.0901 11.8423 54.0629 11.8604 54.0344 11.8762C54.0017 11.8866 53.9698 11.8994 53.9389 11.9144C53.8784 11.9511 53.8083 11.9893 53.7446 12.0227C53.7067 12.0362 53.6695 12.0516 53.6332 12.0689C53.6204 12.0689 53.6093 12.0944 53.5949 12.1007C53.5456 12.1183 53.5026 12.1198 53.4548 12.139C53.4309 12.1485 53.4055 12.1676 53.3816 12.1772C53.3632 12.1813 53.3451 12.1866 53.3274 12.1931L53.3004 12.2202C53.2792 12.2284 53.2573 12.2348 53.2351 12.2393C53.2064 12.2488 53.1793 12.2727 53.1539 12.2823H53.1316C53.1188 12.2823 53.1109 12.303 53.0997 12.3093C53.0628 12.3239 53.0266 12.3403 52.9914 12.3587C52.9612 12.3778 52.9389 12.4128 52.9102 12.432C52.8816 12.4511 52.8561 12.4447 52.829 12.4558C52.8019 12.467 52.8115 12.4686 52.8051 12.4718C52.7717 12.4813 52.7478 12.4574 52.7159 12.4718C52.6616 12.4797 52.6061 12.4723 52.5557 12.4503C52.5053 12.4284 52.4621 12.3928 52.4309 12.3476C52.4182 12.33 52.4166 12.3077 52.4038 12.2902C52.3911 12.2727 52.3784 12.2663 52.372 12.252C52.3568 12.192 52.3545 12.1295 52.3652 12.0686C52.3759 12.0077 52.3994 11.9497 52.4341 11.8985L52.458 11.8412C52.4787 11.8141 52.5328 11.803 52.5615 11.7839C52.5901 11.7647 52.6156 11.7472 52.6443 11.7329L52.6857 11.717C52.6937 11.717 52.7 11.701 52.7096 11.6979C52.7191 11.6947 52.7478 11.6979 52.7701 11.6867C52.7924 11.6756 52.7876 11.6724 52.794 11.6676L52.837 11.6565C52.8553 11.6421 52.8745 11.6288 52.8943 11.6167C52.9182 11.6071 52.9437 11.6167 52.9723 11.6167C53.001 11.6167 53.0026 11.6007 53.0137 11.5959H53.0456L53.0838 11.5816H53.1109C53.1204 11.5816 53.13 11.5641 53.1379 11.5625H53.1953C53.2303 11.5514 53.2669 11.5338 53.3004 11.5195C53.3116 11.5118 53.3217 11.5027 53.3306 11.4924C53.3402 11.4924 53.3481 11.4924 53.3577 11.4845C53.3672 11.4765 53.4007 11.4574 53.4198 11.4495H53.4628C53.4771 11.4495 53.4946 11.4303 53.509 11.4272H53.5711L53.6284 11.3969H53.6682C53.6777 11.3969 53.6873 11.3778 53.6984 11.3746H53.7494C53.7828 11.3635 53.8322 11.3396 53.8641 11.3268H53.9071C53.9198 11.3268 53.9325 11.3061 53.9453 11.3014L54.0121 11.2886C54.0854 11.2584 54.1571 11.2106 54.2319 11.1851H54.2749C54.337 11.1644 54.4039 11.131 54.4644 11.1087C54.4994 11.0943 54.5344 11.0959 54.5679 11.0816C54.6013 11.0673 54.587 11.0641 54.595 11.0577C54.6177 11.0463 54.6411 11.0362 54.665 11.0275C54.6953 11.0147 54.7319 11.0163 54.7622 11.0036C54.7924 10.9908 54.7845 10.9861 54.7956 10.9813C54.8067 10.9765 54.8545 10.9813 54.8816 10.9622C54.9087 10.9431 54.9978 10.9128 55.052 10.8953H55.1013C55.1268 10.8842 55.1555 10.8603 55.1826 10.8491H55.2255C55.2431 10.8491 55.2622 10.8252 55.2797 10.8189C55.2972 10.8125 55.3068 10.8189 55.3211 10.8189L55.3912 10.7838H55.4421C55.5456 10.7424 55.6666 10.7297 55.7733 10.6915C55.7909 10.6818 55.8079 10.6712 55.8243 10.6596C55.8816 10.6357 55.9358 10.6294 55.9947 10.6103C56.0536 10.5912 56.1332 10.5561 56.1953 10.5322H56.2494C56.2622 10.5322 56.2765 10.5163 56.2893 10.5131C56.302 10.5099 56.3338 10.5131 56.3545 10.502C56.3777 10.4865 56.4022 10.4732 56.4278 10.4622H56.4708C56.4924 10.4519 56.5127 10.4391 56.5313 10.424C56.5536 10.4112 56.5791 10.4128 56.6046 10.4017C56.63 10.3905 56.6507 10.3682 56.6746 10.3587L56.7256 10.3475C56.7399 10.3475 56.7574 10.3252 56.7717 10.3189H56.81C56.8227 10.3189 56.8339 10.3013 56.845 10.2966C56.8928 10.2743 56.9421 10.2568 56.9883 10.2376L57.0616 10.2185C57.0966 10.2042 57.138 10.1787 57.173 10.1644L57.2479 10.1564C57.2797 10.1437 57.31 10.1198 57.3402 10.1071C57.3705 10.0943 57.431 10.0768 57.4788 10.0561C57.4947 10.0561 57.5058 10.0306 57.5218 10.0259C57.5377 10.0211 57.595 10.0147 57.63 9.99879C57.6411 9.98992 57.6528 9.98194 57.6651 9.9749C57.7017 9.96057 57.7399 9.95579 57.7765 9.93987C57.8132 9.92394 57.8291 9.90643 57.8546 9.89369H57.896C57.9692 9.86821 58.0552 9.83796 58.1253 9.80929C58.1396 9.7456 58.1683 9.75197 58.181 9.74401ZM32.0341 9.94942C32.0675 9.94942 32.0675 9.96375 32.0866 9.97172H32.1455L32.2108 10.0147C32.2665 10.0402 32.3318 10.0641 32.3923 10.0848H32.4433C32.4815 10.0943 32.515 10.1023 32.5548 10.115C32.5946 10.1278 32.6519 10.1676 32.7029 10.1851C32.7538 10.2026 32.835 10.2281 32.9035 10.2472C32.9369 10.2568 32.9656 10.2472 32.999 10.2631C33.0114 10.2682 33.0231 10.2746 33.0341 10.2822H33.0739C33.1264 10.2982 33.1901 10.322 33.2331 10.3412C33.2761 10.3603 33.3111 10.3412 33.3494 10.3634C33.3876 10.3857 33.3812 10.3841 33.3987 10.3905C33.4529 10.408 33.5118 10.4192 33.558 10.4335H33.5978C33.6269 10.444 33.6551 10.4568 33.6822 10.4717C33.714 10.4845 33.7459 10.4829 33.7793 10.4956C33.8127 10.5084 33.843 10.5322 33.8717 10.545C33.9003 10.5577 33.929 10.545 33.9561 10.5577C33.9856 10.5725 34.0143 10.589 34.042 10.6071C34.1085 10.6378 34.1765 10.6649 34.2459 10.6883C34.3255 10.7154 34.4194 10.7138 34.4975 10.7345C34.5212 10.736 34.5448 10.7402 34.5675 10.7472C34.6041 10.7656 34.6387 10.7875 34.671 10.8125C34.6901 10.8252 34.6997 10.8491 34.722 10.8587C34.7443 10.8682 34.7682 10.8587 34.7952 10.8587C34.8223 10.8587 34.8876 10.8794 34.9386 10.8937C34.9722 10.9014 35.0044 10.9143 35.0341 10.9319L35.058 10.959H35.1042C35.1255 10.9678 35.1462 10.9779 35.1663 10.9893H35.2443C35.2613 10.9973 35.2777 11.0064 35.2937 11.0163C35.343 11.037 35.386 11.045 35.437 11.0657C35.4625 11.0768 35.4863 11.0975 35.5102 11.1087C35.5281 11.1133 35.5461 11.117 35.5644 11.1198C35.5803 11.1198 35.5994 11.1389 35.6153 11.1437H35.6727C35.7013 11.1533 35.7379 11.1692 35.7698 11.1787H35.8192C35.8287 11.1787 35.8383 11.1915 35.8462 11.1947C35.894 11.209 35.9418 11.1947 35.9864 11.217C36.0309 11.2393 36.0707 11.2584 36.1106 11.2759C36.1504 11.2934 36.2172 11.3109 36.2698 11.3268H36.351L36.4163 11.3507C36.4593 11.3651 36.4991 11.3619 36.5405 11.3778C36.5485 11.3778 36.5596 11.3937 36.566 11.3969C36.5723 11.4001 36.6169 11.3969 36.636 11.4128C36.6552 11.4287 36.6966 11.4526 36.7252 11.4622H36.7491L36.8255 11.4861H36.8685L36.9338 11.5163H36.9927C37.0088 11.5271 37.0242 11.5388 37.0389 11.5514H37.0724C37.0962 11.5609 37.1201 11.5784 37.1424 11.5864H37.1743C37.2061 11.5864 37.238 11.6087 37.2746 11.6167H37.3367C37.4276 11.6484 37.5142 11.6912 37.5947 11.744C37.6299 11.7604 37.6661 11.7748 37.7029 11.787C37.7323 11.8076 37.7586 11.8323 37.781 11.8603L37.8542 11.9272C37.8684 11.9514 37.8801 11.977 37.8893 12.0036C37.8988 12.0275 37.9243 12.0482 37.9307 12.0737C37.9407 12.1387 37.933 12.2053 37.9084 12.2663C37.8858 12.3231 37.8558 12.3767 37.8192 12.4256C37.7561 12.4689 37.6836 12.4964 37.6076 12.5058C37.5317 12.5153 37.4546 12.5063 37.3829 12.4797C37.3542 12.4797 37.3335 12.4797 37.3048 12.4654C37.2762 12.4511 37.2284 12.3969 37.1886 12.3683C37.1576 12.3452 37.1239 12.3259 37.0883 12.3109C37.0628 12.2998 37.0262 12.3109 36.9959 12.3109C36.965 12.3065 36.9349 12.2974 36.9068 12.2839C36.8526 12.2504 36.8446 12.1756 36.7794 12.1485C36.7141 12.1214 36.6854 12.1485 36.6329 12.1485C36.598 12.1398 36.5643 12.127 36.5325 12.1103C36.523 12.1103 36.515 12.0912 36.5055 12.088C36.4959 12.0848 36.4497 12.088 36.4195 12.088C36.3976 12.0766 36.3768 12.0633 36.3574 12.0482C36.3218 12.0362 36.2857 12.0261 36.2491 12.0179C36.2332 12.008 36.2167 11.9989 36.1997 11.9909H36.1567C36.1424 11.9909 36.1313 11.967 36.1185 11.9606C36.1058 11.9542 36.0596 11.9431 36.0293 11.9288C36.0129 11.9185 35.9975 11.9068 35.9832 11.8937C35.9609 11.881 35.9322 11.8778 35.9099 11.8635L35.8908 11.8444L35.7316 11.7934C35.7086 11.7819 35.6863 11.7691 35.6647 11.7552L35.6456 11.7281L35.6105 11.717C35.5963 11.7087 35.5825 11.6996 35.5691 11.6899C35.5357 11.6724 35.5007 11.6692 35.4672 11.6501C35.4338 11.631 35.3749 11.5864 35.3287 11.5577C35.2934 11.5457 35.2572 11.5367 35.2204 11.5307C35.2061 11.5307 35.1902 11.5131 35.1742 11.5084C35.152 11.5053 35.1301 11.5 35.1089 11.4924C35.093 11.4829 35.0771 11.4654 35.0612 11.4574C35.0453 11.4494 35.0038 11.4431 34.9768 11.4272C34.9457 11.4044 34.916 11.38 34.8876 11.3539C34.8876 11.3428 34.8765 11.3284 34.8653 11.3221L34.765 11.2982C34.6862 11.2812 34.6086 11.2594 34.5325 11.2329C34.4777 11.207 34.4245 11.1777 34.3733 11.1453C34.3516 11.1357 34.3292 11.1277 34.3064 11.1214C34.2905 11.1214 34.2809 11.0991 34.2682 11.0896C34.2554 11.08 34.2411 11.0896 34.2252 11.0752C34.2021 11.0554 34.1776 11.0373 34.1519 11.0211C34.1254 11.0106 34.0982 11.0016 34.0707 10.994C34.0261 10.9749 33.9768 10.9447 33.9322 10.9287C33.8876 10.9128 33.8653 10.9192 33.8319 10.9049C33.7984 10.8905 33.7745 10.8682 33.7459 10.8587H33.7156C33.6854 10.8475 33.6551 10.8221 33.6264 10.8093C33.604 10.8033 33.5822 10.7953 33.5611 10.7854C33.5437 10.7734 33.5256 10.7622 33.507 10.752C33.4832 10.7437 33.4598 10.7341 33.4369 10.7233C33.4259 10.715 33.4142 10.7075 33.4019 10.701C33.3876 10.701 33.3764 10.701 33.3637 10.6899C33.3389 10.6721 33.3128 10.6561 33.2857 10.6421C33.2602 10.631 33.2315 10.6326 33.2013 10.6198C33.1455 10.5959 33.0787 10.5657 33.0277 10.5386C32.9767 10.5115 32.9513 10.5131 32.9115 10.4956C32.8704 10.475 32.8305 10.4522 32.792 10.4271C32.7665 10.4112 32.7379 10.4096 32.714 10.3953C32.6901 10.381 32.6869 10.365 32.6678 10.3571L32.5866 10.338C32.5548 10.3252 32.5277 10.3061 32.4943 10.295L32.3732 10.2679C32.3541 10.2583 32.3414 10.2392 32.3239 10.2297L32.2888 10.2169C32.2745 10.2169 32.2602 10.1962 32.2458 10.1899C32.2315 10.1835 32.2251 10.1899 32.2156 10.1899L32.1646 10.131C32.1405 10.1184 32.1148 10.1093 32.0882 10.1039H32.0372C32.0134 10.0927 32.0006 10.0673 31.9831 10.0497C31.9797 10.0254 31.9797 10.0008 31.9831 9.97649L32.0341 9.94942ZM36.5182 14.8651C36.5519 14.8687 36.5854 14.8741 36.6185 14.881H36.6647C36.7204 14.8922 36.7985 14.897 36.8494 14.9081C36.9004 14.9193 36.9036 14.8906 36.9386 14.9081L36.9768 14.924H37.031C37.0453 14.924 37.0564 14.9431 37.0708 14.9479H37.1042C37.1185 14.9479 37.1313 14.9718 37.144 14.9782C37.1568 14.9845 37.1982 14.9925 37.2205 15.01C37.2669 15.0564 37.3012 15.1135 37.3204 15.1762C37.3395 15.239 37.343 15.3055 37.3303 15.3699C37.316 15.4161 37.3303 15.4543 37.3017 15.4893C37.2479 15.5558 37.184 15.6133 37.1122 15.6597C37.0771 15.674 37.0421 15.6725 37.0039 15.6868C36.9657 15.7011 36.9402 15.7457 36.9004 15.76C36.8606 15.7744 36.8032 15.7346 36.773 15.725C36.7427 15.7154 36.73 15.725 36.7029 15.725C36.6759 15.725 36.6838 15.7139 36.6679 15.725C36.652 15.7361 36.6169 15.7425 36.5915 15.7489C36.5533 15.7542 36.5144 15.7498 36.4784 15.7361H36.2969C36.2491 15.7361 36.2188 15.7234 36.1854 15.7218C36.0864 15.7316 35.9866 15.7316 35.8876 15.7218C35.8367 15.7075 35.7905 15.7409 35.7443 15.7218C35.6981 15.7027 35.6169 15.7011 35.566 15.69H35.5086C35.4935 15.6859 35.4781 15.6832 35.4625 15.682C35.3662 15.6927 35.2694 15.6964 35.1726 15.6932C35.1298 15.699 35.0865 15.699 35.0437 15.6932L34.9784 15.674C34.9465 15.674 34.9242 15.6916 34.886 15.682C34.8669 15.6722 34.8453 15.6683 34.8239 15.6709C34.7971 15.6758 34.7695 15.6758 34.7427 15.6709C34.7161 15.6625 34.689 15.6561 34.6615 15.6518C34.6504 15.6499 34.6391 15.6499 34.628 15.6518C34.5755 15.6629 34.5325 15.6406 34.4879 15.6518C34.4433 15.6629 34.4115 15.6884 34.3717 15.6756C34.3319 15.6629 34.3303 15.6422 34.3096 15.6295C34.2795 15.6121 34.2466 15.6003 34.2124 15.5944H34.0468L33.8733 15.6374C33.8199 15.6427 33.7661 15.6389 33.714 15.6263C33.6885 15.6135 33.6647 15.5833 33.636 15.5753C33.6073 15.5674 33.5739 15.596 33.5516 15.6072C33.5339 15.6122 33.5158 15.616 33.4975 15.6183C33.4346 15.6183 33.372 15.6103 33.3111 15.5944C33.2697 15.5944 33.2029 15.6056 33.1519 15.5944L32.9194 15.5753C32.8718 15.5889 32.822 15.5927 32.7729 15.5865C32.7013 15.5705 32.593 15.5865 32.5134 15.5674H32.3987C32.3207 15.5498 32.2172 15.5674 32.1344 15.5435H31.9417C31.9173 15.5418 31.8928 15.5418 31.8684 15.5435H31.8032L31.714 15.5196H31.6519C31.6105 15.5196 31.5563 15.5196 31.5213 15.5037H31.343L31.3031 15.4925H31.1885C31.0869 15.4814 30.9844 15.4814 30.8828 15.4925H30.6343C30.558 15.5087 30.4799 15.5156 30.4019 15.5132H30.3095L30.2554 15.4973C30.2265 15.4954 30.1978 15.4916 30.1694 15.4861C30.1407 15.475 30.12 15.4432 30.0882 15.4352C30.0401 15.4431 29.9927 15.4548 29.9464 15.4702C29.8987 15.4814 29.878 15.4479 29.8493 15.44C29.7506 15.4097 29.6757 15.4288 29.6598 15.3126C29.7133 15.2866 29.771 15.2705 29.8302 15.2648H29.9146C30.0351 15.2505 30.1565 15.2468 30.2777 15.2537C30.3276 15.2512 30.3772 15.2437 30.4257 15.2314C30.4703 15.2202 30.5261 15.2314 30.5643 15.2154H30.6375C30.7258 15.2147 30.814 15.2238 30.9003 15.2425C30.9754 15.2482 31.0508 15.2378 31.1216 15.2123C31.1444 15.2109 31.1673 15.2109 31.1901 15.2123C31.2094 15.2072 31.2297 15.2072 31.249 15.2123H31.2904C31.3321 15.2297 31.3776 15.2363 31.4226 15.2314L31.5117 15.2075H31.5802C31.5993 15.2075 31.62 15.1884 31.6391 15.1836C31.6582 15.1788 31.7267 15.1836 31.7618 15.1836C31.7968 15.1836 31.8207 15.1709 31.8477 15.1661C31.9162 15.1502 31.9672 15.1931 32.0404 15.1756L32.0993 15.1613H32.2347L32.3079 15.1374H32.3764C32.4099 15.1374 32.4528 15.1263 32.4847 15.1183C32.5057 15.1163 32.5269 15.1191 32.5468 15.1263C32.5833 15.1282 32.6198 15.1244 32.6551 15.1151H32.714C32.7634 15.1056 32.8239 15.1151 32.8732 15.1151C33.0134 15.0833 33.1822 15.0912 33.3143 15.061C33.3656 15.0554 33.4174 15.0619 33.4656 15.0801H33.5611C33.5866 15.0801 33.6344 15.0594 33.6774 15.0801C33.7204 15.1008 33.7204 15.1247 33.7666 15.1119C33.8127 15.0992 33.8637 15.0658 33.9099 15.053H33.9672C33.9815 15.0548 33.9959 15.0548 34.0102 15.053C34.0516 15.0435 34.0835 15.0658 34.1264 15.053L34.2061 15.0339H34.257L34.4497 14.9861C34.4935 14.9788 34.5381 14.9788 34.5819 14.9861H34.6583C34.6741 14.9894 34.6903 14.9894 34.7061 14.9861C34.7634 14.9686 34.851 14.9861 34.9147 14.9782C34.9289 14.9727 34.9427 14.9663 34.9561 14.9591H34.9991L35.0771 14.9431C35.1103 14.9405 35.1436 14.946 35.1742 14.9591H35.2507C35.2602 14.9591 35.2746 14.9718 35.2937 14.9591C35.3717 14.9384 35.4943 14.9384 35.5723 14.9208C35.612 14.9169 35.652 14.9169 35.6918 14.9208C35.7282 14.9246 35.7651 14.9208 35.8 14.9097H35.9274C35.9529 14.9017 35.9991 14.8954 36.023 14.8906C36.0422 14.8852 36.0626 14.8852 36.0819 14.8906C36.1171 14.8946 36.1527 14.8897 36.1854 14.8763C36.2145 14.873 36.244 14.8769 36.2714 14.8874C36.3064 14.8874 36.3415 14.8731 36.3637 14.8683C36.4243 14.8651 36.4752 14.8938 36.5182 14.8651ZM53.6539 14.9001C53.6939 14.9016 53.7338 14.9059 53.7733 14.9129H53.8322C53.8717 14.9204 53.9122 14.9204 53.9516 14.9129C54.0167 14.901 54.0831 14.8972 54.1491 14.9017L54.3386 14.94H54.3959C54.4489 14.9433 54.5021 14.9433 54.5552 14.94H54.6443C54.6533 14.9388 54.6624 14.9388 54.6714 14.94C54.7001 14.9458 54.7283 14.9538 54.7558 14.9638H54.8067C54.829 14.9638 54.8577 14.9845 54.88 14.9909H54.923C54.9341 14.9909 54.9517 15.0037 54.9612 15.0052C54.9708 15.0068 55.0042 14.9909 55.0345 15.0052L55.1125 15.0244C55.1503 15.0326 55.1894 15.0326 55.2271 15.0244H55.3131C55.3336 15.0203 55.3547 15.0203 55.3752 15.0244C55.3863 15.0309 55.398 15.0362 55.4103 15.0403C55.449 15.0376 55.4878 15.0376 55.5265 15.0403C55.5618 15.0465 55.5974 15.0502 55.6332 15.0514H55.7001L55.7192 15.0626H55.8084C55.8545 15.0753 55.9214 15.0785 55.9676 15.0896C55.992 15.0914 56.0165 15.0914 56.0408 15.0896C56.1151 15.1032 56.1911 15.1032 56.2654 15.0896H56.544C56.56 15.0896 56.5902 15.0769 56.6173 15.0896C56.6444 15.1024 56.7128 15.0896 56.7606 15.0896C56.8609 15.1119 56.9835 15.1135 57.0791 15.1406H57.2686C57.3521 15.1406 57.4354 15.1497 57.517 15.1677C57.5549 15.1742 57.5937 15.1742 57.6316 15.1677H57.6858C57.7388 15.1629 57.792 15.1629 57.845 15.1677H57.9215C57.9398 15.1731 57.9579 15.1795 57.9756 15.1868C57.9909 15.1895 58.0065 15.1895 58.0218 15.1868C58.044 15.1868 58.0661 15.1906 58.0871 15.1979H58.1699C58.2543 15.217 58.3291 15.2186 58.4087 15.2361H58.5409C58.631 15.2288 58.7215 15.2288 58.8116 15.2361C58.8332 15.2393 58.8552 15.2393 58.8769 15.2361C58.9252 15.2322 58.9739 15.2376 59.0202 15.2521C59.052 15.2521 59.111 15.2425 59.1508 15.2521C59.1702 15.2565 59.1903 15.2565 59.2097 15.2521C59.2238 15.2484 59.2386 15.2484 59.2527 15.2521L59.3833 15.2791C59.4406 15.2935 59.5282 15.2505 59.5696 15.26L59.603 15.276C59.6299 15.2807 59.6574 15.2807 59.6842 15.276C59.7285 15.2695 59.7738 15.2733 59.8164 15.2871H59.8976C59.962 15.284 60.0266 15.2877 60.0903 15.2982C60.1922 15.3237 60.318 15.2982 60.4231 15.3253C60.4677 15.3381 60.5059 15.3349 60.5202 15.3763C60.5346 15.4177 60.4884 15.4129 60.4772 15.4304C60.4661 15.4479 60.4661 15.4559 60.4533 15.4654C60.3772 15.4794 60.2996 15.4832 60.2225 15.4766H60.0489C60.0026 15.4678 59.955 15.4678 59.9087 15.4766C59.8914 15.4866 59.8712 15.4906 59.8514 15.4877C59.818 15.4877 59.7766 15.4877 59.7431 15.4734H59.6842C59.6385 15.4638 59.5914 15.4638 59.5457 15.4734C59.5358 15.4763 59.5253 15.4763 59.5154 15.4734C59.4922 15.4701 59.4686 15.4701 59.4454 15.4734C59.3976 15.4846 59.3212 15.4623 59.267 15.4734C59.2095 15.4822 59.151 15.4822 59.0934 15.4734H59.0234C58.9678 15.4614 58.9102 15.4614 58.8546 15.4734H58.7654L58.6954 15.4925C58.6444 15.5053 58.5855 15.4925 58.5361 15.4925H58.3116C58.2467 15.5061 58.1803 15.511 58.1141 15.5068H58.0027C57.95 15.4973 57.8961 15.4973 57.8434 15.5068H57.7479L57.6937 15.5228H57.5775C57.5329 15.5339 57.4628 15.5355 57.4183 15.5467H57.3593C57.3112 15.5566 57.262 15.5614 57.2128 15.561H57.1476C57.0453 15.5711 56.942 15.5647 56.8418 15.5419C56.7998 15.5336 56.7565 15.5336 56.7144 15.5419H56.6603L56.5552 15.5769C56.4883 15.596 56.4151 15.5897 56.3482 15.6088C56.3268 15.6162 56.3061 15.6253 56.2861 15.6358C56.2451 15.644 56.2029 15.644 56.1619 15.6358C56.0791 15.6167 56.0026 15.6104 55.9182 15.5928C55.8912 15.5928 55.8657 15.604 55.8482 15.6088H55.7701C55.7208 15.6215 55.673 15.639 55.6236 15.6518H55.5042C55.4188 15.6589 55.333 15.643 55.2558 15.6056H55.0822L54.9771 15.6406C54.9556 15.6577 54.9321 15.6721 54.9071 15.6836L54.7717 15.6947C54.7583 15.6992 54.7438 15.6992 54.7303 15.6947C54.7017 15.6947 54.6746 15.6772 54.6491 15.6709C54.618 15.6656 54.5863 15.6656 54.5552 15.6709C54.5329 15.6709 54.5042 15.6597 54.4851 15.6565C54.4555 15.6546 54.4257 15.6584 54.3975 15.6677H54.3083L54.243 15.6836C54.2016 15.6932 54.173 15.6725 54.1348 15.6836C54.0965 15.6947 54.0631 15.7091 54.0153 15.6995C53.9562 15.6908 53.8961 15.6908 53.837 15.6995C53.7972 15.7091 53.7621 15.725 53.7207 15.7346C53.7081 15.7372 53.6951 15.7372 53.6825 15.7346H53.6395C53.595 15.7252 53.5497 15.7199 53.5042 15.7186C53.4612 15.7186 53.415 15.7553 53.3577 15.7377C53.3274 15.7298 53.3147 15.6963 53.2908 15.6804C53.2669 15.6645 53.2446 15.6565 53.2223 15.6422L53.1841 15.5992C53.1459 15.5721 53.1029 15.5578 53.079 15.518C53.0551 15.4782 53.0647 15.4447 53.0519 15.4177C53.0381 15.3872 53.0264 15.3558 53.0169 15.3237C53.0129 15.2951 53.0168 15.2659 53.0281 15.2393C53.0612 15.173 53.1059 15.1131 53.1602 15.0626L53.2335 15.0339C53.2558 15.0244 53.2781 15.0052 53.2988 14.9957L53.3386 14.9845C53.3497 14.9845 53.3609 14.9623 53.3736 14.9575C53.3863 14.9527 53.4102 14.9575 53.4341 14.9463C53.458 14.9352 53.4676 14.924 53.4803 14.9193C53.5344 14.8922 53.6141 14.9288 53.6539 14.9001ZM52.6682 18.0435C52.7876 18.0435 52.743 18.0833 52.8003 18.1136H52.8449L52.8927 18.1327C52.9182 18.1438 52.9293 18.1741 52.9548 18.1836C52.9976 18.1935 53.0415 18.1972 53.0854 18.1948C53.1033 18.1923 53.1216 18.1923 53.1395 18.1948C53.208 18.2314 53.2796 18.2696 53.3529 18.2999C53.3885 18.3079 53.4232 18.3197 53.4564 18.3349C53.5245 18.3933 53.6 18.4426 53.6809 18.4814L53.7574 18.4894L53.8625 18.5244H53.8975C53.9204 18.5439 53.9422 18.5646 53.9628 18.5865C54.0026 18.6168 54.0408 18.6486 54.0822 18.6757C54.1655 18.7199 54.2523 18.7572 54.3418 18.7872C54.38 18.8031 54.4087 18.8397 54.4469 18.8572C54.4851 18.8747 54.4946 18.8716 54.5233 18.8843C54.552 18.897 54.5567 18.9082 54.5743 18.9145C54.5918 18.9209 54.6236 18.9241 54.6507 18.9353C54.6815 18.951 54.7103 18.9702 54.7367 18.9926C54.7823 19.0223 54.8302 19.0484 54.88 19.0706C54.9214 19.0881 54.9692 19.0929 55.0106 19.112C55.052 19.1311 55.0806 19.1566 55.1141 19.1709C55.1475 19.1853 55.173 19.1709 55.2001 19.19C55.2733 19.2235 55.3354 19.2808 55.4119 19.3142C55.458 19.3318 55.5074 19.3333 55.552 19.3525C55.5966 19.3716 55.6459 19.3986 55.6905 19.4209C55.7351 19.4432 55.7797 19.4512 55.8259 19.4719C55.8498 19.4865 55.8723 19.5036 55.8928 19.5228C55.9166 19.5388 55.9501 19.5404 55.9771 19.5563C56.0042 19.5722 56.0106 19.5897 56.0313 19.5993L56.1348 19.6184C56.1587 19.6184 56.1842 19.6423 56.2096 19.6502C56.2351 19.6582 56.2574 19.6502 56.2829 19.6614C56.3084 19.6725 56.3307 19.6884 56.353 19.6964H56.3912C56.4358 19.7139 56.4628 19.7585 56.5058 19.7824C56.5854 19.8222 56.6651 19.8541 56.7431 19.8939L56.7925 19.9098L56.8084 19.9321L56.8546 19.948C56.888 19.9687 56.9182 19.999 56.9517 20.0213C57.0019 20.0536 57.0553 20.0808 57.1109 20.1025L57.1651 20.1375C57.2089 20.1473 57.2516 20.1617 57.2925 20.1805L57.3243 20.2108C57.337 20.2203 57.3593 20.2203 57.3737 20.2299C57.3869 20.2419 57.4013 20.2525 57.4167 20.2617C57.4715 20.2788 57.5248 20.3007 57.5759 20.327C57.5982 20.3397 57.6285 20.3541 57.6507 20.37C57.673 20.3859 57.6794 20.4034 57.7001 20.4114C57.7208 20.4194 57.7574 20.4257 57.7893 20.4385C57.8211 20.4512 57.8785 20.4894 57.9199 20.5085C57.9613 20.5276 58.0011 20.5324 58.0058 20.5818C57.9947 20.5945 57.9947 20.6104 57.9788 20.6168C57.9372 20.622 57.8951 20.6193 57.8546 20.6088C57.8307 20.6009 57.8116 20.5802 57.7893 20.5706H57.732C57.7191 20.5633 57.7073 20.5542 57.6969 20.5436C57.6653 20.5289 57.6329 20.5162 57.5998 20.5053C57.5488 20.4799 57.474 20.5053 57.4214 20.4783C57.3805 20.4464 57.338 20.4166 57.2941 20.3891C57.258 20.3733 57.2207 20.3605 57.1826 20.3509C57.1444 20.3397 57.1077 20.3509 57.0743 20.3509C57.0409 20.3509 57.0249 20.3302 57.0042 20.3238H56.9772C56.9374 20.3111 56.8975 20.284 56.8609 20.2697C56.8243 20.2553 56.794 20.2553 56.7606 20.2378C56.7272 20.2203 56.7272 20.2171 56.7112 20.2108C56.6953 20.2044 56.6603 20.2108 56.6332 20.1964C56.6061 20.1821 56.6173 20.1805 56.6093 20.1773C56.6014 20.1741 56.5663 20.1678 56.544 20.1582C56.5297 20.1476 56.5142 20.1385 56.4979 20.1311C56.4176 20.0893 56.3352 20.0515 56.251 20.0181C56.2144 20.0085 56.1666 20.0181 56.1348 20.0021H56.0759C56.0217 19.9909 55.9684 19.9754 55.9166 19.956C55.9007 19.956 55.8864 19.9321 55.8705 19.9257C55.8426 19.916 55.8155 19.9043 55.7893 19.8907C55.7685 19.8764 55.7574 19.8493 55.7319 19.8397C55.7064 19.8302 55.6523 19.819 55.6157 19.8095H55.5615L55.4803 19.7808C55.4469 19.7713 55.4182 19.7808 55.388 19.7665C55.3577 19.7521 55.3625 19.7506 55.3529 19.7474C55.3052 19.7299 55.2494 19.7474 55.2064 19.7314C55.1634 19.7155 55.0854 19.6741 55.0281 19.6502C55.0106 19.6502 54.9962 19.6502 54.9819 19.6343C54.9544 19.6144 54.9257 19.5963 54.8959 19.5802C54.8593 19.5642 54.8195 19.5674 54.7813 19.5531C54.7431 19.5388 54.7319 19.526 54.708 19.5181C54.6841 19.5101 54.638 19.5181 54.5997 19.499C54.5615 19.4798 54.5615 19.4814 54.544 19.4767C54.5265 19.4719 54.4676 19.4767 54.4246 19.4607C54.3816 19.4448 54.337 19.4321 54.294 19.4177C54.251 19.4034 54.2399 19.4177 54.208 19.4034C54.1379 19.3779 54.0679 19.3286 53.9962 19.3063C53.9246 19.284 53.8895 19.3063 53.837 19.2872C53.7844 19.2681 53.7207 19.2505 53.6634 19.2362H53.5965C53.5281 19.2139 53.4516 19.1789 53.3847 19.1502L53.2988 19.1279C53.2988 19.1279 53.2844 19.1136 53.2765 19.112H53.2303C53.2096 19.112 53.1873 19.0865 53.1682 19.0802H53.087C53.0583 19.0802 53.0344 19.0515 53.0089 19.0419H52.9548C52.9214 19.0324 52.8879 19.0069 52.8545 18.9958H52.821C52.794 18.9846 52.7717 18.9575 52.7382 18.9464C52.7048 18.9353 52.6315 18.9544 52.579 18.9464C52.481 18.8994 52.3962 18.8288 52.3322 18.741C52.3262 18.7275 52.3209 18.7136 52.3163 18.6996C52.301 18.6765 52.2882 18.652 52.278 18.6263V18.5865C52.2647 18.4909 52.2862 18.3937 52.3386 18.3126C52.3386 18.2983 52.3386 18.2792 52.3513 18.2664C52.364 18.2537 52.3831 18.2457 52.3975 18.2346C52.4118 18.2235 52.4437 18.1868 52.4659 18.1614C52.5296 18.0897 52.6156 18.0849 52.6682 18.0435ZM37.6154 18.19C37.706 18.1879 37.7947 18.2165 37.867 18.2712C37.8988 18.2864 37.9274 18.3074 37.9514 18.3333C37.9668 18.3586 37.9785 18.386 37.9864 18.4145C38.0197 18.4688 38.0332 18.533 38.0246 18.5961C38.0058 18.6571 37.9712 18.712 37.9243 18.7553C37.9115 18.7665 37.8877 18.7712 37.8781 18.7856C37.8685 18.7999 37.8431 18.9066 37.8128 18.9177C37.7826 18.9289 37.7842 18.9257 37.7666 18.9337C37.7322 18.9456 37.6971 18.9557 37.6615 18.9639C37.616 18.9666 37.5707 18.973 37.5262 18.983C37.4577 19.0133 37.4084 19.069 37.3367 19.0993L37.2634 19.1184C37.2451 19.129 37.226 19.138 37.2061 19.1454H37.1552C37.1329 19.1454 37.1026 19.1661 37.0819 19.1725C37.0357 19.1853 36.9927 19.1725 36.9466 19.1868C36.9248 19.1966 36.904 19.2083 36.8845 19.2219C36.8641 19.2294 36.8434 19.2358 36.8224 19.241C36.7778 19.2601 36.7348 19.2951 36.687 19.3111C36.5978 19.3397 36.5071 19.3572 36.4163 19.3843L36.3271 19.3955C36.308 19.405 36.2841 19.4257 36.2618 19.4353C36.2395 19.4448 36.1774 19.4528 36.1313 19.4703C36.0851 19.4878 36.0755 19.5021 36.05 19.5117C35.9925 19.5301 35.934 19.5455 35.8749 19.5579C35.8446 19.569 35.8096 19.5881 35.7793 19.5977C35.7491 19.6072 35.7029 19.6072 35.6631 19.62L35.4625 19.6853C35.4067 19.7044 35.359 19.7044 35.3032 19.7251C35.2921 19.7251 35.2793 19.7426 35.2682 19.7474C35.2284 19.7649 35.1933 19.7665 35.1551 19.7824C35.1169 19.7983 35.0421 19.8445 34.9959 19.8684C34.9752 19.8779 34.9593 19.8684 34.9338 19.8795C34.9083 19.8907 34.8494 19.9146 34.8144 19.9289C34.7793 19.9432 34.7379 19.9432 34.6981 19.9607C34.6854 19.9607 34.6726 19.9814 34.6599 19.9878C34.6089 20.0101 34.558 20.0149 34.5007 20.0372C34.4433 20.0595 34.3685 20.1041 34.3032 20.1264H34.257C34.2166 20.1369 34.1767 20.1497 34.1376 20.1646L34.0675 20.1805C34.0341 20.1948 34.0213 20.2378 33.9863 20.2537L33.8701 20.2808H33.6647C33.6392 20.2808 33.6312 20.3111 33.6153 20.327C33.5994 20.3429 33.5994 20.327 33.5914 20.3381C33.5532 20.3684 33.5293 20.4098 33.4799 20.4305C33.4306 20.4512 33.3589 20.4416 33.3096 20.4623L33.2522 20.4974C33.2076 20.5149 33.1615 20.5197 33.1201 20.5388C33.0787 20.5579 33.0802 20.569 33.058 20.5786L33.0006 20.5897C32.8796 20.6391 32.7506 20.6964 32.6296 20.749C32.5771 20.7713 32.5325 20.776 32.4704 20.7952C32.4401 20.8079 32.413 20.8366 32.3812 20.8493C32.3493 20.862 32.3127 20.8668 32.2729 20.8811C32.2618 20.8811 32.2506 20.9003 32.2395 20.9034C32.1854 20.9206 32.1289 20.9287 32.0723 20.9273C32.0595 20.9082 32.0468 20.9003 32.0452 20.87C32.0418 20.857 32.0418 20.8432 32.0452 20.8302C32.1567 20.7697 32.257 20.6917 32.3764 20.6407C32.4178 20.6248 32.4592 20.6232 32.4974 20.6057C32.5118 20.6057 32.5293 20.5834 32.5436 20.5754C32.5763 20.5608 32.6098 20.548 32.6439 20.5372C32.6997 20.5133 32.757 20.4719 32.8143 20.448C32.8716 20.4241 32.8939 20.4098 32.9338 20.3939C32.9564 20.3886 32.9783 20.3805 32.999 20.37C33.0345 20.3488 33.0662 20.3219 33.093 20.2904C33.093 20.2776 33.1073 20.2617 33.1201 20.2553C33.1328 20.249 33.1997 20.2362 33.2427 20.2203C33.2857 20.2044 33.3048 20.1853 33.3366 20.1741C33.381 20.1657 33.4246 20.154 33.4672 20.1391C33.5404 20.0961 33.6073 20.034 33.6806 19.9926C33.7113 19.9781 33.7433 19.9663 33.7761 19.9576C33.808 19.9448 33.8414 19.9241 33.8764 19.9098L33.9306 19.8986C33.9926 19.87 34.0522 19.8364 34.1089 19.7983C34.144 19.7776 34.1901 19.7744 34.2252 19.7521C34.2347 19.7521 34.2475 19.7299 34.2602 19.7251C34.386 19.6677 34.5166 19.6279 34.6456 19.5658C34.6789 19.5484 34.7113 19.5292 34.7427 19.5085C34.773 19.4894 34.8064 19.4814 34.8366 19.4623C34.8669 19.4432 34.8685 19.4257 34.8892 19.4146C34.9959 19.3652 35.1153 19.3381 35.2268 19.2919C35.3096 19.2569 35.386 19.2044 35.4768 19.1677C35.5102 19.1534 35.5437 19.1502 35.5787 19.1359C35.6408 19.1072 35.7014 19.0753 35.7602 19.0403C35.7969 19.0165 35.8399 19.0101 35.8749 18.9862C35.9099 18.9623 35.9163 18.9448 35.9449 18.9321C35.9736 18.9193 35.9991 18.9209 36.0262 18.9082C36.0425 18.8984 36.0595 18.8899 36.0771 18.8827C36.1005 18.8779 36.1235 18.871 36.1456 18.862C36.1997 18.8302 36.2618 18.8031 36.316 18.7696C36.3391 18.7509 36.3636 18.7338 36.3892 18.7187C36.4433 18.7043 36.4965 18.6867 36.5485 18.6661C36.566 18.6534 36.5835 18.6343 36.6026 18.6231C36.6217 18.612 36.6376 18.6104 36.652 18.5993C36.6663 18.5881 36.6997 18.5324 36.7332 18.5101C36.7666 18.4878 36.7921 18.4878 36.8192 18.4719C36.8429 18.4537 36.8685 18.4382 36.8956 18.4257C36.9418 18.4098 36.9927 18.4161 37.031 18.3986C37.0692 18.3811 37.0771 18.354 37.101 18.3365C37.166 18.2931 37.2361 18.2578 37.3096 18.2314C37.3415 18.2203 37.3701 18.2314 37.4068 18.2171L37.5294 18.1821C37.5628 18.198 37.5963 18.2028 37.6154 18.19Z" fill="white"/>
<path d="M50.1697 20.3827C49.9181 20.3015 49.7302 20.3334 49.7302 19.905C49.7302 19.3588 50.2079 19.2681 50.2079 18.7028C50.2079 17.9257 49.2668 18.0531 49.2668 17.6231C49.2668 17.3922 49.6809 17.3126 49.6809 17.0594C49.6809 16.7314 49.1952 16.5817 49.1952 16.2632C49.1952 15.5849 49.8497 15.1486 49.8497 14.1931C49.8497 13.053 48.9659 12.5753 48.9659 11.6995C48.9659 11.1421 49.5519 10.9351 49.5519 10.6517C49.5536 10.6259 49.5501 10.6 49.5414 10.5756C49.5328 10.5512 49.5192 10.5289 49.5016 10.5099C49.484 10.491 49.4627 10.4759 49.4391 10.4655C49.4154 10.455 49.3898 10.4496 49.364 10.4494H46.3735V6.33312C46.6631 6.08568 46.8699 5.75541 46.966 5.38681C47.0622 5.01821 47.043 4.629 46.9111 4.27163C46.7793 3.91425 46.541 3.60589 46.2285 3.38809C45.916 3.17029 45.5442 3.05353 45.1633 3.05353C44.7823 3.05353 44.4106 3.17029 44.098 3.38809C43.7855 3.60589 43.5473 3.91425 43.4154 4.27163C43.2835 4.629 43.2643 5.01821 43.3605 5.38681C43.4566 5.75541 43.6634 6.08568 43.953 6.33312V10.4478H40.9864C40.9495 10.4446 40.9124 10.4514 40.8791 10.4677C40.8457 10.484 40.8175 10.509 40.7973 10.5401C40.7772 10.5712 40.7659 10.6073 40.7647 10.6443C40.7635 10.6814 40.7725 10.718 40.7906 10.7504C40.9275 11.0243 41.3336 11.0832 41.3336 11.5466C41.3336 12.3428 40.3909 12.6899 40.3909 14.1708C40.3909 15.4241 41.0581 15.5849 41.0581 16.1757C41.0581 16.6056 40.5676 16.6693 40.5676 17.0324C40.5676 17.3954 40.9976 17.3668 40.9976 17.6263C40.9976 18.0833 40.0422 17.897 40.0422 18.741C40.0422 19.405 40.4928 19.3063 40.4928 20.0149C40.4928 20.3031 40.2715 20.3079 40.0947 20.3764C39.8781 20.4608 39.8479 20.8413 39.9976 20.8413H41.953C41.9928 20.8413 42.0629 20.7394 42.0629 20.5897C42.0629 20.3079 41.9259 20.2585 41.9259 19.9751C41.9381 19.835 42.0006 19.7041 42.1019 19.6066C42.2033 19.5091 42.3365 19.4516 42.4769 19.4448C43.1027 19.4448 43.9212 20.0818 44.9149 20.0818C46.0932 20.0818 46.8862 19.4448 47.7159 19.4448C48.1824 19.4448 48.3114 19.7362 48.3114 20.0037C48.3114 20.3222 48.1888 20.4178 48.1936 20.5834C48.1936 20.6662 48.2605 20.835 48.3305 20.835H50.2684C50.4277 20.8429 50.329 20.4337 50.1697 20.3827Z" fill="white"/>
<path d="M50.1697 20.3827C49.9181 20.3015 49.7302 20.3334 49.7302 19.905C49.7302 19.3588 50.2079 19.2681 50.2079 18.7028C50.2079 17.9257 49.2668 18.0531 49.2668 17.6231C49.2668 17.3922 49.6809 17.3126 49.6809 17.0594C49.6809 16.7314 49.1952 16.5817 49.1952 16.2632C49.1952 15.5849 49.8497 15.1486 49.8497 14.1931C49.8497 13.053 48.9659 12.5753 48.9659 11.6995C48.9659 11.1421 49.5519 10.9351 49.5519 10.6517C49.5536 10.6259 49.5501 10.6 49.5414 10.5756C49.5328 10.5512 49.5192 10.5289 49.5016 10.5099C49.484 10.491 49.4627 10.4759 49.4391 10.4655C49.4154 10.455 49.3898 10.4496 49.364 10.4494H46.3735V6.33312C46.6631 6.08568 46.8699 5.75541 46.966 5.38681C47.0622 5.01821 47.043 4.629 46.9111 4.27163C46.7793 3.91425 46.541 3.60589 46.2285 3.38809C45.916 3.17029 45.5442 3.05353 45.1633 3.05353C44.7823 3.05353 44.4106 3.17029 44.098 3.38809C43.7855 3.60589 43.5473 3.91425 43.4154 4.27163C43.2835 4.629 43.2643 5.01821 43.3605 5.38681C43.4566 5.75541 43.6634 6.08568 43.953 6.33312V10.4478H40.9864C40.9495 10.4446 40.9124 10.4514 40.8791 10.4677C40.8457 10.484 40.8175 10.509 40.7973 10.5401C40.7772 10.5712 40.7659 10.6073 40.7647 10.6443C40.7635 10.6814 40.7725 10.718 40.7906 10.7504C40.9275 11.0243 41.3336 11.0832 41.3336 11.5466C41.3336 12.3428 40.3909 12.6899 40.3909 14.1708C40.3909 15.4241 41.0581 15.5849 41.0581 16.1757C41.0581 16.6056 40.5676 16.6693 40.5676 17.0324C40.5676 17.3954 40.9976 17.3668 40.9976 17.6263C40.9976 18.0833 40.0422 17.897 40.0422 18.741C40.0422 19.405 40.4928 19.3063 40.4928 20.0149C40.4928 20.3031 40.2715 20.3079 40.0947 20.3764C39.8781 20.4608 39.8479 20.8413 39.9976 20.8413H41.953C41.9928 20.8413 42.0629 20.7394 42.0629 20.5897C42.0629 20.3079 41.9259 20.2585 41.9259 19.9751C41.9381 19.835 42.0006 19.7041 42.1019 19.6066C42.2033 19.5091 42.3365 19.4516 42.4769 19.4448C43.1027 19.4448 43.9212 20.0818 44.9149 20.0818C46.0932 20.0818 46.8862 19.4448 47.7159 19.4448C48.1824 19.4448 48.3114 19.7362 48.3114 20.0037C48.3114 20.3222 48.1888 20.4178 48.1936 20.5834C48.1936 20.6662 48.2605 20.835 48.3305 20.835H50.2684C50.4277 20.8429 50.329 20.4337 50.1697 20.3827ZM48.5232 11.8555C48.6124 11.9208 48.5805 12.123 48.571 12.2313C48.5184 12.8428 49.4165 13.3189 49.3672 14.3715C49.3579 14.6155 49.2884 14.8535 49.1649 15.0642C49.0662 15.1788 48.9866 15.1486 49.0503 15.0116C49.1138 14.8209 49.1418 14.6201 49.1331 14.4193C49.1601 13.4861 47.985 13.002 48.1569 12.0641C48.1616 12.0233 48.1758 11.9842 48.1985 11.9499C48.2211 11.9157 48.2515 11.8872 48.2872 11.8669C48.3228 11.8466 48.3628 11.835 48.4038 11.833C48.4448 11.831 48.4857 11.8387 48.5232 11.8555ZM43.6728 5.29967C43.6126 5.07144 43.6056 4.83246 43.6523 4.60111C43.699 4.36975 43.7981 4.15219 43.9421 3.96516C44.0861 3.77813 44.271 3.62662 44.4827 3.52229C44.6944 3.41795 44.9272 3.36357 45.1633 3.36333C45.5119 3.37063 45.8459 3.50481 46.1028 3.74072C46.4913 4.09742 46.219 4.28213 45.9435 4.00347C45.7341 3.80818 45.4576 3.70098 45.1712 3.7041C44.8585 3.70398 44.5581 3.82587 44.3338 4.04386C44.1096 4.26184 43.9793 4.55871 43.9706 4.87132C43.9698 4.88245 43.9698 4.89362 43.9706 4.90476C43.9706 4.94457 43.9626 5.11973 43.9626 5.27897C43.9499 5.62292 43.7683 5.66432 43.6728 5.29967ZM44.7875 10.4463H44.4021V4.90476C44.4017 4.80453 44.4211 4.70521 44.4591 4.61249C44.4972 4.51978 44.5532 4.43549 44.6239 4.36447C44.6946 4.29346 44.7787 4.2371 44.8712 4.19865C44.9638 4.1602 45.063 4.14041 45.1633 4.14041C45.345 4.13692 45.5214 4.20234 45.6569 4.32353C45.9499 4.60061 45.7684 4.84106 45.4849 4.58469C45.3982 4.51249 45.287 4.47655 45.1744 4.48437C45.0695 4.4927 44.9714 4.53995 44.8996 4.61684C44.8277 4.69374 44.7871 4.79472 44.7859 4.89998L44.7875 10.4463ZM41.2763 12.9304C41.4944 12.545 41.9037 11.9925 41.9037 11.5784C41.9035 11.4093 41.8555 11.2437 41.7651 11.1007C41.7557 11.0773 41.7521 11.052 41.7544 11.0268C41.7567 11.0017 41.765 10.9775 41.7785 10.9562C41.7921 10.9349 41.8105 10.9171 41.8322 10.9043C41.854 10.8915 41.8785 10.884 41.9037 10.8826C42.0502 10.8826 48.02 10.873 48.1347 10.8682C48.3894 10.8587 48.348 11.1374 48.0789 11.1469L42.9037 11.3061C42.6298 11.3173 42.5565 11.4654 42.469 11.7536C42.3814 12.0418 42.168 12.3778 41.8129 12.8555C41.3782 13.4415 41.2715 14.4861 41.6998 15.3476C41.7763 15.5069 41.6154 15.6358 41.4992 15.4893C41.217 15.1308 41.0456 14.6977 41.006 14.2431C40.9664 13.7886 41.0603 13.3323 41.2763 12.9304ZM47.5295 13.5355C47.3703 13.045 47.0439 12.8985 46.684 12.8316C46.2206 12.7473 44.1919 12.7584 43.719 12.8094C43.246 12.8603 43.0454 13.0243 42.9228 13.2871C42.8208 13.5476 42.758 13.8218 42.7365 14.1008C42.6648 14.4495 42.4769 14.4304 42.4275 14.0817C42.3887 13.7271 42.4436 13.3685 42.5868 13.0418C42.8065 12.5896 43.176 12.3476 43.7843 12.2982C44.7661 12.2509 45.75 12.2642 46.7302 12.338C47.3178 12.3921 47.7541 12.7297 47.9356 13.5004C48.0324 14.0131 48.0431 14.5384 47.9675 15.0546C47.8783 15.4304 47.6729 15.3731 47.6808 14.9973C47.6936 14.3794 47.6936 14.0419 47.5295 13.5355ZM46.9993 14.7345C46.9993 15.6565 46.8225 16.0706 46.4881 16.0706C46.1537 16.0706 46.0741 15.7393 46.0741 14.7712C46.0741 13.803 46.262 13.4145 46.5725 13.4145C46.9181 13.4081 46.9993 13.9017 46.9993 14.7282V14.7345ZM45.5661 14.7345C45.5661 15.69 45.3942 16.061 45.0725 16.061C44.7508 16.061 44.5948 15.983 44.5948 14.7091C44.5948 13.8269 44.7875 13.4001 45.1521 13.4001C45.4626 13.3938 45.5709 13.5562 45.5709 14.7282L45.5661 14.7345ZM44.1091 14.7107C44.1091 15.8253 43.8798 16.0514 43.5804 16.0514C43.2811 16.0514 43.1792 15.7091 43.1792 14.7473C43.1792 13.6326 43.4276 13.389 43.6473 13.389C43.8671 13.389 44.1091 13.5896 44.1091 14.7107ZM47.6745 18.5085C45.6601 18.5817 43.3575 18.6152 41.9673 18.6677C41.6584 18.6821 41.3415 18.8381 41.4068 19.5977C41.4355 19.9162 41.2938 20.1487 41.117 20.2346C40.8893 20.3382 40.8861 20.1821 40.9259 20.1025C41.0501 19.8604 41.0247 19.5276 40.8033 19.034C40.5995 18.5817 40.953 18.2282 41.367 18.2282L47.7222 18.2489C47.9961 18.2505 47.8687 18.5005 47.6681 18.5085H47.6745ZM41.9578 17.112C41.8608 17.1065 41.764 17.1251 41.6759 17.1661C41.5645 17.2346 41.4673 17.268 41.3766 17.1661C41.2858 17.0642 41.2062 16.741 41.5868 16.725C43.047 16.6645 48.4484 16.725 48.6092 16.725C48.8863 16.7425 48.9277 17.0085 48.641 17.0164C48.4643 17.0387 42.7874 17.0865 41.9514 17.112H41.9578ZM49.1984 19.3668C48.9818 19.6853 49.0121 19.8286 49.1251 20.0531C49.1856 20.1757 49.2254 20.3206 48.9181 20.2729C48.7875 20.2522 48.692 20.0945 48.692 19.862C48.692 19.6295 48.9149 19.2601 48.9133 19.0658C48.9133 18.6725 48.6347 18.7091 48.5582 18.5786C48.5428 18.5458 48.535 18.51 48.5353 18.4737C48.5357 18.4375 48.5442 18.4018 48.5603 18.3694C48.5764 18.3369 48.5996 18.3085 48.6282 18.2863C48.6568 18.264 48.69 18.2486 48.7254 18.241C48.9515 18.163 49.4309 18.241 49.5328 18.62C49.606 18.9273 49.399 19.0658 49.192 19.3668H49.1984Z" fill="#0C0608"/>
<path d="M46.0741 14.7648C46.0741 15.733 46.1649 16.0642 46.4881 16.0642C46.8114 16.0642 46.9993 15.6502 46.9993 14.7282C46.9993 13.9017 46.9181 13.4081 46.5725 13.4081C46.262 13.4081 46.0741 13.8078 46.0741 14.7648ZM44.6059 14.7027C44.6059 15.9766 44.7652 16.0546 45.0836 16.0546C45.4021 16.0546 45.5773 15.6756 45.5773 14.7282C45.5773 13.5562 45.469 13.3938 45.1696 13.3938C44.7986 13.3938 44.6059 13.8205 44.6059 14.7027ZM43.1728 14.7473C43.1728 15.7027 43.2508 16.0514 43.5741 16.0514C43.8973 16.0514 44.1091 15.8317 44.1091 14.7107C44.1091 13.5896 43.891 13.389 43.6473 13.389C43.4037 13.389 43.1728 13.6294 43.1728 14.7473Z" fill="white"/>
</g>
<defs>
<clipPath id="clip0_2035_2840">
<rect width="90" height="46.0979" fill="white"/>
</clipPath>
</defs>
</svg>
