<svg width="100" height="23" viewBox="0 0 100 23" fill="none" xmlns="http://www.w3.org/2000/svg">
<g clip-path="url(#clip0_2035_2780)">
<path d="M97.6857 10.7221L97.0489 11.9996C95.3128 15.5551 94.2136 15.2499 94.4444 13.8603L95.8046 5.97201C96.4993 1.97189 95.6024 0 93.2008 0C89.5843 0 85.9092 4.88861 82.5528 12.0826L82.0896 13.0548L83.0151 5.97201C83.5362 1.86074 82.7257 0 80.4979 0C77.6626 0 74.2769 2.91672 72.1069 7.83275C71.0942 3.13828 66.9853 0 61.6612 0C56.0771 0 51.6207 3.38876 49.5665 8.13881L49.0749 9.27778C46.8178 14.4717 42.7674 16.5556 39.6133 16.5556C37.3561 16.5556 35.6779 15.6671 35.3021 13.1667C44.6478 12.7503 48.2358 9.55568 48.2358 5.72229C48.2358 2.63883 45.7764 0 40.7125 0C35.6486 0 31.1058 2.58325 28.3283 8.30554L26.8239 11.4164C25.6375 13.8611 24.8276 14.8051 24.3067 14.8051C23.9014 14.8051 23.7571 14.5554 23.9014 13.6944L25.2322 5.97278C25.9269 1.97265 25.03 0.000762092 22.6276 0.000762092C19.0111 0.000762092 15.336 4.88937 11.9796 12.0834L11.5165 13.0556L12.442 5.97278C12.9631 1.8615 12.1525 0.000762092 9.92474 0.000762092C6.71272 0.000762092 2.8361 3.83415 0.549611 10.0559L0 11.5557H2.31503L2.92254 10.3056C4.48493 7.16657 5.15033 7.41706 5.00599 8.80575L3.83776 16.2503C3.14301 20.2503 4.04 22.2222 6.44228 22.2222C10.2547 22.2222 12.507 15.8132 16.1465 10.1952C16.6961 9.38969 17.13 9.58385 17.0142 10.2508L15.8276 17.1394C15.3067 20.1674 16.4353 22.2222 19.4442 22.2222C22.1637 22.2222 24.9999 19.6671 27.6907 14.1946C28.5012 18.889 32.4937 22.2222 37.8757 22.2222C43.2575 22.2222 47.2507 18.2221 48.9289 13.8611C49.7965 18.7779 54.2236 22.2222 59.6349 22.2222C64.5536 22.2222 69.4724 19.1943 71.5272 14.2501L73.1769 10.3056C74.5076 7.11099 75.7235 7.41706 75.5783 8.80575L74.4101 16.2503C73.7154 20.2503 74.6124 22.2222 77.0146 22.2222C80.8271 22.2222 83.0794 15.8132 86.7189 10.1952C87.2685 9.38969 87.7024 9.58385 87.5874 10.2508L86.4008 17.1394C85.8799 20.1674 87.0378 22.2222 89.8151 22.2222C93.8662 22.2222 97.2805 17.5833 99.5947 11.7506L100 10.7228L97.6857 10.7221ZM40.0764 4.77822C41.1178 4.77822 41.581 5.30583 41.581 6.2225C41.581 7.50004 40.684 9.52826 35.3314 10.4723C35.8525 7.05617 38.0224 4.77822 40.0764 4.77822ZM59.55 17.1388C57.756 17.1388 56.5696 15.6389 56.5696 13.2223C56.5696 10.5279 58.1612 5.08351 61.7493 5.08351C63.5432 5.08351 64.7297 6.58337 64.7297 8.99989C64.7297 11.6943 63.1379 17.1388 59.55 17.1388Z" fill="white"/>
</g>
<defs>
<clipPath id="clip0_2035_2780">
<rect width="100" height="22.2222" fill="white"/>
</clipPath>
</defs>
</svg>
