<svg width="90" height="51" viewBox="0 0 90 51" fill="none" xmlns="http://www.w3.org/2000/svg">
<path d="M14.7943 8.15689L0 0V50.5558H17.3354L25.5025 35.7807H14.7943V8.15689ZM25.8904 14.2746L22.1922 12.2353V28.3919H29.5894L31.4712 24.9932H25.8887L25.8904 14.2746ZM33.6516 28.3911H37.3498V12.927H33.6516V28.3911ZM84.4115 19.8043L84.8556 22.6609H86.8285V25.5183C86.4882 25.5617 85.4282 25.6262 85.0615 25.6262C84.4073 25.6262 83.5064 25.5149 82.9661 25.2685C82.4586 25.039 82.0124 24.6931 81.6637 24.2591C81.3013 23.798 81.0347 23.2694 80.8793 22.7042C80.6976 22.0457 80.6094 21.365 80.6173 20.682C80.6173 19.1594 80.972 17.9443 81.6739 17.07C82.3757 16.1957 83.5268 15.759 85.1049 15.759C85.7748 15.7532 86.442 15.8451 87.0854 16.0317C87.6419 16.1946 88.1813 16.4111 88.6958 16.6783L88.7562 16.7097L89.7882 13.8455L89.749 13.8208C89.6291 13.7461 89.43 13.6407 89.1535 13.509C88.8151 13.3521 88.4649 13.2217 88.1063 13.119C87.611 12.978 87.1076 12.8673 86.5988 12.7876C85.9495 12.6866 85.2932 12.6383 84.6361 12.6432C83.6082 12.6375 82.5878 12.8183 81.6245 13.1768C80.7035 13.52 79.8657 14.054 79.1659 14.7436C78.4527 15.4638 77.8952 16.3228 77.5282 17.2671C77.1292 18.2544 76.9276 19.4032 76.9276 20.6837C76.9276 21.9497 77.1097 23.0908 77.4721 24.0756C77.8022 25.0139 78.3299 25.8706 79.0196 26.5881C79.699 27.2784 80.5221 27.811 81.4306 28.1481C82.4388 28.5147 83.5054 28.6955 84.5783 28.6817C85.9148 28.6817 87.0548 28.5874 87.9668 28.4038C88.8787 28.2203 89.5508 28.0453 89.9634 27.883L90 27.8694V19.806L84.4115 19.8043ZM71.7543 21.0626C69.2514 16.1795 65.4385 12.9278 65.4385 12.9278H61.9368V28.3919H65.5754V18.6691C65.5754 18.6691 69.1979 22.5615 71.9023 28.3928H75.4014V12.9287H71.7526L71.7543 21.0626ZM55.5682 28.3928H59.2664V12.9287H55.5682V28.3928ZM46.5675 23.7247C44.98 19.5171 43.6639 15.2406 43.3406 12.9338H39.4477C40.1623 17.4634 42.6269 23.8878 44.7222 28.3979L44.7495 28.3792L44.7401 28.3979H48.4672C50.5642 23.8904 53.0305 17.466 53.7417 12.9338H49.7943C49.4727 15.2406 48.1541 19.5171 46.5675 23.7247Z" fill="white"/>
</svg>
